{
.appVersion = "3151";
.formatVersion = 3;
axes = (
{
name = Weight;
tag = wght;
}
);
classes = (
{
automatic = 1;
code = "A Aacute Abreve Abreveacute Abrevedotbelow Abrevegrave Abrevehookabove Abrevetilde Acircumflex Acircumflexacute Acircumflexdotbelow Acircumflexgrave Acircumflexhookabove Acircumflextilde Adblgrave Adieresis Adotbelow Agrave Ahookabove Ainvertedbreve Amacron Aogonek Aring Aringacute Atilde AE AEacute B C Cacute Ccaron Ccedilla Ccircumflex Cdotaccent D DZcaron Eth Dcaron Dcroat Dzcaron E Eacute Ebreve Ecaron Ecircumflex Ecircumflexacute Ecircumflexdotbelow Ecircumflexgrave Ecircumflexhookabove Ecircumflextilde Edblgrave Edieresis Edotaccent Edotbelow Egrave Ehookabove Einvertedbreve Emacron Eogonek Etilde Schwa Ezh Ezhcaron F G Gbreve Gcaron Gcircumflex Gcommaaccent Gdotaccent Gstroke H Hbar Hcircumflex I IJ Iacute Ibreve Icircumflex Idblgrave Idieresis Idotaccent Idotbelow Igrave Ihookabove Iinvertedbreve Imacron Iogonek Itilde J Jacute Jcircumflex K Kcaron Kcommaaccent L LJ Lacute Lcaron Lcommaaccent Ldot Lj Lslash M N NJ Nacute Ncaron Ncommaaccent Nj Ntilde Eng O Oacute Obreve Ocircumflex Ocircumflexacute Ocircumflexdotbelow Ocircumflexgrave Ocircumflexhookabove Ocircumflextilde Odblgrave Odieresis Odieresismacron Odotaccentmacron Odotbelow Ograve Ohookabove Ohorn Ohornacute Ohorndotbelow Ohorngrave Ohornhookabove Ohorntilde Ohungarumlaut Oinvertedbreve Omacron Oogonek Oslash Oslashacute Otilde Otildemacron OE P Thorn Q R Racute Rcaron Rcommaaccent Rdblgrave Rinvertedbreve S Sacute Scaron Scedilla Scircumflex Scommaaccent Germandbls T Tbar Tcaron Tcedilla Tcommaaccent U Uacute Ubreve Ucircumflex Udblgrave Udieresis Udotbelow Ugrave Uhookabove Uhorn Uhornacute Uhorndotbelow Uhorngrave Uhornhookabove Uhorntilde Uhungarumlaut Uinvertedbreve Umacron Uogonek Uring Utilde V W Wacute Wcircumflex Wdieresis Wgrave X Y Yacute Ycircumflex Ydieresis Ydotbelow Ygrave Yhookabove Ymacron Ytilde Z Zacute Zcaron Zdotaccent";
name = Uppercase;
},
{

glyphs = (
{
glyphname = .notdef;
lastChange = "2024-02-22 10:41:11 +0000";
layers = (
{
layerId = "FCF05EF6-3D3F-478B-BA59-24992C4C44E9";
shapes = (
{
closed = 1;
nodes = (
(474,-300,l),
(789,960,l),
(261,960,l),
(-54,-300,l)
);
}
);
width = 720;
},
{
background = {
shapes = (
{
closed = 1;
nodes = (
(634,0,l),
(634,914,l),
(86,914,l),
(86,0,l)
);
},
{
closed = 1;
nodes = (
(189,823,l),
(531,823,l),
(531,91,l),
(189,91,l)
);
}
);
};
layerId = "DB28B65E-4CBC-4F12-8216-7B4F2F083639";
shapes = (
{
closed = 1;
nodes = (
(474,-300,l),
(789,960,l),
(261,960,l),
(-54,-300,l)
);
}
);
width = 720;
},
{
background = {
shapes = (
{
closed = 1;
nodes = (
(634,0,l),
(634,914,l),
(86,914,l),
(86,0,l)
);
},
{
closed = 1;
nodes = (
(189,823,l),
(531,823,l),
(531,91,l),
(189,91,l)
);
}
);
};
layerId = "5ACC057E-9D2C-45A0-8610-B9302B4AC058";
shapes = (
{
closed = 1;
nodes = (
(474,-300,l),
(789,960,l),
(261,960,l),
(-54,-300,l)
);
}
);
width = 720;
},
{
layerId = "5435BF97-BB07-4B92-90A3-3494A24C81AC";
shapes = (
{
closed = 1;
nodes = (
(474,-300,l),
(789,960,l),
(261,960,l),
(-54,-300,l)
);
}
);
width = 720;
}
);
},
{
color = 3;
glyphname = A;
kernLeft = A;
kernRight = A;
lastChange = "2024-03-04 22:02:27 +0000";
layers = (
{
anchors = (
{
name = bottom;
pos = (315,0);
},
{
name = ogonek;
pos = (639,0);
},
{
name = top;
pos = (536,900);
},
{
name = "top-vertical";
pos = (212,720);
}
);
layerId = "FCF05EF6-3D3F-478B-BA59-24992C4C44E9";
shapes = (
{
closed = 1;
nodes = (
(17,0,l),
(247,374,l),
(571,374,l),
(617,0,l),
(660,0,l),
(544,930,l),
(542,930,l),
(-30,0,l)
);
},
{
closed = 1;
nodes = (
(421,660,ls),
(464,730,o),
(486,764,o),
(520,828,c),
(524,764,o),
(528,730,o),
(537,660,cs),
(567,412,l),
(269,412,l)
);
}
);
width = 780;
},
{
anchors = (
{
name = bottom;
pos = (325,0);
},
{
name = ogonek;
pos = (652,0);
},
{
name = top;
pos = (546,900);
},
{
name = "top-vertical";
pos = (222,720);
}
);
guides = (
{
angle = -104.036;
pos = (18,300);
}
);
hints = (
{
horizontal = 1;
origin = (0,7);
target = up;
type = BottomGhost;
},
{
horizontal = 1;
origin = (0,1);
target = (1,8);
type = Stem;
}
);
layerId = "DB28B65E-4CBC-4F12-8216-7B4F2F083639";
shapes = (
{
closed = 1;
nodes = (
(68,0,l),
(240,267,l),
(555,267,l),
(596,0,l),
(707,0,l),
(554,930,l),
(552,930,l),
(-57,0,l)
);
},
{
closed = 1;
nodes = (
(416,540,ls),
(446,586,o),
(469,624,o),
(500,686,c),
(501,624,o),
(507,585,o),
(513,540,cs),
(540,362,l),
(301,362,l)
);
}
);
width = 800;
},
{
anchors = (
{
name = bottom;
pos = (335,0);
},
{
name = ogonek;
pos = (648,0);
},
{
name = top;
pos = (557,900);
},
{
name = "top-vertical";
pos = (233,720);
}
);
layerId = "5ACC057E-9D2C-45A0-8610-B9302B4AC058";
shapes = (
{
closed = 1;
nodes = (
(122,0,l),
(229,160,l),
(535,160,l),
(562,0,l),
(733,0,l),
(566,932,l),
(564,932,l),
(-63,0,l)
);
},
{
closed = 1;
nodes = (
(386,396,ls),
(419,445,o),
(446,488,o),
(476,548,c),
(477,487,o),
(485,445,o),
(494,396,cs),
(510,304,l),
(325,304,l)
);
}
);
width = 820;
},
{
anchors = (
{
name = bottom;
pos = (368,0);
},
{
name = ogonek;
pos = (661,0);
},
{
name = top;
pos = (579,900);
},
{
name = "top-vertical";
pos = (254,720);
}
);
guides = (
{
angle = 66.9745;
pos = (-16,0);
},
{
angle = 113.0255;
pos = (876,0);
},
{
angle = 247.7222;
pos = (-16,0);
}
);
layerId = "5435BF97-BB07-4B92-90A3-3494A24C81AC";
shapes = (
{
closed = 1;
nodes = (
(215,0,l),
(265,75,l),
(507,75,l),
(521,0,l),
(801,0,l),
(654,900,l),
(502,900,l),
(-91,0,l)
);
},
{
closed = 1;
nodes = (
(381,266,ls),
(418,324,o),
(439,362,o),
(475,431,c),
(476,362,o),
(479,322,o),
(487,266,cs),
(491,237,l),
(363,237,l)
);
}
);
width = 860;
},
{
anchors = (
{
name = bottom;
pos = (430,0);
},
{
name = ogonek;
pos = (728,0);
},
{
name = top;
pos = (430,900);
},
{
name = "top-vertical";
pos = (150,720);
}
);
associatedMasterId = "5435BF97-BB07-4B92-90A3-3494A24C81AC";
guides = (
{
angle = 66.9745;
pos = (325,120);
}
);
hints = (
{
horizontal = 1;
place = (964, -20);
target = down;
type = TopGhost;
}
);
layerId = "3A12DD3A-0DB3-47CF-B99B-C4BDA414F647";
name = "4 Jan 24, 15:48";
shapes = (
{
closed = 1;
nodes = (
(274,0,l),
(306,75,l),
(548,75,l),
(580,0,l),
(876,0,l),
(432,980,l),
(427,980,l),
(-16,0,l)
);
},
{
closed = 1;
nodes = (
(379,263,ls),
(399,316,o),
(410,350,o),
(427,413,c),
(443,350,o),
(455,314,o),
(475,263,cs),
(485,237,l),
(369,237,l)
);
}
);
width = 860;
}
);
unicode = 65;
},
{
color = 3;
glyphname = Aogonek;
kernLeft = A;
kernRight = A;
lastChange = "2024-02-25 12:48:29 +0000";
layers = (
{
layerId = "FCF05EF6-3D3F-478B-BA59-24992C4C44E9";
shapes = (
{
closed = 1;
nodes = (
(621,-246,l),
(568,-238,o),
(538,-209,o),
(538,-165,cs),
(538,-117,o),
(572,-60,o),
(660,0,c),
(544,930,l),
(542,930,l),
(-30,0,l),
(17,0,l),
(247,374,l),
(571,374,l),
(616,6,l),
(527,-56,o),
(496,-121,o),
(496,-171,cs),
(496,-230,o),
(537,-274,o),
(602,-282,c)
);
},
{
closed = 1;
nodes = (
(421,660,ls),
(464,730,o),
(486,764,o),
(520,828,c),
(524,764,o),
(529,730,o),
(537,660,cs),
(567,412,l),
(269,412,l)
);
}
);
width = 780;
},
{
background = {
shapes = (
{
closed = 1;
nodes = (
(133,0,l),
(349,540,l),
(367,586,o),
(381,624,o),
(397,686,c),
(413,624,o),
(428,585,o),
(446,540,c),
(661,0,l),
(782,0,l),
(400,930,l),
(18,0,l)
);
},
{
closed = 1;
nodes = (
(548,362,l),
(247,362,l),
(211,267,l),
(583,267,l)
);
},
{
closed = 1;
nodes = (
(784,-312,o),
(823,-299,o),
(852,-277,c),
(828,-180,l),
(813,-205,o),
(790,-228,o),
(750,-228,cs),
(705,-228,o),
(678,-199,o),
(678,-157,cs),
(678,-98,o),
(739,-40,o),
(782,0,c),
(661,0,l),
(591,-78,o),
(576,-128,o),
(576,-168,cs),
(576,-256,o),
(646,-312,o),
(737,-312,cs)
);
}
);
};
hints = (
{
horizontal = 1;
origin = (0,9);
target = up;
type = BottomGhost;
},
{
horizontal = 1;
origin = (0,11);
target = (1,8);
type = Stem;
}
);
layerId = "DB28B65E-4CBC-4F12-8216-7B4F2F083639";
shapes = (
{
closed = 1;
nodes = (
(629,-219,l),
(583,-213,o),
(562,-192,o),
(562,-154,cs),
(562,-95,o),
(612,-42,o),
(707,0,c),
(554,930,l),
(552,930,l),
(-57,0,l),
(68,0,l),
(240,267,l),
(555,267,l),
(594,16,l),
(504,-36,o),
(458,-103,o),
(458,-178,cs),
(458,-249,o),
(510,-303,o),
(585,-312,c)
);
},
{
closed = 1;
nodes = (
(416,540,ls),
(446,586,o),
(469,624,o),
(500,686,c),
(501,624,o),
(507,585,o),
(513,540,cs),
(540,362,l),
(301,362,l)
);
}
);
width = 800;
},
{
background = {
shapes = (
{
closed = 1;
nodes = (
(133,0,l),
(349,540,l),
(367,586,o),
(381,624,o),
(397,686,c),
(413,624,o),
(428,585,o),
(446,540,c),
(661,0,l),
(782,0,l),
(400,930,l),
(18,0,l)
);
},
{
closed = 1;
nodes = (
(548,362,l),
(247,362,l),
(211,267,l),
(583,267,l)
);
},
{
closed = 1;
nodes = (
(784,-312,o),
(823,-299,o),
(852,-277,c),
(828,-180,l),
(813,-205,o),
(790,-228,o),
(750,-228,cs),
(705,-228,o),
(678,-199,o),
(678,-157,cs),
(678,-98,o),
(739,-40,o),
(782,0,c),
(661,0,l),
(591,-78,o),
(576,-128,o),
(576,-168,cs),
(576,-256,o),
(646,-312,o),
(737,-312,cs)
);
}
);
};
layerId = "5ACC057E-9D2C-45A0-8610-B9302B4AC058";
shapes = (
{
closed = 1;
nodes = (
(673,-195,l),
(630,-189,o),
(609,-167,o),
(609,-132,cs),
(609,-82,o),
(650,-35,o),
(733,0,c),
(566,932,l),
(564,932,l),
(-63,0,l),
(122,0,l),
(229,160,l),
(535,160,l),
(560,16,l),
(490,-34,o),
(451,-100,o),
(451,-171,cs),
(451,-254,o),
(504,-303,o),
(613,-318,c)
);
},
{
closed = 1;
nodes = (
(386,396,ls),
(423,452,o),
(448,493,o),
(476,548,c),
(477,502,o),
(481,468,o),
(494,396,cs),
(510,304,l),
(325,304,l)
);
}
);
width = 820;
},
{
layerId = "5435BF97-BB07-4B92-90A3-3494A24C81AC";
shapes = (
{
closed = 1;
nodes = (
(751,-124,l),
(716,-122,o),
(696,-107,o),
(696,-83,cs),
(696,-45,o),
(738,-14,o),
(801,0,c),
(654,900,l),
(502,900,l),
(-91,0,l),
(215,0,l),
(265,75,l),
(507,75,l),
(521,0,l),
(463,-33,o),
(420,-87,o),
(420,-144,cs),
(420,-229,o),
(509,-290,o),
(671,-290,c)
);
},
{
closed = 1;
nodes = (
(381,266,ls),
(418,324,o),
(439,362,o),
(475,431,c),
(476,362,o),
(479,322,o),
(487,266,cs),
(491,237,l),
(363,237,l)
);
}
);
width = 860;
}
);
unicode = 260;
},
{
color = 3;
glyphname = Aring;
kernLeft = A;
kernRight = A;
lastChange = "2024-02-22 10:39:36 +0000";
layers = (
{
background = {
shapes = (
{
closed = 1;
nodes = (
(17,0,l),
(247,374,l),
(571,374,l),
(617,0,l),
(660,0,l),
(556,830,l),
(624,843,o),
(679,906,o),
(679,974,cs),
(679,1044,o),
(622,1093,o),
(557,1093,cs),
(480,1093,o),
(407,1023,o),
(407,945,cs),
(407,894,o),
(439,852,o),
(484,835,c),
(-30,0,l)
);
},
{
closed = 1;
nodes = (
(421,660,ls),
(464,730,o),
(486,764,o),
(520,827,c),
(524,764,o),
(529,730,o),
(537,660,cs),
(567,412,l),
(269,412,l)
);
},
{
closed = 1;
nodes = (
(480,861,o),
(444,901,o),
(444,945,cs),
(444,1008,o),
(500,1059,o),
(558,1059,cs),
(606,1059,o),
(642,1020,o),
(642,975,cs),
(642,912,o),
(586,861,o),
(528,861,cs)
);
}
);
};
guides = (
{
angle = 6.0858;
pos = (559,1013);
}
);
layerId = "FCF05EF6-3D3F-478B-BA59-24992C4C44E9";
shapes = (
{
closed = 1;
nodes = (
(17,0,l),
(247,374,l),
(571,374,l),
(617,0,l),
(660,0,l),
(550,880,l),
(627,883,o),
(695,952,o),
(695,1027,cs),
(695,1097,o),
(638,1146,o),
(573,1146,cs),
(496,1146,o),
(423,1076,o),
(423,998,cs),
(423,943,o),
(461,897,o),
(514,884,c),
(-30,0,l)
);
},
{
closed = 1;
nodes = (
(421,660,ls),
(464,730,o),
(486,764,o),
(520,828,c),
(524,764,o),
(529,730,o),
(537,660,cs),
(567,412,l),
(269,412,l)
);
},
{
closed = 1;
nodes = (
(496,914,o),
(460,954,o),
(460,998,cs),
(460,1061,o),
(516,1112,o),
(574,1112,cs),
(622,1112,o),
(658,1073,o),
(658,1028,cs),
(658,965,o),
(602,914,o),
(544,914,cs)
);
}
);
width = 780;
},
{
layerId = "DB28B65E-4CBC-4F12-8216-7B4F2F083639";
shapes = (
{
closed = 1;
nodes = (
(68,0,l),
(240,267,l),
(555,267,l),
(596,0,l),
(707,0,l),
(571,835,l),
(655,846,o),
(727,923,o),
(727,1008,cs),
(727,1087,o),
(664,1146,o),
(586,1146,cs),
(493,1146,o),
(409,1064,o),
(409,972,cs),
(409,913,o),
(445,864,o),
(496,844,c),
(-57,0,l)
);
},
{
closed = 1;
nodes = (
(416,540,ls),
(446,586,o),
(469,624,o),
(500,686,c),
(501,624,o),
(507,585,o),
(513,540,cs),
(540,362,l),
(301,362,l)
);
},
{
closed = 1;
nodes = (
(515,906,o),
(484,939,o),
(484,979,cs),
(484,1030,o),
(530,1074,o),
(579,1074,cs),
(621,1074,o),
(652,1041,o),
(652,1001,cs),
(652,950,o),
(606,906,o),
(557,906,cs)
);
}
);
width = 800;
},
{
background = {
shapes = (
{
closed = 1;
nodes = (
(122,0,l),
(229,160,l),
(535,160,l),
(562,0,l),
(733,0,l),
(586,824,l),
(675,837,o),
(751,919,o),
(751,1010,cs),
(751,1093,o),
(686,1158,o),
(600,1158,cs),
(498,1158,o),
(409,1070,o),
(409,971,cs),
(409,907,o),
(446,857,o),
(498,834,c),
(-63,0,l)
);
},
{
closed = 1;
nodes = (
(386,396,ls),
(419,445,o),
(446,488,o),
(476,548,c),
(477,487,o),
(485,445,o),
(494,396,cs),
(510,304,l),
(325,304,l)
);
},
{
closed = 1;
nodes = (
(537,921,o),
(511,947,o),
(511,983,cs),
(511,1022,o),
(547,1059,o),
(587,1059,cs),
(623,1059,o),
(649,1032,o),
(649,997,cs),
(649,958,o),
(613,921,o),
(573,921,cs)
);
}
);
};
guides = (
{
angle = 186.5056;
pos = (573,979);
}
);
layerId = "5ACC057E-9D2C-45A0-8610-B9302B4AC058";
shapes = (
{
closed = 1;
nodes = (
(122,0,l),
(229,160,l),
(535,160,l),
(562,0,l),
(733,0,l),
(587,813,l),
(673,830,o),
(744,910,o),
(744,998,cs),
(744,1081,o),
(679,1146,o),
(593,1146,cs),
(491,1146,o),
(402,1058,o),
(402,959,cs),
(402,895,o),
(439,845,o),
(491,823,c),
(-63,0,l)
);
},
{
closed = 1;
nodes = (
(386,396,ls),
(419,445,o),
(446,488,o),
(476,548,c),
(477,487,o),
(485,445,o),
(494,396,cs),
(510,304,l),
(325,304,l)
);
},
{
closed = 1;
nodes = (
(530,909,o),
(504,935,o),
(504,971,cs),
(504,1010,o),
(540,1047,o),
(580,1047,cs),
(616,1047,o),
(642,1020,o),
(642,985,cs),
(642,946,o),
(606,909,o),
(566,909,cs)
);
}
);
width = 820;
},
{
guides = (
{
angle = 246.8937;
pos = (290,38);
}
);
layerId = "5435BF97-BB07-4B92-90A3-3494A24C81AC";
shapes = (
{
closed = 1;
nodes = (
(215,0,l),
(265,75,l),
(507,75,l),
(521,0,l),
(801,0,l),
(667,823,l),
(735,857,o),
(786,928,o),
(786,1006,cs),
(786,1096,o),
(715,1166,o),
(622,1166,cs),
(511,1166,o),
(414,1071,o),
(414,963,cs),
(414,914,o),
(434,873,o),
(465,844,c),
(-91,0,l)
);
},
{
closed = 1;
nodes = (
(381,266,ls),
(418,324,o),
(439,362,o),
(475,431,c),
(476,362,o),
(479,322,o),
(487,266,cs),
(491,237,l),
(363,237,l)
);
},
{
closed = 1;
nodes = (
(566,930,o),
(546,950,o),
(546,979,cs),
(546,1009,o),
(574,1038,o),
(605,1038,cs),
(634,1038,o),
(654,1017,o),
(654,989,cs),
(654,959,o),
(626,930,o),
(595,930,cs)
);
}
);
width = 860;
}
);
unicode = 197;
},
{
color = 3;
export = 0;
glyphname = A.ring;
kernLeft = A;
kernRight = A;
lastChange = "2024-02-22 10:40:36 +0000";
layers = (
{
anchors = (
{
name = top;
pos = (521,870);
}
);
layerId = "FCF05EF6-3D3F-478B-BA59-24992C4C44E9";
shapes = (
{
closed = 1;
nodes = (
(17,0,l),
(247,374,l),
(571,374,l),
(617,0,l),
(660,0,l),
(555,840,l),
(487,840,l),
(-30,0,l)
);
},
{
closed = 1;
nodes = (
(421,660,ls),
(464,730,o),
(486,764,o),
(520,828,c),
(524,764,o),
(529,730,o),
(537,660,cs),
(567,412,l),
(269,412,l)
);
}
);
width = 780;
},
{
associatedMasterId = "DB28B65E-4CBC-4F12-8216-7B4F2F083639";
background = {
shapes = (
{
closed = 1;
nodes = (
(470,114,o),
(552,196,o),
(552,298,cs),
(552,400,o),
(470,482,o),
(368,482,cs),
(267,482,o),
(185,400,o),
(185,298,cs),
(185,196,o),
(267,114,o),
(368,114,cs)
);
},
{
closed = 1;
nodes = (
(533,0,o),
(666,133,o),
(666,298,cs),
(666,463,o),
(533,596,o),
(368,596,cs),
(204,596,o),
(70,463,o),
(70,298,cs),
(70,133,o),
(204,0,o),
(368,0,cs)
);
},
{
closed = 1;
nodes = (
(425,596,o),
(470,642,o),
(470,698,cs),
(470,754,o),
(425,800,o),
(368,800,cs),
(312,800,o),
(267,754,o),
(267,698,cs),
(267,642,o),
(312,596,o),
(368,596,cs)
);
},
{
closed = 1;
nodes = (
(487,482,o),
(585,579,o),
(585,698,cs),
(585,817,o),
(487,914,o),
(368,914,cs),
(249,914,o),
(152,817,o),
(152,698,cs),
(152,579,o),
(249,482,o),
(368,482,cs)
);
}
);
};
guides = (
{
angle = 180;
pos = (387,578);
},
{
angle = 90;
pos = (390,960);
}
);
layerId = "A46F8F6A-D110-4BDB-81A5-97CF6B17BDAE";
name = "Jan 8 17, 21:42";
shapes = (
{
closed = 1;
nodes = (
(11,0,l),
(123,0,l),
(409,754,l),
(371,948,l)
);
},
{
closed = 1;
nodes = (
(178,329,l),
(559,329,l),
(559,427,l),
(178,427,l)
);
},
{
closed = 1;
nodes = (
(614,0,l),
(731,0,l),
(371,948,l),
(328,754,l)
);
}
);
width = 743;
},
{
anchors = (
{
name = top;
pos = (428,914);
}
);
associatedMasterId = "DB28B65E-4CBC-4F12-8216-7B4F2F083639";
background = {
shapes = (
{
closed = 1;
nodes = (
(235,272,l),
(616,272,l),
(616,369,l),
(235,369,l)
);
},
{
closed = 1;
nodes = (
(428,948,l),
(40,0,l),
(151,0,l),
(373,550,ls),
(391,596,o),
(409,636,o),
(426,699,c),
(442,636,o),
(460,596,o),
(478,550,cs),
(700,0,l),
(817,0,l)
);
}
);
};
guides = (
{
angle = 180;
pos = (447,578);
},
{
angle = 90;
pos = (450,960);
},
{
angle = -247.724;
pos = (735,0);
},
{
angle = 247.7241;
pos = (246,498);
},
{
angle = 247.7241;
pos = (159,0);
}
);
layerId = "271FE30F-FAD8-4E5C-96A6-8008E35F6BAB";
name = "Mar 20 17, 10:17";
shapes = (
{
closed = 1;
nodes = (
(157,0,l),
(267,272,l),
(585,272,l),
(694,0,l),
(817,0,l),
(435,931,l),
(422,931,l),
(40,0,l)
);
},
{
closed = 1;
nodes = (
(376,550,ls),
(394,596,o),
(409,636,o),
(426,699,c),
(442,636,o),
(457,596,o),
(475,550,cs),
(548,369,l),
(303,369,l)
);
}
);
width = 857;
},
{
anchors = (
{
name = top;
pos = (546,900);
}
);
layerId = "DB28B65E-4CBC-4F12-8216-7B4F2F083639";
shapes = (
{
closed = 1;
nodes = (
(68,0,l),
(240,267,l),
(555,267,l),
(596,0,l),
(707,0,l),
(560,900,l),
(532,900,l),
(-57,0,l)
);
},
{
closed = 1;
nodes = (
(416,540,ls),
(446,586,o),
(469,624,o),
(500,686,c),
(501,624,o),
(507,585,o),
(513,540,cs),
(540,362,l),
(301,362,l)
);
}
);
width = 800;
},
{
associatedMasterId = "5ACC057E-9D2C-45A0-8610-B9302B4AC058";
background = {
shapes = (
{
closed = 1;
nodes = (
(470,114,o),
(552,196,o),
(552,298,cs),
(552,400,o),
(470,482,o),
(368,482,cs),
(267,482,o),
(185,400,o),
(185,298,cs),
(185,196,o),
(267,114,o),
(368,114,cs)
);
},
{
closed = 1;
nodes = (
(533,0,o),
(666,133,o),
(666,298,cs),
(666,463,o),
(533,596,o),
(368,596,cs),
(204,596,o),
(70,463,o),
(70,298,cs),
(70,133,o),
(204,0,o),
(368,0,cs)
);
},
{
closed = 1;
nodes = (
(425,596,o),
(470,642,o),
(470,698,cs),
(470,754,o),
(425,800,o),
(368,800,cs),
(312,800,o),
(267,754,o),
(267,698,cs),
(267,642,o),
(312,596,o),
(368,596,cs)
);
},
{
closed = 1;
nodes = (
(487,482,o),
(585,579,o),
(585,698,cs),
(585,817,o),
(487,914,o),
(368,914,cs),
(249,914,o),
(152,817,o),
(152,698,cs),
(152,579,o),
(249,482,o),
(368,482,cs)
);
}
);
};
guides = (
{
angle = 180;
pos = (387,578);
},
{
angle = 90;
pos = (390,960);
}
);
layerId = "D9F38850-473B-40E2-B429-6A9B86451F88";
name = "Jan 8 17, 21:42";
shapes = (
{
closed = 1;
nodes = (
(11,0,l),
(123,0,l),
(409,754,l),
(371,948,l)
);
},
{
closed = 1;
nodes = (
(178,329,l),
(559,329,l),
(559,427,l),
(178,427,l)
);
},
{
closed = 1;
nodes = (
(614,0,l),
(731,0,l),
(371,948,l),
(328,754,l)
);
}
);
width = 743;
},
{
anchors = (
{
name = top;
pos = (428,914);
}
);
associatedMasterId = "5ACC057E-9D2C-45A0-8610-B9302B4AC058";
background = {
shapes = (
{
closed = 1;
nodes = (
(235,272,l),
(616,272,l),
(616,369,l),
(235,369,l)
);
},
{
closed = 1;
nodes = (
(428,948,l),
(40,0,l),
(151,0,l),
(373,550,ls),
(391,596,o),
(409,636,o),
(426,699,c),
(442,636,o),
(460,596,o),
(478,550,cs),
(700,0,l),
(817,0,l)
);
}
);
};
guides = (
{
angle = 180;
pos = (447,578);
},
{
angle = 90;
pos = (450,960);
},
{
angle = -247.724;
pos = (735,0);
},
{
angle = 247.7241;
pos = (246,498);
},
{
angle = 247.7241;
pos = (159,0);
}
);
layerId = "F9EE8ADF-39B7-41A0-AF62-6CC4AC63E8F3";
name = "Mar 20 17, 10:17";
shapes = (
{
closed = 1;
nodes = (
(157,0,l),
(267,272,l),
(585,272,l),
(694,0,l),
(817,0,l),
(435,931,l),
(422,931,l),
(40,0,l)
);
},
{
closed = 1;
nodes = (
(376,550,ls),
(394,596,o),
(409,636,o),
(426,699,c),
(442,636,o),
(457,596,o),
(475,550,cs),
(548,369,l),
(303,369,l)
);
}
);
width = 857;
},
{
anchors = (
{
name = top;
pos = (557,900);
}
);
layerId = "5ACC057E-9D2C-45A0-8610-B9302B4AC058";
shapes = (
{
closed = 1;
nodes = (
(122,0,l),
(229,160,l),
(535,160,l),
(562,0,l),
(733,0,l),
(572,900,l),
(542,900,l),
(-63,0,l)
);
},
{
closed = 1;
nodes = (
(386,396,ls),
(419,445,o),
(446,488,o),
(476,548,c),
(477,487,o),
(485,445,o),
(494,396,cs),
(510,304,l),
(325,304,l)
);
}
);
width = 820;
},
{
anchors = (
{
name = top;
pos = (579,900);
}
);
layerId = "5435BF97-BB07-4B92-90A3-3494A24C81AC";
shapes = (
{
closed = 1;
nodes = (
(215,0,l),
(265,75,l),
(507,75,l),
(521,0,l),
(801,0,l),
(654,900,l),
(502,900,l),
(-91,0,l)
);
},
{
closed = 1;
nodes = (
(381,266,ls),
(418,324,o),
(439,362,o),
(475,431,c),
(476,362,o),
(479,322,o),
(487,266,cs),
(491,237,l),
(363,237,l)
);
}
);
width = 860;
}
);
},
{
color = 3;
glyphname = Aringacute;
kernLeft = A;
kernRight = A;
lastChange = "2024-02-22 10:39:33 +0000";
layers = (
{
background = {
shapes = (
{
closed = 1;
nodes = (
(17,0,l),
(247,374,l),
(571,374,l),
(617,0,l),
(660,0,l),
(556,830,l),
(624,843,o),
(679,906,o),
(679,974,cs),
(679,1044,o),
(622,1093,o),
(557,1093,cs),
(480,1093,o),
(407,1023,o),
(407,945,cs),
(407,894,o),
(439,852,o),
(484,835,c),
(-30,0,l)
);
},
{
closed = 1;
nodes = (
(421,660,ls),
(464,730,o),
(486,764,o),
(520,827,c),
(524,764,o),
(529,730,o),
(537,660,cs),
(567,412,l),
(269,412,l)
);
},
{
closed = 1;
nodes = (
(480,861,o),
(444,901,o),
(444,945,cs),
(444,1008,o),
(500,1059,o),
(558,1059,cs),
(606,1059,o),
(642,1020,o),
(642,975,cs),
(642,912,o),
(586,861,o),
(528,861,cs)
);
},
{
closed = 1;
nodes = (
(601,1132,l),
(706,1240,l),
(659,1240,l),
(563,1132,l)
);
}
);
};
guides = (
{
angle = 217.0617;
pos = (626,1246);
}
);
layerId = "FCF05EF6-3D3F-478B-BA59-24992C4C44E9";
shapes = (
{
closed = 1;
nodes = (
(17,0,l),
(247,374,l),
(571,374,l),
(617,0,l),
(660,0,l),
(550,880,l),
(627,883,o),
(695,952,o),
(695,1027,cs),
(695,1097,o),
(638,1146,o),
(573,1146,cs),
(496,1146,o),
(423,1076,o),
(423,998,cs),
(423,943,o),
(461,897,o),
(514,884,c),
(-30,0,l)
);
},
{
closed = 1;
nodes = (
(421,660,ls),
(464,730,o),
(486,764,o),
(520,828,c),
(524,764,o),
(529,730,o),
(537,660,cs),
(567,412,l),
(269,412,l)
);
},
{
closed = 1;
nodes = (
(496,914,o),
(460,954,o),
(460,998,cs),
(460,1061,o),
(516,1112,o),
(574,1112,cs),
(622,1112,o),
(658,1073,o),
(658,1028,cs),
(658,965,o),
(602,914,o),
(544,914,cs)
);
},
{
closed = 1;
nodes = (
(615,1192,l),
(720,1300,l),
(673,1300,l),
(577,1192,l)
);
}
);
width = 780;
},
{
layerId = "DB28B65E-4CBC-4F12-8216-7B4F2F083639";
shapes = (
{
closed = 1;
nodes = (
(68,0,l),
(240,267,l),
(555,267,l),
(596,0,l),
(707,0,l),
(571,835,l),
(655,846,o),
(727,923,o),
(727,1008,cs),
(727,1087,o),
(664,1146,o),
(586,1146,cs),
(493,1146,o),
(409,1064,o),
(409,972,cs),
(409,913,o),
(445,864,o),
(496,844,c),
(-57,0,l)
);
},
{
closed = 1;
nodes = (
(416,540,ls),
(446,586,o),
(469,624,o),
(500,686,c),
(501,624,o),
(507,585,o),
(513,540,cs),
(540,362,l),
(301,362,l)
);
},
{
closed = 1;
nodes = (
(515,906,o),
(484,939,o),
(484,979,cs),
(484,1030,o),
(530,1074,o),
(579,1074,cs),
(621,1074,o),
(652,1041,o),
(652,1001,cs),
(652,950,o),
(606,906,o),
(557,906,cs)
);
},
{
closed = 1;
nodes = (
(669,1206,l),
(773,1317,l),
(668,1317,l),
(585,1206,l)
);
}
);
width = 800;
},
{
layerId = "5ACC057E-9D2C-45A0-8610-B9302B4AC058";
shapes = (
{
closed = 1;
nodes = (
(122,0,l),
(229,160,l),
(535,160,l),
(562,0,l),
(733,0,l),
(587,813,l),
(673,830,o),
(744,910,o),
(744,998,cs),
(744,1081,o),
(679,1146,o),
(593,1146,cs),
(491,1146,o),
(402,1058,o),
(402,959,cs),
(402,895,o),
(439,845,o),
(491,823,c),
(-63,0,l)
);
},
{
closed = 1;
nodes = (
(386,396,ls),
(419,445,o),
(446,488,o),
(476,548,c),
(477,487,o),
(485,445,o),
(494,396,cs),
(510,304,l),
(325,304,l)
);
},
{
closed = 1;
nodes = (
(530,909,o),
(504,935,o),
(504,971,cs),
(504,1010,o),
(540,1047,o),
(580,1047,cs),
(616,1047,o),
(642,1020,o),
(642,985,cs),
(642,946,o),
(606,909,o),
(566,909,cs)
);
},
{
closed = 1;
nodes = (
(696,1194,l),
(817,1329,l),
(652,1329,l),
(562,1194,l)
);
}
);
width = 820;
},
{
layerId = "5435BF97-BB07-4B92-90A3-3494A24C81AC";
shapes = (
{
closed = 1;
nodes = (
(215,0,l),
(265,75,l),
(507,75,l),
(521,0,l),
(801,0,l),
(667,823,l),
(735,857,o),
(786,928,o),
(786,1006,cs),
(786,1096,o),
(715,1166,o),
(622,1166,cs),
(511,1166,o),
(414,1071,o),
(414,963,cs),
(414,914,o),
(434,873,o),
(465,844,c),
(-91,0,l)
);
},
{
closed = 1;
nodes = (
(381,266,ls),
(418,324,o),
(439,362,o),
(475,431,c),
(476,362,o),
(479,322,o),
(487,266,cs),
(491,237,l),
(363,237,l)
);
},
{
closed = 1;
nodes = (
(566,930,o),
(546,950,o),
(546,979,cs),
(546,1009,o),
(574,1038,o),
(605,1038,cs),
(634,1038,o),
(654,1017,o),
(654,989,cs),
(654,959,o),
(626,930,o),
(595,930,cs)
);
},
{
closed = 1;
nodes = (
(735,1202,l),
(909,1376,l),
(673,1376,l),
(559,1202,l)
);
}
);
width = 860;
}
);
unicode = 506;
},
{
color = 3;
glyphname = AE;
kernLeft = A;
kernRight = A;
lastChange = "2024-02-25 12:47:24 +0000";
layers = (
{
anchors = (
{
name = bottom;
pos = (278,0);
},
{
name = top;
pos = (717,900);
}
);
guides = (
{
angle = 270;
pos = (889,20);
}
);
layerId = "FCF05EF6-3D3F-478B-BA59-24992C4C44E9";
shapes = (
{
closed = 1;
nodes = (
(17,0,l),
(247,374,l),
(539,374,l),
(557,0,l),
(889,0,l),
(889,40,l),
(598,40,l),
(572,536,l),
(829,536,l),
(829,574,l),
(570,574,l),
(555,860,l),
(865,860,l),
(865,900,l),
(525,900,l),
(-30,0,l)
);
},
{
closed = 1;
nodes = (
(422,660,ls),
(465,730,o),
(486,764,o),
(521,828,c),
(520,764,o),
(523,730,o),
(526,660,cs),
(538,412,l),
(270,412,l)
);
}
);
width = 1000;
},
{
anchors = (
{
name = bottom;
pos = (315,0);
},
{
name = top;
pos = (734,900);
}
);
guides = (
{
angle = -104.036;
pos = (18,300);
},
{
angle = -86.6087;
pos = (660,102);
},
{
angle = 270;
pos = (916,51);
}
);
layerId = "DB28B65E-4CBC-4F12-8216-7B4F2F083639";
shapes = (
{
closed = 1;
nodes = (
(68,0,l),
(241,267,l),
(546,267,l),
(562,0,l),
(916,0,l),
(916,102,l),
(660,102,l),
(636,504,l),
(856,504,l),
(856,606,l),
(630,606,l),
(619,798,l),
(892,798,l),
(892,900,l),
(535,900,l),
(-57,0,l)
);
},
{
closed = 1;
nodes = (
(417,540,ls),
(452,594,o),
(487,647,o),
(524,713,c),
(524,647,o),
(527,594,o),
(530,540,cs),
(541,362,l),
(302,362,l)
);
}
);
width = 1020;
},
{
anchors = (
{
name = bottom;
pos = (1148,0);
},
{
name = ogonek;
pos = (1370,0);
},
{
name = top;
pos = (400,900);
},
{
name = topleft;
pos = (926,900);
}
);
associatedMasterId = "DB28B65E-4CBC-4F12-8216-7B4F2F083639";
guides = (
{
angle = -68.2901;
pos = (554,270);
},
{
angle = 180;
pos = (609,798);
}
);
layerId = "61D2AFCD-7E77-41CC-9256-2ACF9CEC016D";
name = "27 May 22, 14:15";
shapes = (
{
closed = 1;
nodes = (
(133,0,l),
(349,540,ls),
(367,586,o),
(381,624,o),
(397,686,c),
(413,624,o),
(428,585,o),
(446,540,cs),
(661,0,l),
(972,0,l),
(972,102,l),
(740,102,l),
(575,504,l),
(785,504,l),
(785,606,l),
(533,606,l),
(454,798,l),
(785,798,l),
(785,900,l),
(303,900,l),
(344,798,l),
(18,0,l)
);
},
{
closed = 1;
nodes = (
(548,362,l),
(247,362,l),
(211,267,l),
(583,267,l)
);
}
);
width = 1020;
},
{
anchors = (
{
name = bottom;
pos = (342,0);
},
{
name = top;
pos = (751,900);
}
);
guides = (
{
angle = 67.257;
pos = (270,198);
},
{
angle = -70.9595;
pos = (525,297);
},
{
pos = (353,396);
},
{
angle = -104.036;
pos = (12,300);
},
{
angle = 270;
pos = (935,81);
}
);
layerId = "5ACC057E-9D2C-45A0-8610-B9302B4AC058";
shapes = (
{
closed = 1;
nodes = (
(122,0,l),
(229,160,l),
(546,160,l),
(562,0,l),
(935,0,l),
(935,162,l),
(710,162,l),
(681,456,l),
(875,456,l),
(875,606,l),
(666,606,l),
(653,744,l),
(911,744,l),
(911,900,l),
(543,900,l),
(-63,0,l)
);
},
{
closed = 1;
nodes = (
(386,396,ls),
(426,456,o),
(467,517,o),
(510,597,c),
(509,517,o),
(517,456,o),
(523,396,cs),
(532,304,l),
(325,304,l)
);
}
);
width = 1040;
},
{
anchors = (
{
name = bottom;
pos = (1148,0);
},
{
name = ogonek;
pos = (1370,0);
},
{
name = top;
pos = (400,900);
},
{
name = topleft;
pos = (926,900);
}
);
associatedMasterId = "5ACC057E-9D2C-45A0-8610-B9302B4AC058";
guides = (
{
angle = -68.2901;
pos = (554,270);
},
{
angle = 180;
pos = (609,798);
}
);
layerId = "2873AB6F-587C-4045-873D-C3A943DADE20";
name = "27 May 22, 14:21";
shapes = (
{
closed = 1;
nodes = (
(133,0,l),
(349,540,ls),
(367,586,o),
(381,624,o),
(397,686,c),
(413,624,o),
(428,585,o),
(446,540,cs),
(661,0,l),
(972,0,l),
(972,102,l),
(740,102,l),
(575,504,l),
(785,504,l),
(785,606,l),
(533,606,l),
(454,798,l),
(785,798,l),
(785,900,l),
(303,900,l),
(344,798,l),
(18,0,l)
);
},
{
closed = 1;
nodes = (
(548,362,l),
(247,362,l),
(211,267,l),
(583,267,l)
);
}
);
width = 1020;
},
{
anchors = (
{
name = bottom;
pos = (359,0);
},
{
name = top;
pos = (704,900);
}
);
background = {
shapes = (
{
closed = 1;
nodes = (
(239,0,l),
(268,53,l),
(599,53,l),
(627,0,l),
(1042,0,l),
(980,223,l),
(783,223,l),
(705,412,l),
(860,412,l),
(802,614,l),
(632,614,l),
(601,688,l),
(808,688,l),
(748,900,l),
(405,900,l),
(1,0,l)
);
},
{
closed = 1;
nodes = (
(361,258,ls),
(387,319,o),
(420,390,o),
(445,481,c),
(467,390,o),
(494,319,o),
(518,258,cs),
(529,248,l),
(351,248,l)
);
}
);
};
guides = (
{
angle = -67.0866;
pos = (975,240);
}
);
layerId = "5435BF97-BB07-4B92-90A3-3494A24C81AC";
shapes = (
{
closed = 1;
nodes = (
(215,0,l),
(265,75,l),
(507,75,l),
(521,0,l),
(1001,0,l),
(960,240,l),
(752,240,l),
(726,378,l),
(935,378,l),
(903,570,l),
(695,570,l),
(678,666,l),
(945,666,l),
(905,900,l),
(502,900,l),
(-91,0,l)
);
},
{
closed = 1;
nodes = (
(381,266,ls),
(417,324,o),
(439,362,o),
(475,431,c),
(476,362,o),
(479,322,o),
(487,266,cs),
(491,237,l),
(363,237,l)
);
}
);
width = 1060;
}
);
unicode = 198;
},
{
color = 3;
glyphname = B;
kernLeft = B;
kernRight = B;
lastChange = "2024-02-18 12:56:12 +0000";
layers = (
{
background = {
shapes = (
{
closed = 1;
nodes = (
(296,0,ls),
(474,0,o),
(616,118,o),
(654,270,cs),
(685,395,o),
(632,500,o),
(502,532,c),
(591,559,o),
(664,628,o),
(684,709,cs),
(710,814,o),
(643,900,o),
(514,900,cs),
(286,900,l),
(61,0,l)
);
},
{
closed = 1;
nodes = (
(232,510,l),
(400,510,ls),
(577,510,o),
(644,405,o),
(611,274,cs),
(578,141,o),
(460,38,o),
(295,38,cs),
(115,38,l)
);
},
{
closed = 1;
nodes = (
(320,862,l),
(501,862,ls),
(610,862,o),
(662,792,o),
(641,705,cs),
(619,617,o),
(531,546,o),
(416,546,cs),
(241,546,l)
);
}
);
};
guides = (
{
angle = -104.036;
pos = (136,300);
},
{
angle = -104.036;
pos = (180,300);
},
{
angle = -104.036;
pos = (662,300);
},
{
angle = -104.036;
pos = (582,300);
}
);
layerId = "FCF05EF6-3D3F-478B-BA59-24992C4C44E9";
shapes = (
{
closed = 1;
nodes = (
(319,0,ls),
(502,0,o),
(654,136,o),
(654,300,cs),
(654,403,o),
(592,491,o),
(496,525,c),
(606,548,o),
(682,630,o),
(682,727,cs),
(682,830,o),
(601,900,o),
(483,900,cs),
(286,900,l),
(61,0,l)
);
},
{
closed = 1;
nodes = (
(232,510,l),
(397,510,ls),
(518,510,o),
(610,420,o),
(610,301,cs),
(610,157,o),
(479,38,o),
(321,38,cs),
(115,38,l)
);
},
{
closed = 1;
nodes = (
(320,862,l),
(479,862,ls),
(575,862,o),
(640,805,o),
(640,721,cs),
(640,621,o),
(543,546,o),
(415,546,cs),
(241,546,l)
);
}
);
width = 730;
},
{
background = {
shapes = (
{
closed = 1;
nodes = (
(303,0,ls),
(507,0,o),
(651,144,o),
(686,287,cs),
(716,410,o),
(661,510,o),
(557,547,c),
(555,522,l),
(627,553,o),
(686,617,o),
(705,692,cs),
(726,778,o),
(696,900,o),
(525,900,cs),
(273,900,l),
(51,0,l)
);
},
{
closed = 1;
nodes = (
(283,480,l),
(413,480,ls),
(564,480,o),
(594,375,o),
(573,291,cs),
(551,204,o),
(467,102,o),
(320,102,cs),
(190,102,l)
);
},
{
closed = 1;
nodes = (
(362,798,l),
(495,798,ls),
(570,798,o),
(613,759,o),
(595,686,cs),
(578,615,o),
(515,576,o),
(436,576,cs),
(307,576,l)
);
}
);
};
guides = (
{
angle = 3.1798;
pos = (555,689);
},
{
angle = -2.0096;
pos = (633,289);
},
{
angle = -104.036;
pos = (126,300);
},
{
angle = -104.036;
pos = (690,300);
},
{
angle = -104.036;
pos = (240,300);
},
{
angle = -104.036;
pos = (609,300);
}
);
layerId = "DB28B65E-4CBC-4F12-8216-7B4F2F083639";
shapes = (
{
closed = 1;
nodes = (
(351,0,ls),
(527,0,o),
(687,148,o),
(687,323,cs),
(687,409,o),
(648,481,o),
(586,523,c),
(656,562,o),
(706,636,o),
(706,719,cs),
(706,825,o),
(622,900,o),
(513,900,cs),
(276,900,l),
(51,0,l)
);
},
{
closed = 1;
nodes = (
(285,480,l),
(400,480,ls),
(501,480,o),
(573,413,o),
(573,317,cs),
(573,201,o),
(471,102,o),
(352,102,cs),
(190,102,l)
);
},
{
closed = 1;
nodes = (
(365,798,l),
(497,798,ls),
(556,798,o),
(598,759,o),
(598,702,cs),
(598,634,o),
(538,576,o),
(459,576,cs),
(309,576,l)
);
}
);
width = 750;
},
{
background = {
shapes = (
{
closed = 1;
nodes = (
(352,0,ls),
(536,0,o),
(701,156,o),
(701,331,cs),
(701,432,o),
(645,517,o),
(560,561,c),
(572,504,l),
(657,537,o),
(718,623,o),
(718,716,cs),
(718,823,o),
(637,900,o),
(522,900,cs),
(246,900,l),
(21,0,l)
);
},
{
closed = 1;
nodes = (
(312,468,l),
(374,468,ls),
(456,468,o),
(513,413,o),
(513,336,cs),
(513,243,o),
(431,162,o),
(338,162,cs),
(235,162,l)
);
},
{
closed = 1;
nodes = (
(387,768,l),
(471,768,ls),
(517,768,o),
(550,737,o),
(550,693,cs),
(550,640,o),
(503,594,o),
(450,594,cs),
(344,594,l)
);
}
);
};
guides = (
{
angle = 3.1798;
pos = (555,686);
},
{
angle = -2.0096;
pos = (633,311);
},
{
angle = -104.036;
pos = (702,300);
},
{
angle = -104.036;
pos = (270,300);
},
{
angle = -104.036;
pos = (96,300);
}
);
layerId = "5ACC057E-9D2C-45A0-8610-B9302B4AC058";
shapes = (
{
closed = 1;
nodes = (
(352,0,ls),
(536,0,o),
(701,156,o),
(701,331,cs),
(701,409,o),
(667,478,o),
(613,525,c),
(676,566,o),
(718,639,o),
(718,716,cs),
(718,823,o),
(637,900,o),
(522,900,cs),
(246,900,l),
(21,0,l)
);
},
{
closed = 1;
nodes = (
(312,468,l),
(374,468,ls),
(456,468,o),
(513,413,o),
(513,336,cs),
(513,243,o),
(431,162,o),
(338,162,cs),
(235,162,l)
);
},
{
closed = 1;
nodes = (
(387,768,l),
(471,768,ls),
(517,768,o),
(550,737,o),
(550,693,cs),
(550,640,o),
(503,594,o),
(450,594,cs),
(344,594,l)
);
}
);
width = 750;
},
{
background = {
shapes = (
{
closed = 1;
nodes = (
(378,0,ls),
(581,0,o),
(751,82,o),
(795,256,cs),
(836,425,o),
(720,556,o),
(517,581,c),
(483,412,l),
(656,391,o),
(802,469,o),
(836,607,cs),
(874,756,o),
(775,872,o),
(603,893,cs),
(208,942,l),
(-15,0,l)
);
}
);
};
guides = (
{
angle = 262.7939;
pos = (438,0);
},
{
angle = -104.036;
pos = (806,300);
},
{
angle = -104.036;
pos = (60,300);
}
);
layerId = "5435BF97-BB07-4B92-90A3-3494A24C81AC";
shapes = (
{
closed = 1;
nodes = (
(438,0,ls),
(659,0,o),
(803,127,o),
(803,322,cs),
(803,380,o),
(779,433,o),
(737,476,c),
(805,522,o),
(844,590,o),
(844,670,cs),
(844,817,o),
(739,900,o),
(552,900,cs),
(210,900,l),
(-15,0,l)
);
},
{
closed = 1;
nodes = (
(371,396,l),
(443,396,ls),
(490,396,o),
(519,367,o),
(519,322,cs),
(519,267,o),
(475,222,o),
(421,222,cs),
(328,222,l)
);
},
{
closed = 1;
nodes = (
(449,708,l),
(517,708,ls),
(556,708,o),
(580,684,o),
(580,647,cs),
(580,601,o),
(543,564,o),
(499,564,cs),
(413,564,l)
);
}
);
width = 830;
},
{
associatedMasterId = "5435BF97-BB07-4B92-90A3-3494A24C81AC";
layerId = "CC11815D-F9AC-4A74-944C-9DB6C9EFA649";
name = "4 Jan 24, 10:02";
shapes = (
{
closed = 1;
nodes = (
(359,0,ls),
(597,0,o),
(718,170,o),
(718,330,cs),
(718,426,o),
(675,511,o),
(613,572,c),
(630,610,o),
(637,646,o),
(637,684,cs),
(637,767,o),
(579,900,o),
(382,900,cs),
(71,900,l),
(71,0,l)
);
},
{
closed = 1;
nodes = (
(308,452,l),
(337,452,ls),
(431,452,o),
(457,382,o),
(457,337,cs),
(457,292,o),
(428,223,o),
(334,223,cs),
(308,223,l)
);
},
{
closed = 1;
nodes = (
(308,730,l),
(339,730,ls),
(378,730,o),
(408,714,o),
(408,671,cs),
(408,630,o),
(378,615,o),
(336,615,cs),
(308,615,l)
);
}
);
width = 755;
}
);
unicode = 66;
},
{
color = 3;
glyphname = C;
kernLeft = C;
kernRight = C;
lastChange = "2024-02-26 20:31:20 +0000";
layers = (
{
anchors = (
{
name = bottom;
pos = (505,0);
},
{
name = top;
pos = (612,900);
}
);
background = {
guides = (
{
angle = 270;
pos = (798,149);
},
{
angle = 244.359;
pos = (946,751);
}
);
shapes = (
{
closed = 1;
nodes = (
(568,-12,o),
(695,40,o),
(798,124,c),
(798,174,l),
(702,86,o),
(579,30,o),
(454,30,cs),
(225,30,o),
(92,218,o),
(149,450,cs),
(206,682,o),
(431,870,o),
(660,870,cs),
(785,870,o),
(882,814,o),
(934,726,c),
(958,776,l),
(897,860,o),
(796,912,o),
(671,912,cs),
(420,912,o),
(166,706,o),
(103,450,cs),
(40,194,o),
(192,-12,o),
(443,-12,cs)
);
}
);
};
guides = (
{
angle = 270;
pos = (828,149);
},
{
angle = 244.359;
pos = (916,751);
}
);
layerId = "FCF05EF6-3D3F-478B-BA59-24992C4C44E9";
shapes = (
{
closed = 1;
nodes = (
(621,-12,o),
(737,35,o),
(828,119,c),
(828,178,l),
(739,83,o),
(623,30,o),
(505,30,cs),
(304,30,o),
(150,187,o),
(150,394,cs),
(150,642,o),
(371,870,o),
(610,870,cs),
(727,870,o),
(833,815,o),
(901,719,c),
(923,765,l),
(846,859,o),
(735,912,o),
(613,912,cs),
(348,912,o),
(104,664,o),
(104,395,cs),
(104,166,o),
(279,-12,o),
(505,-12,cs)
);
}
);
width = 880;
},
{
anchors = (
{
name = bottom;
pos = (518,0);
},
{
name = top;
pos = (617,900);
}
);
background = {
shapes = (
{
closed = 1;
nodes = (
(580,-18,o),
(707,33,o),
(813,115,c),
(813,253,l),
(727,155,o),
(604,90,o),
(478,90,cs),
(280,90,o),
(166,251,o),
(215,450,cs),
(264,649,o),
(458,810,o),
(656,810,cs),
(781,810,o),
(873,745,o),
(911,647,c),
(977,785,l),
(913,867,o),
(810,918,o),
(682,918,cs),
(422,918,o),
(161,709,o),
(97,450,cs),
(33,191,o),
(192,-18,o),
(452,-18,cs)
);
}
);
};
guides = (
{
angle = 90;
pos = (828,191);
},
{
angle = 244.0181;
pos = (893,710);
},
{
angle = -104.036;
pos = (60,300);
},
{
angle = -104.036;
pos = (1000,300);
}
);
hints = (
{
horizontal = 1;
place = (-6, 109);
place = (-6, 109);
type = Stem;
},
{
horizontal = 1;
place = (925, 114);
place = (925, 114);
type = Stem;
},
{
place = (69, 0);
place = (69, 0);
type = Stem;
},
{
place = (897, 120);
place = (897, 120);
type = Stem;
}
);
layerId = "DB28B65E-4CBC-4F12-8216-7B4F2F083639";
shapes = (
{
closed = 1;
nodes = (
(626,-18,o),
(736,26,o),
(827,96,c),
(827,246,l),
(752,152,o),
(641,90,o),
(523,90,cs),
(349,90,o),
(216,225,o),
(216,403,cs),
(216,616,o),
(404,810,o),
(611,810,cs),
(723,810,o),
(818,754,o),
(871,667,c),
(929,786,l),
(854,868,o),
(746,918,o),
(622,918,cs),
(347,918,o),
(98,669,o),
(98,395,cs),
(98,162,o),
(278,-18,o),
(512,-18,cs)
);
}
);
width = 900;
},
{
anchors = (
{
name = bottom;
pos = (523,0);
},
{
name = top;
pos = (612,900);
}
);
background = {
shapes = (
{
closed = 1;
nodes = (
(571,-18,o),
(687,24,o),
(788,93,c),
(789,303,l),
(719,220,o),
(613,156,o),
(501,156,cs),
(338,156,o),
(245,287,o),
(285,450,cs),
(325,613,o),
(482,744,o),
(645,744,cs),
(758,744,o),
(832,680,o),
(861,597,c),
(964,807,l),
(898,877,o),
(800,918,o),
(682,918,cs),
(419,918,o),
(155,709,o),
(91,450,cs),
(27,191,o),
(189,-18,o),
(452,-18,cs)
);
}
);
};
guides = (
{
angle = 269.7094;
pos = (810,191);
},
{
angle = 244.0181;
pos = (875,710);
},
{
angle = -104.036;
pos = (54,300);
},
{
angle = -104.036;
pos = (1006,300);
}
);
hints = (
{
horizontal = 1;
place = (-6, 109);
place = (-6, 109);
type = Stem;
},
{
horizontal = 1;
place = (925, 114);
place = (925, 114);
type = Stem;
},
{
place = (69, 0);
place = (69, 0);
type = Stem;
},
{
place = (897, 120);
place = (897, 120);
type = Stem;
}
);
layerId = "5ACC057E-9D2C-45A0-8610-B9302B4AC058";
shapes = (
{
closed = 1;
nodes = (
(620,-18,o),
(722,18,o),
(808,78,c),
(808,327,l),
(751,228,o),
(646,156,o),
(533,156,cs),
(391,156,o),
(282,268,o),
(282,413,cs),
(282,586,o),
(433,744,o),
(602,744,cs),
(702,744,o),
(784,690,o),
(825,608,c),
(918,801,l),
(843,874,o),
(739,918,o),
(621,918,cs),
(342,918,o),
(92,670,o),
(92,396,cs),
(92,163,o),
(274,-18,o),
(513,-18,cs)
);
}
);
width = 870;
},
{
anchors = (
{
name = bottom;
pos = (512,0);
},
{
name = top;
pos = (610,900);
}
);
background = {
shapes = (
{
closed = 1;
nodes = (
(549,-20,o),
(664,12,o),
(756,68,c),
(757,377,l),
(686,306,o),
(607,268,o),
(532,268,cs),
(428,268,o),
(368,348,o),
(393,450,cs),
(418,552,o),
(518,632,o),
(622,632,cs),
(697,632,o),
(758,594,o),
(793,523,c),
(946,832,l),
(882,888,o),
(783,920,o),
(676,920,cs),
(403,920,o),
(141,715,o),
(75,450,cs),
(9,185,o),
(169,-20,o),
(442,-20,cs)
);
}
);
};
guides = (
{
angle = -104.036;
pos = (38,300);
},
{
angle = -104.036;
pos = (356,300);
}
);
layerId = "5435BF97-BB07-4B92-90A3-3494A24C81AC";
shapes = (
{
closed = 1;
nodes = (
(603,-20,o),
(694,5,o),
(779,51,c),
(779,373,l),
(713,305,o),
(638,268,o),
(565,268,cs),
(466,268,o),
(394,335,o),
(394,429,cs),
(394,537,o),
(491,631,o),
(604,631,cs),
(675,631,o),
(739,594,o),
(777,531,c),
(918,818,l),
(841,882,o),
(727,920,o),
(610,920,cs),
(324,920,o),
(77,677,o),
(77,396,cs),
(77,157,o),
(262,-20,o),
(512,-20,cs)
);
}
);
width = 830;
}
);
unicode = 67;
},
{
color = 3;
glyphname = Ccedilla;
kernLeft = C;
kernRight = C;
lastChange = "2024-02-26 20:31:26 +0000";
layers = (
{
layerId = "FCF05EF6-3D3F-478B-BA59-24992C4C44E9";
shapes = (
{
closed = 1;
nodes = (
(360,-180,l),
(515,-12,l),
(628,-9,o),
(740,37,o),
(828,119,c),
(828,178,l),
(739,83,o),
(623,30,o),
(505,30,cs),
(304,30,o),
(150,187,o),
(150,394,cs),
(150,642,o),
(371,870,o),
(610,870,cs),
(727,870,o),
(833,815,o),
(901,719,c),
(923,765,l),
(846,859,o),
(735,912,o),
(613,912,cs),
(348,912,o),
(104,664,o),
(104,395,cs),
(104,177,o),
(263,5,o),
(473,-11,c),
(306,-180,l)
);
}
);
width = 930;
},
{
layerId = "DB28B65E-4CBC-4F12-8216-7B4F2F083639";
shapes = (
{
closed = 1;
nodes = (
(429,-180,l),
(560,-15,l),
(657,-5,o),
(749,36,o),
(827,96,c),
(827,246,l),
(752,152,o),
(641,90,o),
(523,90,cs),
(349,90,o),
(216,225,o),
(216,403,cs),
(216,616,o),
(404,810,o),
(611,810,cs),
(723,810,o),
(818,754,o),
(871,667,c),
(929,786,l),
(854,868,o),
(746,918,o),
(622,918,cs),
(347,918,o),
(98,669,o),
(98,395,cs),
(98,183,o),
(247,15,o),
(450,-14,c),
(286,-180,l)
);
}
);
width = 900;
},
{
layerId = "5ACC057E-9D2C-45A0-8610-B9302B4AC058";
shapes = (
{
closed = 1;
nodes = (
(464,-192,l),
(590,-12,l),
(668,1,o),
(743,33,o),
(808,78,c),
(808,327,l),
(751,228,o),
(646,156,o),
(533,156,cs),
(391,156,o),
(282,268,o),
(282,413,cs),
(282,586,o),
(433,744,o),
(602,744,cs),
(702,744,o),
(784,690,o),
(825,608,c),
(918,801,l),
(843,874,o),
(739,918,o),
(621,918,cs),
(342,918,o),
(92,670,o),
(92,396,cs),
(92,189,o),
(236,23,o),
(436,-12,c),
(249,-192,l)
);
}
);
width = 870;
},
{
layerId = "5435BF97-BB07-4B92-90A3-3494A24C81AC";
shapes = (
{
closed = 1;
nodes = (
(529,-220,l),
(650,-1,l),
(694,11,o),
(737,28,o),
(779,51,c),
(779,373,l),
(713,305,o),
(638,268,o),
(565,268,cs),
(466,268,o),
(394,335,o),
(394,429,cs),
(394,537,o),
(491,631,o),
(604,631,cs),
(675,631,o),
(739,594,o),
(777,531,c),
(918,818,l),
(841,882,o),
(727,920,o),
(610,920,cs),
(324,920,o),
(77,677,o),
(77,396,cs),
(77,204,o),
(196,52,o),
(373,0,c),
(163,-220,l)
);
}
);
width = 830;
}
);
unicode = 199;
},
{
color = 3;
glyphname = D;
kernLeft = B;
kernRight = D;
lastChange = "2024-02-26 20:31:39 +0000";
layers = (
{
anchors = (
{
name = bottom;
pos = (332,0);
},
{
name = center;
pos = (203,480);
},
{
name = top;
pos = (557,900);
}
);
background = {
shapes = (
{
closed = 1;
nodes = (
(431,0,ls),
(702,0,o),
(950,225,o),
(950,509,cs),
(950,750,o),
(773,900,o),
(543,900,cs),
(306,900,l),
(81,0,l)
);
},
{
closed = 1;
nodes = (
(350,858,l),
(528,858,ls),
(747,858,o),
(904,716,o),
(904,505,cs),
(904,253,o),
(683,42,o),
(421,42,cs),
(145,42,l)
);
}
);
};
guides = (
{
angle = 77.2929;
pos = (516,849);
}
);
layerId = "FCF05EF6-3D3F-478B-BA59-24992C4C44E9";
shapes = (
{
closed = 1;
nodes = (
(423,0,ls),
(687,0,o),
(931,243,o),
(931,505,cs),
(931,728,o),
(756,900,o),
(528,900,cs),
(286,900,l),
(61,0,l)
);
},
{
closed = 1;
nodes = (
(320,860,l),
(518,860,ls),
(727,860,o),
(885,706,o),
(885,503,cs),
(885,260,o),
(661,40,o),
(413,40,cs),
(115,40,l)
);
}
);
width = 960;
},
{
anchors = (
{
name = bottom;
pos = (332,0);
},
{
name = center;
pos = (222,480);
},
{
name = top;
pos = (557,900);
}
);
background = {
shapes = (
{
closed = 1;
nodes = (
(418,0,ls),
(573,0,o),
(681,47,o),
(764,132,cs),
(850,219,o),
(896,331,o),
(896,451,cs),
(896,579,o),
(843,687,o),
(763,768,cs),
(684,848,o),
(581,900,o),
(418,900,cs),
(127,900,l),
(127,0,l)
);
},
{
closed = 1;
nodes = (
(240,798,l),
(406,798,ls),
(541,798,o),
(621,757,o),
(681,696,cs),
(741,635,o),
(782,550,o),
(782,450,cs),
(782,350,o),
(741,265,o),
(681,204,cs),
(621,143,o),
(541,102,o),
(406,102,cs),
(240,102,l)
);
}
);
};
guides = (
{
angle = 262.6742;
pos = (353,51);
},
{
angle = -104.036;
pos = (126,300);
},
{
angle = -104.036;
pos = (240,300);
},
{
angle = 77.2929;
pos = (511,849);
}
);
layerId = "DB28B65E-4CBC-4F12-8216-7B4F2F083639";
shapes = (
{
closed = 1;
nodes = (
(412,0,ls),
(687,0,o),
(936,231,o),
(936,505,cs),
(936,738,o),
(756,900,o),
(522,900,cs),
(276,900,l),
(51,0,l)
);
},
{
closed = 1;
nodes = (
(365,798,l),
(499,798,ls),
(685,798,o),
(818,675,o),
(818,497,cs),
(818,284,o),
(630,102,o),
(411,102,cs),
(190,102,l)
);
}
);
width = 960;
},
{
anchors = (
{
name = bottom;
pos = (332,0);
},
{
name = center;
pos = (222,480);
},
{
name = top;
pos = (557,900);
}
);
background = {
shapes = (
{
closed = 1;
nodes = (
(418,0,ls),
(573,0,o),
(681,47,o),
(764,132,cs),
(850,219,o),
(896,331,o),
(896,451,cs),
(896,579,o),
(843,687,o),
(763,768,cs),
(684,848,o),
(581,900,o),
(418,900,cs),
(127,900,l),
(127,0,l)
);
},
{
closed = 1;
nodes = (
(240,798,l),
(406,798,ls),
(541,798,o),
(621,757,o),
(681,696,cs),
(741,635,o),
(782,550,o),
(782,450,cs),
(782,350,o),
(741,265,o),
(681,204,cs),
(621,143,o),
(541,102,o),
(406,102,cs),
(240,102,l)
);
}
);
};
guides = (
{
angle = 262.6742;
pos = (353,51);
},
{
angle = 70.0059;
pos = (549,849);
},
{
angle = -104.036;
pos = (96,300);
},
{
angle = -104.036;
pos = (270,300);
}
);
layerId = "5ACC057E-9D2C-45A0-8610-B9302B4AC058";
shapes = (
{
closed = 1;
nodes = (
(393,0,ls),
(672,0,o),
(922,237,o),
(922,501,cs),
(922,726,o),
(739,900,o),
(501,900,cs),
(246,900,l),
(21,0,l)
);
},
{
closed = 1;
nodes = (
(380,738,l),
(470,738,ls),
(623,738,o),
(732,634,o),
(732,489,cs),
(732,315,o),
(577,162,o),
(401,162,cs),
(235,162,l)
);
}
);
width = 940;
},
{
anchors = (
{
name = bottom;
pos = (357,0);
},
{
name = center;
pos = (233,456);
},
{
name = top;
pos = (581,900);
}
);
background = {
shapes = (
{
closed = 1;
nodes = (
(357,0,ls),
(623,0,o),
(876,196,o),
(939,450,cs),
(1002,704,o),
(846,900,o),
(581,900,cs),
(209,900,l),
(-15,0,l)
);
},
{
closed = 1;
nodes = (
(428,624,l),
(495,624,ls),
(603,624,o),
(666,550,o),
(641,450,cs),
(616,350,o),
(517,276,o),
(409,276,cs),
(342,276,l)
);
}
);
};
guides = (
{
angle = -104.036;
pos = (902,300);
},
{
angle = -104.036;
pos = (604,300);
},
{
angle = 262.7939;
pos = (415,0);
}
);
layerId = "5435BF97-BB07-4B92-90A3-3494A24C81AC";
shapes = (
{
closed = 1;
nodes = (
(405,0,ls),
(706,0,o),
(938,224,o),
(938,505,cs),
(938,730,o),
(758,900,o),
(519,900,cs),
(209,900,l),
(-15,0,l)
);
},
{
closed = 1;
nodes = (
(428,624,l),
(482,624,ls),
(580,624,o),
(642,560,o),
(642,474,cs),
(642,367,o),
(554,276,o),
(438,276,cs),
(342,276,l)
);
}
);
width = 940;
}
);
unicode = 68;
},
{
glyphname = Eth;
kernLeft = B;
kernRight = D;
lastChange = "2024-02-26 20:31:53 +0000";
layers = (
{
layerId = "FCF05EF6-3D3F-478B-BA59-24992C4C44E9";
shapes = (
{
closed = 1;
nodes = (
(453,0,ls),
(717,0,o),
(961,243,o),
(961,505,cs),
(961,728,o),
(786,900,o),
(558,900,cs),
(316,900,l),
(216,499,l),
(110,499,l),
(100,461,l),
(206,461,l),
(91,0,l)
);
},
{
closed = 1;
nodes = (
(250,461,l),
(580,461,l),
(590,499,l),
(260,499,l),
(350,860,l),
(548,860,ls),
(757,860,o),
(915,706,o),
(915,503,cs),
(915,260,o),
(691,40,o),
(443,40,cs),
(145,40,l)
);
}
);
width = 990;
},
{
layerId = "DB28B65E-4CBC-4F12-8216-7B4F2F083639";
shapes = (
{
closed = 1;
nodes = (
(442,0,ls),
(717,0,o),
(966,231,o),
(966,505,cs),
(966,738,o),
(786,900,o),
(552,900,cs),
(306,900,l),
(212,522,l),
(113,522,l),
(93,438,l),
(191,438,l),
(81,0,l)
);
},
{
closed = 1;
nodes = (
(304,438,l),
(573,438,l),
(593,522,l),
(326,522,l),
(395,798,l),
(529,798,ls),
(715,798,o),
(848,675,o),
(848,497,cs),
(848,284,o),
(660,102,o),
(441,102,cs),
(220,102,l)
);
}
);
width = 990;
},
{
layerId = "5ACC057E-9D2C-45A0-8610-B9302B4AC058";
shapes = (
{
closed = 1;
nodes = (
(423,0,ls),
(702,0,o),
(952,237,o),
(952,501,cs),
(952,726,o),
(769,900,o),
(531,900,cs),
(276,900,l),
(187,543,l),
(99,543,l),
(67,417,l),
(155,417,l),
(51,0,l)
);
},
{
closed = 1;
nodes = (
(329,417,l),
(547,417,l),
(579,543,l),
(361,543,l),
(410,738,l),
(500,738,ls),
(653,738,o),
(762,634,o),
(762,489,cs),
(762,315,o),
(607,162,o),
(431,162,cs),
(265,162,l)
);
}
);
width = 970;
},
{
layerId = "5435BF97-BB07-4B92-90A3-3494A24C81AC";
shapes = (
{
closed = 1;
nodes = (
(451,0,ls),
(752,0,o),
(984,224,o),
(984,505,cs),
(984,730,o),
(804,900,o),
(565,900,cs),
(255,900,l),
(165,540,l),
(90,540,l),
(48,372,l),
(124,372,l),
(31,0,l)
);
},
{
closed = 1;
nodes = (
(412,372,l),
(528,372,l),
(570,540,l),
(453,540,l),
(474,624,l),
(528,624,ls),
(626,624,o),
(688,560,o),
(688,474,cs),
(688,367,o),
(600,276,o),
(484,276,cs),
(388,276,l)
);
}
);
width = 980;
}
);
unicode = 208;
},
{
color = 3;
glyphname = E;
kernLeft = B;
kernRight = E;
lastChange = "2024-02-17 22:45:08 +0000";
layers = (
{
anchors = (
{
name = bottom;
pos = (260,0);
},
{
name = ogonek;
pos = (438,0);
},
{
name = top;
pos = (484,900);
},
{
name = topleft;
pos = (286,900);
}
);
guides = (
{
angle = -104.036;
pos = (136,300);
},
{
angle = -104.036;
pos = (180,300);
}
);
layerId = "FCF05EF6-3D3F-478B-BA59-24992C4C44E9";
shapes = (
{
closed = 1;
nodes = (
(459,0,l),
(469,40,l),
(115,40,l),
(239,536,l),
(521,536,l),
(531,574,l),
(248,574,l),
(320,860,l),
(671,860,l),
(681,900,l),
(286,900,l),
(61,0,l)
);
}
);
width = 600;
},
{
anchors = (
{
name = bottom;
pos = (273,0);
},
{
name = ogonek;
pos = (445,0);
},
{
name = top;
pos = (498,900);
},
{
name = topleft;
pos = (276,900);
}
);
background = {
shapes = (
{
closed = 1;
nodes = (
(484,90,o),
(574,181,o),
(574,294,cs),
(574,408,o),
(484,498,o),
(370,498,cs),
(256,498,o),
(166,408,o),
(166,294,cs),
(166,181,o),
(256,90,o),
(370,90,cs)
);
},
{
closed = 1;
nodes = (
(200,-12,o),
(58,121,o),
(58,293,cs),
(58,418,o),
(133,521,o),
(239,568,c),
(232,550,l),
(187,587,o),
(158,639,o),
(158,705,cs),
(158,822,o),
(253,912,o),
(370,912,cs),
(487,912,o),
(582,822,o),
(582,705,cs),
(582,639,o),
(553,587,o),
(508,550,c),
(501,568,l),
(607,521,o),
(682,418,o),
(682,293,cs),
(682,121,o),
(540,-12,o),
(370,-12,cs)
);
},
{
closed = 1;
nodes = (
(432,586,o),
(482,636,o),
(482,698,cs),
(482,760,o),
(432,810,o),
(370,810,cs),
(308,810,o),
(258,760,o),
(258,698,cs),
(258,636,o),
(308,586,o),
(370,586,cs)
);
}
);
};
guides = (
{
angle = 180;
pos = (417,578);
},
{
angle = 180;
pos = (370,542);
},
{
angle = -104.036;
pos = (126,300);
},
{
angle = -104.036;
pos = (240,300);
}
);
layerId = "DB28B65E-4CBC-4F12-8216-7B4F2F083639";
shapes = (
{
closed = 1;
nodes = (
(495,0,l),
(520,102,l),
(190,102,l),
(292,504,l),
(552,504,l),
(577,606,l),
(317,606,l),
(365,798,l),
(695,798,l),
(720,900,l),
(276,900,l),
(51,0,l)
);
}
);
width = 630;
},
{
anchors = (
{
name = bottom;
pos = (273,0);
},
{
name = ogonek;
pos = (423,0);
},
{
name = top;
pos = (498,900);
},
{
name = topleft;
pos = (276,900);
}
);
background = {
shapes = (
{
closed = 1;
nodes = (
(484,90,o),
(574,181,o),
(574,294,cs),
(574,408,o),
(484,498,o),
(370,498,cs),
(256,498,o),
(166,408,o),
(166,294,cs),
(166,181,o),
(256,90,o),
(370,90,cs)
);
},
{
closed = 1;
nodes = (
(200,-12,o),
(58,121,o),
(58,293,cs),
(58,418,o),
(133,521,o),
(239,568,c),
(232,550,l),
(187,587,o),
(158,639,o),
(158,705,cs),
(158,822,o),
(253,912,o),
(370,912,cs),
(487,912,o),
(582,822,o),
(582,705,cs),
(582,639,o),
(553,587,o),
(508,550,c),
(501,568,l),
(607,521,o),
(682,418,o),
(682,293,cs),
(682,121,o),
(540,-12,o),
(370,-12,cs)
);
},
{
closed = 1;
nodes = (
(432,586,o),
(482,636,o),
(482,698,cs),
(482,760,o),
(432,810,o),
(370,810,cs),
(308,810,o),
(258,760,o),
(258,698,cs),
(258,636,o),
(308,586,o),
(370,586,cs)
);
}
);
};
guides = (
{
pos = (24,531);
},
{
angle = -104.036;
pos = (96,300);
},
{
angle = -104.036;
pos = (270,300);
}
);
layerId = "5ACC057E-9D2C-45A0-8610-B9302B4AC058";
shapes = (
{
closed = 1;
nodes = (
(501,0,l),
(541,162,l),
(235,162,l),
(309,456,l),
(546,456,l),
(583,606,l),
(347,606,l),
(381,744,l),
(687,744,l),
(726,900,l),
(246,900,l),
(21,0,l)
);
}
);
width = 630;
},
{
anchors = (
{
name = bottom;
pos = (264,0);
},
{
name = ogonek;
pos = (438,0);
},
{
name = top;
pos = (488,900);
},
{
name = topleft;
pos = (209,900);
}
);
layerId = "5435BF97-BB07-4B92-90A3-3494A24C81AC";
shapes = (
{
closed = 1;
nodes = (
(543,0,l),
(603,240,l),
(327,240,l),
(361,378,l),
(595,378,l),
(643,570,l),
(409,570,l),
(433,666,l),
(709,666,l),
(767,900,l),
(209,900,l),
(-15,0,l)
);
}
);
width = 660;
}
);
unicode = 69;
},
{
color = 3;
glyphname = Eogonek;
kernLeft = B;
kernRight = E;
lastChange = "2024-02-20 06:37:14 +0000";
layers = (
{
anchors = (
{
name = top;
pos = (300,900);
}
);
layerId = "FCF05EF6-3D3F-478B-BA59-24992C4C44E9";
shapes = (
{
closed = 1;
nodes = (
(450,-246,l),
(397,-238,o),
(367,-209,o),
(367,-165,cs),
(367,-117,o),
(399,-60,o),
(459,0,c),
(469,40,l),
(115,40,l),
(239,536,l),
(521,536,l),
(531,574,l),
(248,574,l),
(320,860,l),
(671,860,l),
(681,900,l),
(286,900,l),
(61,0,l),
(417,0,l),
(360,-53,o),
(325,-119,o),
(325,-171,cs),
(325,-230,o),
(366,-274,o),
(431,-282,c)
);
}
);
width = 600;
},
{
anchors = (
{
name = top;
pos = (498,900);
}
);
background = {
shapes = (
{
closed = 1;
nodes = (
(395,0,l),
(335,-76,o),
(318,-124,o),
(318,-167,cs),
(318,-256,o),
(391,-312,o),
(481,-312,cs),
(527,-312,o),
(566,-299,o),
(594,-277,c),
(570,-180,l),
(555,-205,o),
(532,-228,o),
(492,-228,cs),
(447,-228,o),
(420,-199,o),
(420,-151,cs),
(420,-84,o),
(481,-14,o),
(578,102,c),
(240,102,l),
(240,504,l),
(500,504,l),
(500,606,l),
(240,606,l),
(240,798,l),
(570,798,l),
(570,900,l),
(126,900,l),
(126,0,l)
);
}
);
};
layerId = "DB28B65E-4CBC-4F12-8216-7B4F2F083639";
shapes = (
{
closed = 1;
nodes = (
(468,-219,l),
(429,-214,o),
(401,-198,o),
(401,-154,cs),
(401,-97,o),
(449,-43,o),
(495,0,c),
(520,102,l),
(190,102,l),
(292,504,l),
(552,504,l),
(577,606,l),
(317,606,l),
(365,798,l),
(695,798,l),
(720,900,l),
(276,900,l),
(51,0,l),
(395,0,l),
(336,-47,o),
(297,-115,o),
(297,-178,cs),
(297,-254,o),
(354,-304,o),
(424,-312,c)
);
}
);
width = 630;
},
{
anchors = (
{
name = _ogonek;
pos = (516,0);
},
{
name = bottom;
pos = (348,0);
},
{
name = ogonek;
pos = (516,0);
},
{
name = top;
pos = (348,900);
},
{
name = topleft;
pos = (126,900);
}
);
associatedMasterId = "DB28B65E-4CBC-4F12-8216-7B4F2F083639";
background = {
shapes = (
{
closed = 1;
nodes = (
(395,0,l),
(335,-76,o),
(318,-124,o),
(318,-167,cs),
(318,-256,o),
(391,-312,o),
(481,-312,cs),
(527,-312,o),
(566,-299,o),
(594,-277,c),
(570,-180,l),
(555,-205,o),
(532,-228,o),
(492,-228,cs),
(447,-228,o),
(420,-199,o),
(420,-151,cs),
(420,-84,o),
(481,-14,o),
(578,102,c),
(240,102,l),
(240,504,l),
(500,504,l),
(500,606,l),
(240,606,l),
(240,798,l),
(570,798,l),
(570,900,l),
(126,900,l),
(126,0,l)
);
}
);
};
layerId = "7F9382A2-3C24-4175-B40A-1EE810183E3E";
name = "26 Dec 21, 14:25";
shapes = (
{
closed = 1;
nodes = (
(657,-159,l),
(606,-159,o),
(570,-135,o),
(570,-62,cs),
(570,102,l),
(240,102,l),
(240,504,l),
(500,504,l),
(500,606,l),
(240,606,l),
(240,798,l),
(570,798,l),
(570,900,l),
(126,900,l),
(126,0,l),
(494,0,l),
(470,73,l),
(470,-91,ls),
(470,-195,o),
(548,-252,o),
(635,-252,c)
);
}
);
width = 630;
},
{
anchors = (
{
name = top;
pos = (486,900);
}
);
background = {
shapes = (
{
closed = 1;
nodes = (
(395,0,l),
(335,-76,o),
(318,-124,o),
(318,-167,cs),
(318,-256,o),
(391,-312,o),
(481,-312,cs),
(527,-312,o),
(566,-299,o),
(594,-277,c),
(570,-180,l),
(555,-205,o),
(532,-228,o),
(492,-228,cs),
(447,-228,o),
(420,-199,o),
(420,-151,cs),
(420,-84,o),
(481,-14,o),
(578,102,c),
(240,102,l),
(240,504,l),
(500,504,l),
(500,606,l),
(240,606,l),
(240,798,l),
(570,798,l),
(570,900,l),
(126,900,l),
(126,0,l)
);
}
);
};
layerId = "5ACC057E-9D2C-45A0-8610-B9302B4AC058";
shapes = (
{
closed = 1;
nodes = (
(474,-195,l),
(437,-190,o),
(410,-170,o),
(410,-135,cs),
(410,-83,o),
(447,-47,o),
(501,0,c),
(541,162,l),
(235,162,l),
(309,456,l),
(546,456,l),
(583,606,l),
(347,606,l),
(381,744,l),
(687,744,l),
(726,900,l),
(246,900,l),
(21,0,l),
(351,0,l),
(294,-51,o),
(252,-108,o),
(252,-176,cs),
(252,-259,o),
(318,-306,o),
(414,-318,c)
);
}
);
width = 630;
},
{
anchors = (
{
name = _ogonek;
pos = (516,0);
},
{
name = bottom;
pos = (348,0);
},
{
name = ogonek;
pos = (516,0);
},
{
name = top;
pos = (348,900);
},
{
name = topleft;
pos = (126,900);
}
);
associatedMasterId = "5ACC057E-9D2C-45A0-8610-B9302B4AC058";
background = {
shapes = (
{
closed = 1;
nodes = (
(395,0,l),
(335,-76,o),
(318,-124,o),
(318,-167,cs),
(318,-256,o),
(391,-312,o),
(481,-312,cs),
(527,-312,o),
(566,-299,o),
(594,-277,c),
(570,-180,l),
(555,-205,o),
(532,-228,o),
(492,-228,cs),
(447,-228,o),
(420,-199,o),
(420,-151,cs),
(420,-84,o),
(481,-14,o),
(578,102,c),
(240,102,l),
(240,504,l),
(500,504,l),
(500,606,l),
(240,606,l),
(240,798,l),
(570,798,l),
(570,900,l),
(126,900,l),
(126,0,l)
);
}
);
};
layerId = "65015F70-2911-4ECA-BAFA-0A7BC2410E70";
name = "26 Dec 21, 14:25";
shapes = (
{
closed = 1;
nodes = (
(657,-159,l),
(606,-159,o),
(570,-135,o),
(570,-62,cs),
(570,102,l),
(240,102,l),
(240,504,l),
(500,504,l),
(500,606,l),
(240,606,l),
(240,798,l),
(570,798,l),
(570,900,l),
(126,900,l),
(126,0,l),
(494,0,l),
(470,73,l),
(470,-91,ls),
(470,-195,o),
(548,-252,o),
(635,-252,c)
);
}
);
width = 630;
},
{
anchors = (
{
name = top;
pos = (330,900);
}
);
layerId = "5435BF97-BB07-4B92-90A3-3494A24C81AC";
shapes = (
{
closed = 1;
nodes = (
(528,-124,l),
(493,-122,o),
(473,-107,o),
(473,-83,cs),
(473,-53,o),
(504,-18,o),
(543,0,c),
(603,240,l),
(327,240,l),
(361,378,l),
(595,378,l),
(643,570,l),
(409,570,l),
(433,666,l),
(709,666,l),
(767,900,l),
(209,900,l),
(-15,0,l),
(333,0,l),
(276,-37,o),
(219,-86,o),
(219,-153,cs),
(219,-234,o),
(301,-290,o),
(448,-290,c)
);
}
);
width = 660;
}
);
unicode = 280;
},
{
color = 3;
glyphname = Schwa;
kernLeft = C;
kernRight = D;
lastChange = "2024-02-26 20:32:20 +0000";
layers = (
{
guides = (
{
angle = -104.036;
pos = (68,300);
}
);
layerId = "FCF05EF6-3D3F-478B-BA59-24992C4C44E9";
shapes = (
{
closed = 1;
nodes = (
(766,-12,o),
(1011,235,o),
(1011,506,cs),
(1011,736,o),
(835,912,o),
(613,912,cs),
(497,912,o),
(381,865,o),
(290,781,c),
(290,722,l),
(379,817,o),
(495,870,o),
(610,870,cs),
(821,870,o),
(979,693,o),
(964,475,c),
(925,478,o),
(888,480,o),
(851,480,cs),
(113,480,l),
(112,473,o),
(110,466,o),
(109,459,cs),
(63,217,o),
(248,-12,o),
(502,-12,cs)
);
},
{
closed = 1;
nodes = (
(289,30,o),
(124,211,o),
(152,438,c),
(851,438,ls),
(887,438,o),
(924,439,o),
(960,443,c),
(927,218,o),
(722,30,o),
(503,30,cs)
);
}
);
width = 1050;
},
{
background = {
shapes = (
{
closed = 1;
nodes = (
(698,-18,o),
(959,191,o),
(1023,450,cs),
(1087,709,o),
(928,918,o),
(668,918,cs),
(540,918,o),
(413,867,o),
(307,785,c),
(307,647,l),
(393,745,o),
(517,810,o),
(642,810,cs),
(840,810,o),
(954,649,o),
(905,450,cs),
(856,251,o),
(662,90,o),
(464,90,cs),
(269,90,o),
(156,251,o),
(205,450,c),
(147,408,l),
(777,408,ls),
(834,408,o),
(894,416,o),
(954,428,c),
(969,490,l),
(915,502,o),
(859,510,o),
(802,510,cs),
(102,510,l),
(88,455,ls),
(23,191,o),
(181,-18,o),
(438,-18,cs)
);
}
);
};
guides = (
{
angle = -104.036;
pos = (102,510);
},
{
angle = -104.036;
pos = (986,300);
},
{
angle = 90;
pos = (312,750);
}
);
layerId = "DB28B65E-4CBC-4F12-8216-7B4F2F083639";
shapes = (
{
closed = 1;
nodes = (
(774,-14,o),
(1026,227,o),
(1026,506,cs),
(1026,742,o),
(842,915,o),
(611,915,cs),
(505,915,o),
(400,880,o),
(312,820,c),
(312,680,l),
(387,759,o),
(491,808,o),
(599,808,cs),
(772,808,o),
(906,678,o),
(907,501,c),
(871,507,o),
(834,510,o),
(797,510,cs),
(102,510,l),
(100,501,o),
(97,491,o),
(95,482,cs),
(24,197,o),
(241,-14,o),
(498,-14,cs)
);
},
{
closed = 1;
nodes = (
(325,93,o),
(193,224,o),
(199,408,c),
(772,408,ls),
(813,408,o),
(855,412,o),
(898,419,c),
(860,241,o),
(696,93,o),
(510,93,cs)
);
}
);
width = 1050;
},
{
background = {
shapes = (
{
closed = 1;
nodes = (
(705,-18,o),
(969,191,o),
(1033,450,cs),
(1097,709,o),
(935,918,o),
(672,918,cs),
(549,918,o),
(431,877,o),
(331,807,c),
(331,601,l),
(403,684,o),
(508,748,o),
(630,748,cs),
(795,748,o),
(892,616,o),
(851,450,cs),
(810,284,o),
(648,150,o),
(483,150,cs),
(318,150,o),
(222,284,o),
(263,450,c),
(187,384,l),
(775,384,ls),
(832,384,o),
(892,392,o),
(952,404,c),
(979,514,l),
(925,526,o),
(869,534,o),
(812,534,cs),
(102,534,l),
(81,450,ls),
(16,191,o),
(179,-18,o),
(442,-18,cs)
);
}
);
};
guides = (
{
angle = -104.036;
pos = (44,300);
},
{
angle = -104.036;
pos = (996,300);
},
{
angle = 90;
pos = (335,736);
}
);
layerId = "5ACC057E-9D2C-45A0-8610-B9302B4AC058";
shapes = (
{
closed = 1;
nodes = (
(783,-18,o),
(1032,230,o),
(1032,503,cs),
(1032,736,o),
(850,918,o),
(611,918,cs),
(512,918,o),
(417,887,o),
(335,834,c),
(335,602,l),
(394,686,o),
(490,744,o),
(592,744,cs),
(723,744,o),
(824,652,o),
(840,525,c),
(804,531,o),
(768,534,o),
(732,534,cs),
(102,534,l),
(100,525,o),
(98,517,o),
(96,508,cs),
(33,233,o),
(213,-18,o),
(503,-18,cs)
);
},
{
closed = 1;
nodes = (
(374,156,o),
(277,252,o),
(267,384,c),
(695,384,ls),
(738,384,o),
(783,389,o),
(828,396,c),
(787,262,o),
(661,156,o),
(523,156,cs)
);
}
);
width = 1050;
},
{
background = {
shapes = (
{
closed = 1;
nodes = (
(700,-20,o),
(964,189,o),
(1029,450,cs),
(1095,715,o),
(935,920,o),
(662,920,cs),
(555,920,o),
(440,888,o),
(348,832,c),
(346,583,l),
(416,634,o),
(497,664,o),
(579,664,cs),
(667,664,o),
(732,614,o),
(742,537,c),
(695,542,o),
(661,544,o),
(628,544,cs),
(90,544,l),
(79,513,o),
(69,481,o),
(61,450,cs),
(-4,189,o),
(160,-20,o),
(430,-20,cs)
);
},
{
closed = 1;
nodes = (
(411,236,o),
(355,289,o),
(350,362,c),
(583,362,ls),
(617,362,o),
(653,365,o),
(702,370,c),
(660,290,o),
(577,236,o),
(494,236,cs)
);
}
);
};
layerId = "5435BF97-BB07-4B92-90A3-3494A24C81AC";
shapes = (
{
closed = 1;
nodes = (
(784,-20,o),
(1037,227,o),
(1037,506,cs),
(1037,746,o),
(851,920,o),
(599,920,cs),
(513,920,o),
(426,900,o),
(346,862,c),
(346,607,l),
(407,645,o),
(472,664,o),
(538,664,cs),
(640,664,o),
(715,615,o),
(735,537,c),
(689,542,o),
(655,544,o),
(621,544,cs),
(86,544,l),
(71,497,o),
(62,443,o),
(62,392,cs),
(62,159,o),
(250,-20,o),
(496,-20,cs)
);
},
{
closed = 1;
nodes = (
(431,236,o),
(370,287,o),
(356,362,c),
(583,362,ls),
(623,362,o),
(670,365,o),
(718,370,c),
(678,289,o),
(596,236,o),
(513,236,cs)
);
}
);
width = 1040;
}
);
unicode = 399;
},
{
color = 3;
glyphname = Ezh;
kernLeft = Ezh;
kernRight = Ezh;
lastChange = "2024-02-24 10:17:43 +0000";
layers = (
{
anchors = (
{
name = bottom;
pos = (255,0);
},
{
name = top;
pos = (480,900);
}
);
layerId = "FCF05EF6-3D3F-478B-BA59-24992C4C44E9";
shapes = (
{
closed = 1;
nodes = (
(428,-12,o),
(594,145,o),
(594,323,cs),
(594,443,o),
(519,544,o),
(399,574,c),
(669,898,l),
(669,900,l),
(249,900,l),
(239,862,l),
(589,862,l),
(326,540,l),
(327,538,l),
(333,541,o),
(341,542,o),
(351,542,cs),
(440,542,o),
(550,461,o),
(550,322,cs),
(550,164,o),
(407,28,o),
(256,28,cs),
(154,28,o),
(69,90,o),
(37,189,c),
(4,149,l),
(48,51,o),
(140,-12,o),
(252,-12,cs)
);
}
);
width = 660;
},
{
anchors = (
{
name = bottom;
pos = (228,0);
},
{
name = top;
pos = (460,900);
}
);
background = {
shapes = (
{
closed = 1;
nodes = (
(399,-12,o),
(574,125,o),
(618,300,cs),
(658,463,o),
(565,584,o),
(422,601,c),
(419,550,l),
(692,900,l),
(231,900,l),
(206,798,l),
(546,798,l),
(530,844,l),
(253,481,l),
(283,495,o),
(317,504,o),
(352,504,cs),
(464,504,o),
(531,412,o),
(504,300,cs),
(476,187,o),
(364,96,o),
(251,96,cs),
(147,96,o),
(80,172,o),
(91,275,c),
(-10,141,l),
(22,46,o),
(109,-12,o),
(225,-12,cs)
);
}
);
};
guides = (
{
angle = -104.036;
pos = (30,300);
},
{
angle = -104.036;
pos = (618,300);
}
);
layerId = "DB28B65E-4CBC-4F12-8216-7B4F2F083639";
shapes = (
{
closed = 1;
nodes = (
(451,-12,o),
(618,157,o),
(618,338,cs),
(618,455,o),
(549,548,o),
(446,585,c),
(692,898,l),
(692,900,l),
(231,900,l),
(206,798,l),
(494,798,l),
(255,493,l),
(257,491,l),
(276,501,o),
(300,506,o),
(325,506,cs),
(429,506,o),
(503,426,o),
(503,328,cs),
(503,211,o),
(398,96,o),
(280,96,cs),
(158,96,o),
(88,202,o),
(100,304,c),
(0,180,l),
(38,58,o),
(151,-12,o),
(270,-12,cs)
);
}
);
width = 660;
},
{
anchors = (
{
name = bottom;
pos = (229,0);
},
{
name = top;
pos = (478,900);
}
);
background = {
shapes = (
{
closed = 1;
nodes = (
(398,-20,o),
(586,118,o),
(630,299,cs),
(666,445,o),
(594,563,o),
(473,596,c),
(468,541,l),
(751,900,l),
(223,900,l),
(185,744,l),
(507,744,l),
(490,790,l),
(214,428,l),
(256,448,o),
(293,458,o),
(333,458,cs),
(433,458,o),
(482,388,o),
(461,301,cs),
(439,211,o),
(351,142,o),
(260,142,cs),
(165,142,o),
(110,217,o),
(114,306,c),
(-23,123,l),
(12,38,o),
(101,-20,o),
(218,-20,cs)
);
}
);
};
guides = (
{
angle = -104.036;
pos = (20,300);
},
{
angle = -104.036;
pos = (630,300);
},
{
angle = 51.7513;
pos = (211,445);
}
);
layerId = "5ACC057E-9D2C-45A0-8610-B9302B4AC058";
shapes = (
{
closed = 1;
nodes = (
(454,-20,o),
(629,142,o),
(629,333,cs),
(629,438,o),
(576,527,o),
(493,573,c),
(751,898,l),
(751,900,l),
(223,900,l),
(185,744,l),
(447,744,l),
(214,449,l),
(215,447,l),
(243,457,o),
(271,463,o),
(300,463,cs),
(401,463,o),
(458,397,o),
(458,320,cs),
(458,230,o),
(379,142,o),
(280,142,cs),
(177,142,o),
(118,237,o),
(122,334,c),
(-14,165,l),
(33,46,o),
(144,-20,o),
(265,-20,cs)
);
}
);
width = 660;
},
{
anchors = (
{
name = bottom;
pos = (218,0);
},
{
name = top;
pos = (517,900);
}
);
background = {
anchors = (
{
name = bottom;
pos = (218,0);
},
{
name = top;
pos = (517,900);
}
);
shapes = (
{
closed = 1;
nodes = (
(449,-20,o),
(640,121,o),
(688,311,cs),
(717,427,o),
(682,531,o),
(595,589,c),
(835,898,l),
(836,900,l),
(197,900,l),
(141,678,l),
(390,678,l),
(173,387,l),
(174,385,l),
(220,397,o),
(273,404,o),
(312,404,cs),
(390,404,o),
(432,369,o),
(419,316,cs),
(406,263,o),
(350,226,o),
(284,226,cs),
(221,226,o),
(167,261,o),
(127,328,c),
(-43,102,l),
(10,24,o),
(113,-20,o),
(241,-20,cs)
);
}
);
};
layerId = "5435BF97-BB07-4B92-90A3-3494A24C81AC";
shapes = (
{
closed = 1;
nodes = (
(512,-20,o),
(693,147,o),
(693,349,cs),
(693,443,o),
(654,520,o),
(579,570,c),
(836,898,l),
(836,900,l),
(197,900,l),
(141,678,l),
(390,678,l),
(183,401,l),
(184,399,l),
(205,404,o),
(236,407,o),
(268,407,cs),
(367,407,o),
(421,375,o),
(421,317,cs),
(421,263,o),
(374,226,o),
(306,226,cs),
(236,226,o),
(180,265,o),
(138,342,c),
(-27,122,l),
(38,36,o),
(164,-20,o),
(292,-20,cs)
);
}
);
width = 710;
}
);
unicode = 439;
},
{
color = 3;
glyphname = F;
kernLeft = B;
kernRight = F;
lastChange = "2024-02-24 15:43:40 +0000";
layers = (
{
guides = (
{
angle = -104.036;
pos = (136,300);
},
{
angle = -104.036;
pos = (180,300);
}
);
layerId = "FCF05EF6-3D3F-478B-BA59-24992C4C44E9";
shapes = (
{
closed = 1;
nodes = (
(105,0,l),
(239,536,l),
(561,536,l),
(571,574,l),
(248,574,l),
(320,860,l),
(674,860,l),
(684,900,l),
(286,900,l),
(61,0,l)
);
}
);
width = 570;
},
{
background = {
shapes = (
{
closed = 1;
nodes = (
(540,0,l),
(540,102,l),
(240,102,l),
(240,492,l),
(500,492,l),
(500,592,l),
(240,592,l),
(240,798,l),
(540,798,l),
(540,900,l),
(126,900,l),
(126,0,l)
);
}
);
};
guides = (
{
angle = 180;
pos = (417,578);
},
{
pos = (30,555);
},
{
angle = -104.036;
pos = (126,300);
},
{
angle = -104.036;
pos = (240,300);
}
);
layerId = "DB28B65E-4CBC-4F12-8216-7B4F2F083639";
shapes = (
{
closed = 1;
nodes = (
(165,0,l),
(291,504,l),
(592,504,l),
(617,606,l),
(317,606,l),
(365,798,l),
(695,798,l),
(720,900,l),
(276,900,l),
(51,0,l)
);
}
);
width = 600;
},
{
background = {
shapes = (
{
closed = 1;
nodes = (
(540,0,l),
(540,102,l),
(240,102,l),
(240,492,l),
(500,492,l),
(500,592,l),
(240,592,l),
(240,798,l),
(540,798,l),
(540,900,l),
(126,900,l),
(126,0,l)
);
}
);
};
guides = (
{
angle = 180;
pos = (417,578);
},
{
pos = (30,555);
},
{
angle = -104.036;
pos = (96,300);
},
{
angle = -104.036;
pos = (270,300);
}
);
layerId = "5ACC057E-9D2C-45A0-8610-B9302B4AC058";
shapes = (
{
closed = 1;
nodes = (
(195,0,l),
(309,456,l),
(586,456,l),
(623,606,l),
(347,606,l),
(381,744,l),
(687,744,l),
(726,900,l),
(246,900,l),
(21,0,l)
);
}
);
width = 600;
},
{
layerId = "5435BF97-BB07-4B92-90A3-3494A24C81AC";
shapes = (
{
closed = 1;
nodes = (
(285,0,l),
(372,351,l),
(576,351,l),
(626,549,l),
(422,549,l),
(449,660,l),
(683,660,l),
(743,900,l),
(209,900,l),
(-15,0,l)
);
}
);
width = 630;
}
);
unicode = 70;
},
{
color = 3;
glyphname = G;
kernLeft = C;
kernRight = G;
lastChange = "2024-02-26 20:32:52 +0000";
layers = (
{
anchors = (
{
name = bottom;
pos = (505,0);
},
{
name = center;
pos = (804,270);
},
{
name = top;
pos = (612,900);
}
);
background = {
shapes = (
{
closed = 1;
nodes = (
(565,-12,o),
(681,26,o),
(781,93,c),
(869,448,l),
(508,448,l),
(498,410,l),
(817,410,l),
(744,113,l),
(659,59,o),
(562,30,o),
(467,30,cs),
(227,30,o),
(91,214,o),
(149,450,cs),
(207,684,o),
(433,870,o),
(660,870,cs),
(780,870,o),
(880,818,o),
(934,726,c),
(961,782,l),
(896,865,o),
(792,912,o),
(670,912,cs),
(420,912,o),
(166,706,o),
(103,449,cs),
(39,192,o),
(193,-12,o),
(454,-12,cs)
);
}
);
};
guides = (
{
angle = -104.036;
pos = (811,300);
}
);
layerId = "FCF05EF6-3D3F-478B-BA59-24992C4C44E9";
shapes = (
{
closed = 1;
nodes = (
(600,-12,o),
(695,19,o),
(775,77,c),
(868,448,l),
(508,448,l),
(498,410,l),
(818,410,l),
(743,105,l),
(669,56,o),
(588,30,o),
(505,30,cs),
(304,30,o),
(150,187,o),
(150,394,cs),
(150,642,o),
(371,870,o),
(610,870,cs),
(727,870,o),
(833,815,o),
(901,719,c),
(923,765,l),
(846,859,o),
(735,912,o),
(613,912,cs),
(348,912,o),
(104,664,o),
(104,395,cs),
(104,166,o),
(279,-12,o),
(505,-12,cs)
);
}
);
width = 940;
},
{
anchors = (
{
name = bottom;
pos = (456,0);
},
{
name = center;
pos = (777,270);
},
{
name = top;
pos = (679,900);
}
);
background = {
shapes = (
{
closed = 0;
nodes = (
(690,142,l),
(626,109,o),
(553,90,o),
(478,90,cs),
(279,90,o),
(168,254,o),
(216,450,cs),
(265,649,o),
(459,810,o),
(657,810,cs),
(782,810,o),
(874,745,o),
(912,647,c),
(978,785,l),
(914,867,o),
(811,918,o),
(683,918,cs),
(422,918,o),
(162,708,o),
(98,450,cs),
(34,192,o),
(191,-18,o),
(452,-18,cs),
(568,-18,o),
(687,16,o),
(786,84,c)
);
}
);
};
guides = (
{
angle = 76.4717;
pos = (841,714);
},
{
angle = 90;
pos = (480,429);
},
{
angle = -104.036;
pos = (60,300);
},
{
angle = 76.2364;
pos = (835,282);
},
{
angle = 256.1925;
pos = (719,260);
}
);
hints = (
{
horizontal = 1;
options = 4;
origin = (0,29);
target = (0,4);
type = TTStem;
},
{
horizontal = 1;
options = 4;
origin = (0,29);
target = (0,10);
type = TTStem;
},
{
horizontal = 1;
options = 2;
origin = (0,3);
type = TTSnap;
},
{
options = 4;
origin = (0,20);
target = (0,13);
type = TTStem;
},
{
options = 4;
origin = (0,6);
target = (0,3);
type = TTStem;
}
);
layerId = "DB28B65E-4CBC-4F12-8216-7B4F2F083639";
shapes = (
{
closed = 1;
nodes = (
(613,-18,o),
(712,17,o),
(796,73,c),
(895,480,l),
(537,480,l),
(512,378,l),
(760,378,l),
(701,139,l),
(646,108,o),
(585,90,o),
(523,90,cs),
(349,90,o),
(216,225,o),
(216,403,cs),
(216,616,o),
(404,810,o),
(611,810,cs),
(723,810,o),
(818,754,o),
(871,667,c),
(929,786,l),
(854,868,o),
(746,918,o),
(622,918,cs),
(347,918,o),
(98,669,o),
(98,395,cs),
(98,162,o),
(278,-18,o),
(512,-18,cs)
);
}
);
width = 940;
},
{
anchors = (
{
name = bottom;
pos = (523,0);
},
{
name = center;
pos = (776,270);
},
{
name = top;
pos = (612,900);
}
);
background = {
shapes = (
{
closed = 1;
nodes = (
(575,-18,o),
(687,14,o),
(783,67,c),
(890,504,l),
(543,504,l),
(506,354,l),
(689,354,l),
(647,180,l),
(603,159,o),
(555,148,o),
(500,148,cs),
(331,148,o),
(235,272,o),
(279,448,cs),
(321,620,o),
(478,748,o),
(648,748,cs),
(770,748,o),
(845,684,o),
(875,601,c),
(977,807,l),
(911,877,o),
(813,918,o),
(690,918,cs),
(419,918,o),
(156,716,o),
(91,448,cs),
(24,179,o),
(189,-18,o),
(462,-18,cs)
);
}
);
};
guides = (
{
angle = 76.4717;
pos = (840,807);
},
{
angle = 90;
pos = (480,429);
},
{
angle = -104.036;
pos = (54,300);
}
);
hints = (
{
horizontal = 1;
options = 4;
origin = (0,3);
target = (0,4);
type = TTStem;
},
{
horizontal = 1;
options = 4;
origin = (0,3);
target = (0,10);
type = TTStem;
},
{
horizontal = 1;
options = 2;
origin = (0,4);
type = TTSnap;
},
{
options = 4;
origin = (0,3);
target = (0,5);
type = TTStem;
},
{
options = 4;
origin = (0,3);
target = (0,3);
type = TTStem;
}
);
layerId = "5ACC057E-9D2C-45A0-8610-B9302B4AC058";
shapes = (
{
closed = 1;
nodes = (
(615,-18,o),
(713,14,o),
(797,71,c),
(902,504,l),
(555,504,l),
(518,354,l),
(701,354,l),
(661,188,l),
(623,168,o),
(579,156,o),
(533,156,cs),
(391,156,o),
(282,268,o),
(282,413,cs),
(282,586,o),
(433,744,o),
(602,744,cs),
(702,744,o),
(784,690,o),
(825,608,c),
(918,801,l),
(843,874,o),
(739,918,o),
(621,918,cs),
(342,918,o),
(92,670,o),
(92,396,cs),
(92,163,o),
(274,-18,o),
(513,-18,cs)
);
}
);
width = 920;
},
{
anchors = (
{
name = bottom;
pos = (444,0);
},
{
name = center;
pos = (758,270);
},
{
name = top;
pos = (669,900);
}
);
background = {
shapes = (
{
closed = 1;
nodes = (
(569,-20,o),
(705,19,o),
(805,87,c),
(914,524,l),
(532,524,l),
(486,338,l),
(622,338,l),
(603,256,l),
(573,243,o),
(547,238,o),
(520,238,cs),
(406,238,o),
(341,321,o),
(372,445,cs),
(403,569,o),
(510,656,o),
(634,656,cs),
(716,656,o),
(794,618,o),
(842,550,c),
(978,826,l),
(909,887,o),
(799,920,o),
(686,920,cs),
(406,920,o),
(141,716,o),
(75,450,cs),
(9,185,o),
(172,-20,o),
(448,-20,cs)
);
}
);
};
guides = (
{
angle = 76.2509;
pos = (847,832);
},
{
angle = -104.036;
pos = (38,300);
}
);
layerId = "5435BF97-BB07-4B92-90A3-3494A24C81AC";
shapes = (
{
closed = 1;
nodes = (
(626,-20,o),
(721,5,o),
(796,52,c),
(914,524,l),
(532,524,l),
(486,338,l),
(622,338,l),
(601,248,l),
(580,241,o),
(563,238,o),
(543,238,cs),
(441,238,o),
(368,311,o),
(368,413,cs),
(368,547,o),
(479,656,o),
(617,656,cs),
(703,656,o),
(786,616,o),
(840,548,c),
(968,806,l),
(887,877,o),
(756,920,o),
(623,920,cs),
(325,920,o),
(77,682,o),
(77,395,cs),
(77,153,o),
(264,-20,o),
(526,-20,cs)
);
}
);
width = 910;
}
);
unicode = 71;
},
{
color = 3;
export = 0;
glyphname = G.stroke;
kernLeft = C;
kernRight = G;
lastChange = "2024-02-26 20:32:57 +0000";
layers = (
{
anchors = (
{
name = bottom;
pos = (505,0);
},
{
name = center;
pos = (826,360);
},
{
name = top;
pos = (612,900);
}
);
guides = (
{
pos = (887,576);
}
);
layerId = "FCF05EF6-3D3F-478B-BA59-24992C4C44E9";
shapes = (
{
closed = 1;
nodes = (
(600,-12,o),
(695,19,o),
(776,77,c),
(892,540,l),
(849,540,l),
(742,105,l),
(669,56,o),
(588,30,o),
(505,30,cs),
(304,30,o),
(150,187,o),
(150,394,cs),
(150,642,o),
(371,870,o),
(610,870,cs),
(727,870,o),
(833,815,o),
(901,719,c),
(923,765,l),
(846,859,o),
(735,912,o),
(613,912,cs),
(348,912,o),
(104,664,o),
(104,395,cs),
(104,166,o),
(279,-12,o),
(505,-12,cs)
);
}
);
width = 940;
},
{
associatedMasterId = "DB28B65E-4CBC-4F12-8216-7B4F2F083639";
background = {
shapes = (
{
closed = 1;
nodes = (
(671,-17,o),
(845,157,o),
(845,371,cs),
(845,586,o),
(671,760,o),
(457,760,cs),
(243,760,o),
(69,586,o),
(69,371,cs),
(69,157,o),
(243,-17,o),
(457,-17,cs)
);
},
{
closed = 1;
nodes = (
(306,97,o),
(183,220,o),
(183,371,cs),
(183,523,o),
(306,646,o),
(457,646,cs),
(608,646,o),
(731,523,o),
(731,371,cs),
(731,220,o),
(608,97,o),
(457,97,cs)
);
}
);
};
guides = (
{
pos = (480,798);
}
);
layerId = "777EA275-EADA-4971-83C3-AA5A226F578E";
name = "Regular Dec 28 16, 17:07";
shapes = (
{
closed = 1;
nodes = (
(671,-17,o),
(848,157,o),
(848,371,cs),
(848,586,o),
(671,760,o),
(457,760,cs),
(243,760,o),
(66,586,o),
(66,371,cs),
(66,157,o),
(243,-17,o),
(457,-17,cs)
);
},
{
closed = 1;
nodes = (
(306,97,o),
(186,220,o),
(186,371,cs),
(186,523,o),
(306,646,o),
(457,646,cs),
(608,646,o),
(728,523,o),
(728,371,cs),
(728,220,o),
(608,97,o),
(457,97,cs)
);
}
);
width = 914;
},
{
associatedMasterId = "DB28B65E-4CBC-4F12-8216-7B4F2F083639";
background = {
shapes = (
{
closed = 1;
nodes = (
(834,0,l),
(834,457,l),
(720,457,l),
(720,0,l)
);
}
);
};
guides = (
{
angle = 90;
pos = (816,960);
},
{
pos = (1005,480);
}
);
hints = (
{
horizontal = 1;
place = (-17, 114);
place = (-17, 114);
type = Stem;
},
{
horizontal = 1;
origin = (0,4);
target = (0,26);
type = Stem;
},
{
origin = (0,7);
target = (0,23);
type = Stem;
},
{
place = (777, 0);
place = (777, 0);
type = Stem;
}
);
layerId = "C5A1E011-BF60-402C-BAC8-113BC67ABA6B";
name = "Mar 20 17, 10:16";
shapes = (
{
closed = 1;
nodes = (
(777,743,l),
(777,864,l),
(707,903,o),
(627,925,o),
(542,925,cs),
(281,925,o),
(69,719,o),
(69,457,cs),
(69,195,o),
(280,-11,o),
(545,-11,cs),
(651,-11,o),
(754,17,o),
(834,74,c),
(834,457,l),
(720,457,l),
(720,97,l),
(776,173,l),
(714,122,o),
(632,97,o),
(546,97,cs),
(343,97,o),
(189,258,o),
(189,457,cs),
(189,656,o),
(344,817,o),
(543,817,cs),
(626,817,o),
(703,789,o),
(764,743,c)
);
}
);
width = 914;
},
{
anchors = (
{
name = bottom;
pos = (456,0);
},
{
name = center;
pos = (810,360);
},
{
name = top;
pos = (679,900);
}
);
background = {
shapes = (
{
closed = 1;
nodes = (
(645,-18,o),
(756,16,o),
(838,84,c),
(838,540,l),
(728,540,l),
(728,142,l),
(672,109,o),
(604,90,o),
(529,90,cs),
(330,90,o),
(178,254,o),
(178,450,cs),
(178,649,o),
(332,810,o),
(530,810,cs),
(655,810,o),
(763,745,o),
(825,647,c),
(858,785,l),
(773,867,o),
(658,918,o),
(530,918,cs),
(269,918,o),
(60,708,o),
(60,450,cs),
(60,192,o),
(268,-18,o),
(529,-18,cs)
);
}
);
};
guides = (
{
angle = 76.4717;
pos = (895,480);
},
{
angle = 90;
pos = (480,429);
}
);
hints = (
{
horizontal = 1;
options = 4;
place = (-18, 558);
type = TTStem;
},
{
horizontal = 1;
options = 4;
place = (-18, 108);
type = TTStem;
},
{
horizontal = 1;
options = 2;
place = (540, 0);
type = TTSnap;
},
{
options = 4;
place = (858, 680);
type = TTStem;
},
{
options = 4;
place = (728, 110);
type = TTStem;
}
);
layerId = "DB28B65E-4CBC-4F12-8216-7B4F2F083639";
shapes = (
{
closed = 1;
nodes = (
(613,-18,o),
(712,17,o),
(797,73,c),
(909,540,l),
(797,540,l),
(702,139,l),
(646,108,o),
(585,90,o),
(523,90,cs),
(349,90,o),
(216,225,o),
(216,403,cs),
(216,616,o),
(404,810,o),
(611,810,cs),
(723,810,o),
(818,754,o),
(871,667,c),
(929,786,l),
(854,868,o),
(746,918,o),
(622,918,cs),
(347,918,o),
(98,669,o),
(98,395,cs),
(98,162,o),
(278,-18,o),
(512,-18,cs)
);
}
);
width = 940;
},
{
associatedMasterId = "DB28B65E-4CBC-4F12-8216-7B4F2F083639";
background = {
shapes = (
{
closed = 1;
nodes = (
(805,-17,o),
(1017,195,o),
(1017,457,cs),
(1017,719,o),
(805,931,o),
(543,931,cs),
(281,931,o),
(69,719,o),
(69,457,cs),
(69,195,o),
(281,-17,o),
(543,-17,cs)
);
},
{
closed = 1;
nodes = (
(344,97,o),
(189,258,o),
(189,457,cs),
(189,656,o),
(344,817,o),
(543,817,cs),
(742,817,o),
(897,656,o),
(897,457,cs),
(897,258,o),
(742,97,o),
(543,97,cs)
);
}
);
};
guides = (
{
angle = 90;
pos = (816,960);
},
{
pos = (1005,480);
},
{
angle = 270;
pos = (876,279);
}
);
hints = (
{
horizontal = 1;
place = (-17, 114);
place = (-17, 114);
type = Stem;
},
{
horizontal = 1;
origin = (0,16);
target = (0,9);
type = Stem;
},
{
origin = (0,19);
target = (0,6);
type = Stem;
},
{
origin = (0,27);
target = (0,26);
type = Stem;
},
{
horizontal = 1;
origin = (0,12);
target = up;
type = BottomGhost;
},
{
horizontal = 1;
options = 4;
origin = (0,16);
target = (0,9);
type = TTStem;
},
{
horizontal = 1;
options = 4;
origin = (0,22);
target = (0,3);
type = TTStem;
},
{
horizontal = 1;
options = 2;
origin = (0,27);
type = TTSnap;
},
{
options = 4;
origin = (0,19);
target = (0,6);
type = TTStem;
},
{
options = 4;
origin = (0,27);
target = (0,26);
type = TTStem;
}
);
layerId = "BAFA3C37-ACDE-438E-9E4E-5D9799488DA8";
name = "Oct 5 19, 11:35";
shapes = (
{
closed = 1;
nodes = (
(776,173,l),
(714,122,o),
(632,97,o),
(546,97,cs),
(343,97,o),
(189,258,o),
(189,457,cs),
(189,656,o),
(344,817,o),
(543,817,cs),
(633,817,o),
(715,784,o),
(777,728,c),
(777,864,l),
(707,903,o),
(627,925,o),
(542,925,cs),
(281,925,o),
(69,719,o),
(69,457,cs),
(69,195,o),
(280,-11,o),
(545,-11,cs),
(651,-11,o),
(754,17,o),
(834,74,c),
(834,457,l),
(720,457,l),
(720,97,l)
);
}
);
width = 914;
},
{
associatedMasterId = "DB28B65E-4CBC-4F12-8216-7B4F2F083639";
background = {
shapes = (
{
closed = 1;
nodes = (
(805,-17,o),
(1017,195,o),
(1017,457,cs),
(1017,719,o),
(805,931,o),
(543,931,cs),
(281,931,o),
(69,719,o),
(69,457,cs),
(69,195,o),
(281,-17,o),
(543,-17,cs)
);
},
{
closed = 1;
nodes = (
(344,97,o),
(189,258,o),
(189,457,cs),
(189,656,o),
(344,817,o),
(543,817,cs),
(742,817,o),
(897,656,o),
(897,457,cs),
(897,258,o),
(742,97,o),
(543,97,cs)
);
}
);
};
guides = (
{
angle = 90;
pos = (816,960);
},
{
pos = (1005,480);
},
{
angle = 270;
pos = (876,279);
},
{
pos = (510,493);
}
);
hints = (
{
horizontal = 1;
place = (-17, 114);
place = (-17, 114);
type = Stem;
},
{
horizontal = 1;
origin = (0,17);
target = (0,16);
type = Stem;
},
{
origin = (0,26);
target = (0,13);
type = Stem;
},
{
origin = (0,6);
target = (0,3);
type = Stem;
},
{
horizontal = 1;
place = (728, 21);
target = up;
type = BottomGhost;
},
{
horizontal = 1;
options = 4;
origin = (0,0);
target = (0,16);
type = TTStem;
},
{
horizontal = 1;
options = 4;
origin = (0,29);
target = (0,10);
type = TTStem;
},
{
horizontal = 1;
options = 2;
origin = (0,3);
type = TTSnap;
},
{
options = 4;
origin = (0,26);
target = (0,13);
type = TTStem;
},
{
options = 4;
origin = (0,6);
target = (0,3);
type = TTStem;
}
);
layerId = "C8D4A816-E381-4157-85C5-32D6E612B19B";
name = "Aug 25 20, 11:54";
shapes = (
{
closed = 1;
nodes = (
(651,-11,o),
(754,17,o),
(834,74,c),
(834,521,l),
(486,521,l),
(486,418,l),
(720,418,l),
(720,136,l),
(668,110,o),
(608,97,o),
(546,97,cs),
(343,97,o),
(189,258,o),
(189,457,cs),
(189,656,o),
(344,817,o),
(543,817,cs),
(665,817,o),
(770,756,o),
(834,664,c),
(834,825,l),
(753,888,o),
(652,925,o),
(543,925,cs),
(281,925,o),
(69,719,o),
(69,457,cs),
(69,195,o),
(280,-11,o),
(545,-11,cs)
);
}
);
width = 943;
},
{
associatedMasterId = "DB28B65E-4CBC-4F12-8216-7B4F2F083639";
background = {
shapes = (
{
closed = 1;
nodes = (
(805,-17,o),
(1017,195,o),
(1017,457,cs),
(1017,719,o),
(805,931,o),
(543,931,cs),
(281,931,o),
(69,719,o),
(69,457,cs),
(69,195,o),
(281,-17,o),
(543,-17,cs)
);
},
{
closed = 1;
nodes = (
(344,97,o),
(189,258,o),
(189,457,cs),
(189,656,o),
(344,817,o),
(543,817,cs),
(742,817,o),
(897,656,o),
(897,457,cs),
(897,258,o),
(742,97,o),
(543,97,cs)
);
}
);
};
hints = (
{
horizontal = 1;
place = (-17, 114);
place = (-17, 114);
type = Stem;
},
{
horizontal = 1;
place = (817, 0);
place = (817, 0);
type = Stem;
},
{
origin = (0,21);
target = (0,14);
type = Stem;
},
{
origin = (0,6);
target = (0,3);
type = Stem;
},
{
horizontal = 1;
place = (728, 21);
target = up;
type = BottomGhost;
},
{
horizontal = 1;
options = 4;
origin = (0,0);
target = (0,4);
type = TTStem;
},
{
horizontal = 1;
options = 4;
origin = (0,30);
target = (0,11);
type = TTStem;
},
{
horizontal = 1;
options = 2;
origin = (0,3);
type = TTSnap;
},
{
options = 4;
origin = (0,21);
target = (0,14);
type = TTStem;
},
{
options = 4;
origin = (0,6);
target = (0,3);
type = TTStem;
}
);
layerId = "FF6F243E-99AA-4B08-8DAA-3A09525DF5F9";
name = "14 Dec 21, 10:52";
shapes = (
{
closed = 1;
nodes = (
(651,-17,o),
(754,11,o),
(834,69,c),
(834,521,l),
(486,521,l),
(486,418,l),
(724,418,l),
(724,79,l),
(748,147,l),
(691,110,o),
(621,91,o),
(546,91,cs),
(343,91,o),
(189,258,o),
(189,457,cs),
(189,659,o),
(345,823,o),
(546,823,cs),
(673,823,o),
(783,757,o),
(845,657,c),
(878,792,l),
(792,878,o),
(673,931,o),
(543,931,cs),
(281,931,o),
(69,719,o),
(69,457,cs),
(69,195,o),
(280,-17,o),
(545,-17,cs)
);
}
);
width = 943;
},
{
associatedMasterId = "5ACC057E-9D2C-45A0-8610-B9302B4AC058";
background = {
shapes = (
{
closed = 1;
nodes = (
(671,-17,o),
(845,157,o),
(845,371,cs),
(845,586,o),
(671,760,o),
(457,760,cs),
(243,760,o),
(69,586,o),
(69,371,cs),
(69,157,o),
(243,-17,o),
(457,-17,cs)
);
},
{
closed = 1;
nodes = (
(306,97,o),
(183,220,o),
(183,371,cs),
(183,523,o),
(306,646,o),
(457,646,cs),
(608,646,o),
(731,523,o),
(731,371,cs),
(731,220,o),
(608,97,o),
(457,97,cs)
);
}
);
};
guides = (
{
pos = (480,798);
}
);
layerId = "FF23020C-D7C8-45D8-A8BD-5B21B522F887";
name = "Regular Dec 28 16, 17:07";
shapes = (
{
closed = 1;
nodes = (
(671,-17,o),
(848,157,o),
(848,371,cs),
(848,586,o),
(671,760,o),
(457,760,cs),
(243,760,o),
(66,586,o),
(66,371,cs),
(66,157,o),
(243,-17,o),
(457,-17,cs)
);
},
{
closed = 1;
nodes = (
(306,97,o),
(186,220,o),
(186,371,cs),
(186,523,o),
(306,646,o),
(457,646,cs),
(608,646,o),
(728,523,o),
(728,371,cs),
(728,220,o),
(608,97,o),
(457,97,cs)
);
}
);
width = 914;
},
{
associatedMasterId = "5ACC057E-9D2C-45A0-8610-B9302B4AC058";
background = {
shapes = (
{
closed = 1;
nodes = (
(834,0,l),
(834,457,l),
(720,457,l),
(720,0,l)
);
}
);
};
guides = (
{
angle = 90;
pos = (816,960);
},
{
pos = (1005,480);
}
);
hints = (
{
horizontal = 1;
place = (-17, 114);
place = (-17, 114);
type = Stem;
},
{
horizontal = 1;
origin = (0,4);
target = (0,26);
type = Stem;
},
{
origin = (0,7);
target = (0,23);
type = Stem;
},
{
place = (777, 0);
place = (777, 0);
type = Stem;
}
);
layerId = "1EB35465-A390-460C-81EF-C05BFC9DC4BD";
name = "Mar 20 17, 10:16";
shapes = (
{
closed = 1;
nodes = (
(777,743,l),
(777,864,l),
(707,903,o),
(627,925,o),
(542,925,cs),
(281,925,o),
(69,719,o),
(69,457,cs),
(69,195,o),
(280,-11,o),
(545,-11,cs),
(651,-11,o),
(754,17,o),
(834,74,c),
(834,457,l),
(720,457,l),
(720,97,l),
(776,173,l),
(714,122,o),
(632,97,o),
(546,97,cs),
(343,97,o),
(189,258,o),
(189,457,cs),
(189,656,o),
(344,817,o),
(543,817,cs),
(626,817,o),
(703,789,o),
(764,743,c)
);
}
);
width = 914;
},
{
anchors = (
{
name = bottom;
pos = (455,0);
},
{
name = center;
pos = (813,372);
},
{
name = top;
pos = (678,900);
}
);
background = {
shapes = (
{
closed = 1;
nodes = (
(790,-18,o),
(1000,191,o),
(1000,450,cs),
(1000,709,o),
(790,918,o),
(530,918,cs),
(270,918,o),
(60,709,o),
(60,450,cs),
(60,191,o),
(270,-18,o),
(530,-18,cs)
);
},
{
closed = 1;
nodes = (
(332,90,o),
(178,251,o),
(178,450,cs),
(178,649,o),
(332,810,o),
(530,810,cs),
(728,810,o),
(882,649,o),
(882,450,cs),
(882,251,o),
(728,90,o),
(530,90,cs)
);
}
);
};
guides = (
{
angle = 76.4717;
pos = (841,714);
},
{
angle = 90;
pos = (480,429);
},
{
pos = (820,504);
}
);
hints = (
{
horizontal = 1;
options = 4;
origin = (0,27);
target = (0,3);
type = TTStem;
},
{
horizontal = 1;
options = 4;
origin = (0,27);
target = (0,2);
type = TTStem;
},
{
horizontal = 1;
options = 2;
origin = (0,3);
type = TTSnap;
},
{
options = 4;
origin = (0,17);
target = (0,11);
type = TTStem;
},
{
options = 4;
origin = (0,5);
target = (0,17);
type = TTStem;
}
);
layerId = "5ACC057E-9D2C-45A0-8610-B9302B4AC058";
shapes = (
{
closed = 1;
nodes = (
(615,-18,o),
(713,14,o),
(797,71,c),
(902,504,l),
(737,504,l),
(661,188,l),
(623,168,o),
(579,156,o),
(533,156,cs),
(391,156,o),
(282,268,o),
(282,413,cs),
(282,586,o),
(433,744,o),
(602,744,cs),
(702,744,o),
(784,690,o),
(825,608,c),
(918,801,l),
(843,874,o),
(739,918,o),
(621,918,cs),
(342,918,o),
(92,670,o),
(92,396,cs),
(92,163,o),
(274,-18,o),
(513,-18,cs)
);
}
);
width = 920;
},
{
associatedMasterId = "5ACC057E-9D2C-45A0-8610-B9302B4AC058";
background = {
shapes = (
{
closed = 1;
nodes = (
(805,-17,o),
(1017,195,o),
(1017,457,cs),
(1017,719,o),
(805,931,o),
(543,931,cs),
(281,931,o),
(69,719,o),
(69,457,cs),
(69,195,o),
(281,-17,o),
(543,-17,cs)
);
},
{
closed = 1;
nodes = (
(344,97,o),
(189,258,o),
(189,457,cs),
(189,656,o),
(344,817,o),
(543,817,cs),
(742,817,o),
(897,656,o),
(897,457,cs),
(897,258,o),
(742,97,o),
(543,97,cs)
);
}
);
};
guides = (
{
angle = 90;
pos = (816,960);
},
{
pos = (1005,480);
},
{
angle = 270;
pos = (876,279);
}
);
hints = (
{
horizontal = 1;
place = (-17, 114);
place = (-17, 114);
type = Stem;
},
{
horizontal = 1;
origin = (0,16);
target = (0,9);
type = Stem;
},
{
origin = (0,19);
target = (0,6);
type = Stem;
},
{
origin = (0,27);
target = (0,26);
type = Stem;
},
{
horizontal = 1;
origin = (0,12);
target = up;
type = BottomGhost;
},
{
horizontal = 1;
options = 4;
origin = (0,16);
target = (0,9);
type = TTStem;
},
{
horizontal = 1;
options = 4;
origin = (0,22);
target = (0,3);
type = TTStem;
},
{
horizontal = 1;
options = 2;
origin = (0,27);
type = TTSnap;
},
{
options = 4;
origin = (0,19);
target = (0,6);
type = TTStem;
},
{
options = 4;
origin = (0,27);
target = (0,26);
type = TTStem;
}
);
layerId = "A81537C6-BC53-4544-9A1D-EE589E13BD0F";
name = "Oct 5 19, 11:35";
shapes = (
{
closed = 1;
nodes = (
(776,173,l),
(714,122,o),
(632,97,o),
(546,97,cs),
(343,97,o),
(189,258,o),
(189,457,cs),
(189,656,o),
(344,817,o),
(543,817,cs),
(633,817,o),
(715,784,o),
(777,728,c),
(777,864,l),
(707,903,o),
(627,925,o),
(542,925,cs),
(281,925,o),
(69,719,o),
(69,457,cs),
(69,195,o),
(280,-11,o),
(545,-11,cs),
(651,-11,o),
(754,17,o),
(834,74,c),
(834,457,l),
(720,457,l),
(720,97,l)
);
}
);
width = 914;
},
{
associatedMasterId = "5ACC057E-9D2C-45A0-8610-B9302B4AC058";
background = {
shapes = (
{
closed = 1;
nodes = (
(805,-17,o),
(1017,195,o),
(1017,457,cs),
(1017,719,o),
(805,931,o),
(543,931,cs),
(281,931,o),
(69,719,o),
(69,457,cs),
(69,195,o),
(281,-17,o),
(543,-17,cs)
);
},
{
closed = 1;
nodes = (
(344,97,o),
(189,258,o),
(189,457,cs),
(189,656,o),
(344,817,o),
(543,817,cs),
(742,817,o),
(897,656,o),
(897,457,cs),
(897,258,o),
(742,97,o),
(543,97,cs)
);
}
);
};
guides = (
{
angle = 90;
pos = (816,960);
},
{
pos = (1005,480);
},
{
angle = 270;
pos = (876,279);
},
{
pos = (510,493);
}
);
hints = (
{
horizontal = 1;
place = (-17, 114);
place = (-17, 114);
type = Stem;
},
{
horizontal = 1;
origin = (0,17);
target = (0,16);
type = Stem;
},
{
origin = (0,26);
target = (0,13);
type = Stem;
},
{
origin = (0,6);
target = (0,3);
type = Stem;
},
{
horizontal = 1;
place = (728, 21);
target = up;
type = BottomGhost;
},
{
horizontal = 1;
options = 4;
origin = (0,0);
target = (0,16);
type = TTStem;
},
{
horizontal = 1;
options = 4;
origin = (0,29);
target = (0,10);
type = TTStem;
},
{
horizontal = 1;
options = 2;
origin = (0,3);
type = TTSnap;
},
{
options = 4;
origin = (0,26);
target = (0,13);
type = TTStem;
},
{
options = 4;
origin = (0,6);
target = (0,3);
type = TTStem;
}
);
layerId = "FE9A2E8B-93B9-4994-B4D9-8EDB4D038CF0";
name = "Aug 25 20, 11:54";
shapes = (
{
closed = 1;
nodes = (
(651,-11,o),
(754,17,o),
(834,74,c),
(834,521,l),
(486,521,l),
(486,418,l),
(720,418,l),
(720,136,l),
(668,110,o),
(608,97,o),
(546,97,cs),
(343,97,o),
(189,258,o),
(189,457,cs),
(189,656,o),
(344,817,o),
(543,817,cs),
(665,817,o),
(770,756,o),
(834,664,c),
(834,825,l),
(753,888,o),
(652,925,o),
(543,925,cs),
(281,925,o),
(69,719,o),
(69,457,cs),
(69,195,o),
(280,-11,o),
(545,-11,cs)
);
}
);
width = 943;
},
{
associatedMasterId = "5ACC057E-9D2C-45A0-8610-B9302B4AC058";
background = {
shapes = (
{
closed = 1;
nodes = (
(805,-17,o),
(1017,195,o),
(1017,457,cs),
(1017,719,o),
(805,931,o),
(543,931,cs),
(281,931,o),
(69,719,o),
(69,457,cs),
(69,195,o),
(281,-17,o),
(543,-17,cs)
);
},
{
closed = 1;
nodes = (
(344,97,o),
(189,258,o),
(189,457,cs),
(189,656,o),
(344,817,o),
(543,817,cs),
(742,817,o),
(897,656,o),
(897,457,cs),
(897,258,o),
(742,97,o),
(543,97,cs)
);
}
);
};
hints = (
{
horizontal = 1;
place = (-17, 114);
place = (-17, 114);
type = Stem;
},
{
horizontal = 1;
place = (817, 0);
place = (817, 0);
type = Stem;
},
{
origin = (0,21);
target = (0,14);
type = Stem;
},
{
origin = (0,6);
target = (0,3);
type = Stem;
},
{
horizontal = 1;
place = (728, 21);
target = up;
type = BottomGhost;
},
{
horizontal = 1;
options = 4;
origin = (0,0);
target = (0,4);
type = TTStem;
},
{
horizontal = 1;
options = 4;
origin = (0,30);
target = (0,11);
type = TTStem;
},
{
horizontal = 1;
options = 2;
origin = (0,3);
type = TTSnap;
},
{
options = 4;
origin = (0,21);
target = (0,14);
type = TTStem;
},
{
options = 4;
origin = (0,6);
target = (0,3);
type = TTStem;
}
);
layerId = "FCD0ABD9-5C23-4904-8E3E-B13F5D4D906B";
name = "14 Dec 21, 10:52";
shapes = (
{
closed = 1;
nodes = (
(651,-17,o),
(754,11,o),
(834,69,c),
(834,521,l),
(486,521,l),
(486,418,l),
(724,418,l),
(724,79,l),
(748,147,l),
(691,110,o),
(621,91,o),
(546,91,cs),
(343,91,o),
(189,258,o),
(189,457,cs),
(189,659,o),
(345,823,o),
(546,823,cs),
(673,823,o),
(783,757,o),
(845,657,c),
(878,792,l),
(792,878,o),
(673,931,o),
(543,931,cs),
(281,931,o),
(69,719,o),
(69,457,cs),
(69,195,o),
(280,-17,o),
(545,-17,cs)
);
}
);
width = 943;
},
{
anchors = (
{
name = bottom;
pos = (519,0);
},
{
name = center;
pos = (779,390);
},
{
name = top;
pos = (520,900);
}
);
guides = (
{
pos = (730,524);
}
);
layerId = "5435BF97-BB07-4B92-90A3-3494A24C81AC";
shapes = (
{
closed = 1;
nodes = (
(626,-20,o),
(721,5,o),
(796,52,c),
(914,524,l),
(665,524,l),
(601,248,l),
(580,241,o),
(563,238,o),
(543,238,cs),
(441,238,o),
(368,311,o),
(368,413,cs),
(368,547,o),
(479,656,o),
(617,656,cs),
(703,656,o),
(786,616,o),
(840,548,c),
(968,806,l),
(887,877,o),
(756,920,o),
(623,920,cs),
(325,920,o),
(77,682,o),
(77,395,cs),
(77,153,o),
(264,-20,o),
(526,-20,cs)
);
}
);
width = 910;
}
);
},
{
color = 3;
glyphname = Gstroke;
kernLeft = C;
kernRight = G;
lastChange = "2024-02-26 20:26:21 +0000";
layers = (
{
layerId = "FCF05EF6-3D3F-478B-BA59-24992C4C44E9";
shapes = (
{
closed = 1;
nodes = (
(600,-12,o),
(695,19,o),
(776,77,c),
(842,342,l),
(933,342,l),
(941,378,l),
(851,378,l),
(892,540,l),
(849,540,l),
(809,378,l),
(521,378,l),
(513,342,l),
(800,342,l),
(742,105,l),
(669,56,o),
(588,30,o),
(505,30,cs),
(304,30,o),
(150,187,o),
(150,394,cs),
(150,642,o),
(371,870,o),
(610,870,cs),
(727,870,o),
(833,815,o),
(901,719,c),
(923,765,l),
(846,859,o),
(735,912,o),
(613,912,cs),
(348,912,o),
(104,664,o),
(104,395,cs),
(104,166,o),
(279,-12,o),
(505,-12,cs)
);
}
);
width = 940;
},
{
hints = (
{
horizontal = 1;
options = 4;
place = (-18, 558);
type = TTStem;
},
{
horizontal = 1;
options = 4;
place = (-18, 108);
type = TTStem;
},
{
horizontal = 1;
options = 2;
place = (540, 0);
type = TTSnap;
},
{
options = 4;
place = (858, 680);
type = TTStem;
},
{
options = 4;
place = (728, 110);
type = TTStem;
}
);
layerId = "DB28B65E-4CBC-4F12-8216-7B4F2F083639";
shapes = (
{
closed = 1;
nodes = (
(613,-18,o),
(712,17,o),
(797,73,c),
(856,318,l),
(927,318,l),
(947,402,l),
(876,402,l),
(909,540,l),
(797,540,l),
(764,402,l),
(527,402,l),
(507,318,l),
(744,318,l),
(702,139,l),
(646,108,o),
(585,90,o),
(523,90,cs),
(349,90,o),
(216,225,o),
(216,403,cs),
(216,616,o),
(404,810,o),
(611,810,cs),
(723,810,o),
(818,754,o),
(871,667,c),
(929,786,l),
(854,868,o),
(746,918,o),
(622,918,cs),
(347,918,o),
(98,669,o),
(98,395,cs),
(98,162,o),
(278,-18,o),
(512,-18,cs)
);
}
);
width = 940;
},
{
hints = (
{
horizontal = 1;
options = 4;
origin = (0,35);
target = (0,7);
type = TTStem;
},
{
horizontal = 1;
options = 4;
origin = (0,35);
target = (0,2);
type = TTStem;
},
{
horizontal = 1;
options = 2;
origin = (0,7);
type = TTSnap;
},
{
options = 4;
origin = (0,25);
target = (0,19);
type = TTStem;
},
{
options = 4;
origin = (0,13);
target = (0,25);
type = TTStem;
}
);
layerId = "5ACC057E-9D2C-45A0-8610-B9302B4AC058";
shapes = (
{
closed = 1;
nodes = (
(615,-18,o),
(713,14,o),
(797,71,c),
(855,309,l),
(924,309,l),
(956,435,l),
(885,435,l),
(902,504,l),
(737,504,l),
(720,435,l),
(536,435,l),
(504,309,l),
(690,309,l),
(661,188,l),
(623,168,o),
(579,156,o),
(533,156,cs),
(391,156,o),
(282,268,o),
(282,413,cs),
(282,586,o),
(433,744,o),
(602,744,cs),
(702,744,o),
(784,690,o),
(825,608,c),
(918,801,l),
(843,874,o),
(739,918,o),
(621,918,cs),
(342,918,o),
(92,670,o),
(92,396,cs),
(92,163,o),
(274,-18,o),
(513,-18,cs)
);
}
);
width = 920;
},
{
layerId = "5435BF97-BB07-4B92-90A3-3494A24C81AC";
shapes = (
{
closed = 1;
nodes = (
(626,-20,o),
(721,5,o),
(796,52,c),
(860,306,l),
(911,306,l),
(953,474,l),
(902,474,l),
(914,524,l),
(665,524,l),
(653,474,l),
(533,474,l),
(491,306,l),
(614,306,l),
(601,248,l),
(580,241,o),
(563,238,o),
(543,238,cs),
(441,238,o),
(368,311,o),
(368,413,cs),
(368,547,o),
(479,656,o),
(617,656,cs),
(703,656,o),
(786,616,o),
(840,548,c),
(968,806,l),
(887,877,o),
(756,920,o),
(623,920,cs),
(325,920,o),
(77,682,o),
(77,395,cs),
(77,153,o),
(264,-20,o),
(526,-20,cs)
);
}
);
width = 910;
}
);
unicode = 484;
},
{
color = 3;
glyphname = H;
kernLeft = B;
kernRight = H;
lastChange = "2024-02-17 22:45:08 +0000";
layers = (
{
anchors = (
{
name = bottom;
pos = (305,0);
},
{
name = center;
pos = (492,750);
},
{
name = top;
pos = (530,900);
},
{
name = topleft;
pos = (286,900);
}
);
guides = (
{
angle = -104.036;
pos = (136,300);
},
{
angle = -104.036;
pos = (180,300);
}
);
layerId = "FCF05EF6-3D3F-478B-BA59-24992C4C44E9";
shapes = (
{
closed = 1;
nodes = (
(105,0,l),
(239,535,l),
(639,535,l),
(505,0,l),
(549,0,l),
(774,900,l),
(730,900,l),
(649,575,l),
(249,575,l),
(330,900,l),
(286,900,l),
(61,0,l)
);
}
);
width = 760;
},
{
anchors = (
{
name = bottom;
pos = (325,0);
},
{
name = center;
pos = (510,750);
},
{
name = top;
pos = (547,900);
},
{
name = topleft;
pos = (273,900);
}
);
background = {
shapes = (
{
closed = 1;
nodes = (
(499,114,o),
(581,196,o),
(581,298,cs),
(581,400,o),
(499,482,o),
(397,482,cs),
(295,482,o),
(213,400,o),
(213,298,cs),
(213,196,o),
(295,114,o),
(397,114,cs)
);
},
{
closed = 1;
nodes = (
(562,0,o),
(695,133,o),
(695,298,cs),
(695,463,o),
(562,596,o),
(397,596,cs),
(232,596,o),
(99,463,o),
(99,298,cs),
(99,133,o),
(232,0,o),
(397,0,cs)
);
},
{
closed = 1;
nodes = (
(453,596,o),
(499,642,o),
(499,698,cs),
(499,754,o),
(453,800,o),
(397,800,cs),
(341,800,o),
(295,754,o),
(295,698,cs),
(295,642,o),
(341,596,o),
(397,596,cs)
);
},
{
closed = 1;
nodes = (
(516,482,o),
(613,579,o),
(613,698,cs),
(613,817,o),
(516,914,o),
(397,914,cs),
(278,914,o),
(181,817,o),
(181,698,cs),
(181,579,o),
(278,482,o),
(397,482,cs)
);
}
);
};
guides = (
{
angle = -104.036;
pos = (126,300);
},
{
angle = -104.036;
pos = (240,300);
},
{
angle = -104.036;
pos = (560,300);
},
{
angle = -104.036;
pos = (674,300);
}
);
layerId = "DB28B65E-4CBC-4F12-8216-7B4F2F083639";
shapes = (
{
closed = 1;
nodes = (
(165,0,l),
(291,504,l),
(611,504,l),
(485,0,l),
(599,0,l),
(824,900,l),
(710,900,l),
(637,606,l),
(317,606,l),
(390,900,l),
(276,900,l),
(51,0,l)
);
}
);
width = 800;
},
{
anchors = (
{
name = bottom;
pos = (328,0);
},
{
name = center;
pos = (513,750);
},
{
name = top;
pos = (550,900);
},
{
name = topleft;
pos = (276,900);
}
);
background = {
shapes = (
{
closed = 1;
nodes = (
(499,114,o),
(581,196,o),
(581,298,cs),
(581,400,o),
(499,482,o),
(397,482,cs),
(295,482,o),
(213,400,o),
(213,298,cs),
(213,196,o),
(295,114,o),
(397,114,cs)
);
},
{
closed = 1;
nodes = (
(562,0,o),
(695,133,o),
(695,298,cs),
(695,463,o),
(562,596,o),
(397,596,cs),
(232,596,o),
(99,463,o),
(99,298,cs),
(99,133,o),
(232,0,o),
(397,0,cs)
);
},
{
closed = 1;
nodes = (
(453,596,o),
(499,642,o),
(499,698,cs),
(499,754,o),
(453,800,o),
(397,800,cs),
(341,800,o),
(295,754,o),
(295,698,cs),
(295,642,o),
(341,596,o),
(397,596,cs)
);
},
{
closed = 1;
nodes = (
(516,482,o),
(613,579,o),
(613,698,cs),
(613,817,o),
(516,914,o),
(397,914,cs),
(278,914,o),
(181,817,o),
(181,698,cs),
(181,579,o),
(278,482,o),
(397,482,cs)
);
}
);
};
guides = (
{
angle = -104.036;
pos = (96,300);
},
{
angle = -104.036;
pos = (270,300);
}
);
layerId = "5ACC057E-9D2C-45A0-8610-B9302B4AC058";
shapes = (
{
closed = 1;
nodes = (
(195,0,l),
(308,450,l),
(568,450,l),
(455,0,l),
(629,0,l),
(854,900,l),
(680,900,l),
(609,612,l),
(349,612,l),
(420,900,l),
(246,900,l),
(21,0,l)
);
}
);
width = 800;
},
{
anchors = (
{
name = bottom;
pos = (374,0);
},
{
name = center;
pos = (561,750);
},
{
name = top;
pos = (598,900);
},
{
name = topleft;
pos = (264,900);
}
);
layerId = "5435BF97-BB07-4B92-90A3-3494A24C81AC";
shapes = (
{
closed = 1;
nodes = (
(279,0,l),
(373,378,l),
(565,378,l),
(471,0,l),
(765,0,l),
(989,900,l),
(695,900,l),
(628,630,l),
(436,630,l),
(503,900,l),
(209,900,l),
(-15,0,l)
);
}
);
width = 900;
}
);
unicode = 72;
},
{
color = 3;
export = 0;
glyphname = H.bar;
kernLeft = B;
kernRight = H;
lastChange = "2024-02-20 06:33:33 +0000";
layers = (
{
anchors = (
{
name = bottom;
pos = (305,0);
},
{
name = center;
pos = (492,750);
},
{
name = top;
pos = (530,900);
},
{
name = topleft;
pos = (286,900);
}
);
guides = (
{
angle = -104.036;
pos = (136,300);
},
{
angle = -104.036;
pos = (180,300);
}
);
layerId = "FCF05EF6-3D3F-478B-BA59-24992C4C44E9";
shapes = (
{
closed = 1;
nodes = (
(105,0,l),
(224,475,l),
(624,475,l),
(505,0,l),
(549,0,l),
(774,900,l),
(730,900,l),
(634,515,l),
(234,515,l),
(330,900,l),
(286,900,l),
(61,0,l)
);
}
);
width = 760;
},
{
associatedMasterId = "DB28B65E-4CBC-4F12-8216-7B4F2F083639";
background = {
shapes = (
{
closed = 1;
nodes = (
(470,114,o),
(552,196,o),
(552,298,cs),
(552,400,o),
(470,482,o),
(368,482,cs),
(267,482,o),
(185,400,o),
(185,298,cs),
(185,196,o),
(267,114,o),
(368,114,cs)
);
},
{
closed = 1;
nodes = (
(533,0,o),
(666,133,o),
(666,298,cs),
(666,463,o),
(533,596,o),
(368,596,cs),
(204,596,o),
(70,463,o),
(70,298,cs),
(70,133,o),
(204,0,o),
(368,0,cs)
);
},
{
closed = 1;
nodes = (
(425,596,o),
(470,642,o),
(470,698,cs),
(470,754,o),
(425,800,o),
(368,800,cs),
(312,800,o),
(267,754,o),
(267,698,cs),
(267,642,o),
(312,596,o),
(368,596,cs)
);
},
{
closed = 1;
nodes = (
(487,482,o),
(585,579,o),
(585,698,cs),
(585,817,o),
(487,914,o),
(368,914,cs),
(249,914,o),
(152,817,o),
(152,698,cs),
(152,579,o),
(249,482,o),
(368,482,cs)
);
}
);
};
guides = (
{
angle = 180;
pos = (387,578);
}
);
layerId = "D14006D1-BC73-46E0-9B30-9CCDDC7A9D16";
name = "Mar 20 17, 10:15";
shapes = (
{
closed = 1;
nodes = (
(229,0,l),
(229,914,l),
(114,914,l),
(114,0,l)
);
},
{
closed = 1;
nodes = (
(742,434,l),
(742,537,l),
(167,537,l),
(167,434,l)
);
},
{
closed = 1;
nodes = (
(800,0,l),
(800,914,l),
(686,914,l),
(686,0,l)
);
}
);
width = 914;
},
{
anchors = (
{
name = bottom;
pos = (325,0);
},
{
name = center;
pos = (510,750);
},
{
name = top;
pos = (547,900);
},
{
name = topleft;
pos = (273,900);
}
);
background = {
shapes = (
{
closed = 1;
nodes = (
(499,114,o),
(581,196,o),
(581,298,cs),
(581,400,o),
(499,482,o),
(397,482,cs),
(295,482,o),
(213,400,o),
(213,298,cs),
(213,196,o),
(295,114,o),
(397,114,cs)
);
},
{
closed = 1;
nodes = (
(562,0,o),
(695,133,o),
(695,298,cs),
(695,463,o),
(562,596,o),
(397,596,cs),
(232,596,o),
(99,463,o),
(99,298,cs),
(99,133,o),
(232,0,o),
(397,0,cs)
);
},
{
closed = 1;
nodes = (
(453,596,o),
(499,642,o),
(499,698,cs),
(499,754,o),
(453,800,o),
(397,800,cs),
(341,800,o),
(295,754,o),
(295,698,cs),
(295,642,o),
(341,596,o),
(397,596,cs)
);
},
{
closed = 1;
nodes = (
(516,482,o),
(613,579,o),
(613,698,cs),
(613,817,o),
(516,914,o),
(397,914,cs),
(278,914,o),
(181,817,o),
(181,698,cs),
(181,579,o),
(278,482,o),
(397,482,cs)
);
}
);
};
guides = (
{
angle = 180;
pos = (417,546);
},
{
angle = 180;
pos = (240,750);
},
{
angle = -104.036;
pos = (126,300);
}
);
layerId = "DB28B65E-4CBC-4F12-8216-7B4F2F083639";
shapes = (
{
closed = 1;
nodes = (
(165,0,l),
(276,444,l),
(596,444,l),
(485,0,l),
(599,0,l),
(824,900,l),
(710,900,l),
(622,546,l),
(302,546,l),
(390,900,l),
(276,900,l),
(51,0,l)
);
}
);
width = 800;
},
{
associatedMasterId = "5ACC057E-9D2C-45A0-8610-B9302B4AC058";
background = {
shapes = (
{
closed = 1;
nodes = (
(470,114,o),
(552,196,o),
(552,298,cs),
(552,400,o),
(470,482,o),
(368,482,cs),
(267,482,o),
(185,400,o),
(185,298,cs),
(185,196,o),
(267,114,o),
(368,114,cs)
);
},
{
closed = 1;
nodes = (
(533,0,o),
(666,133,o),
(666,298,cs),
(666,463,o),
(533,596,o),
(368,596,cs),
(204,596,o),
(70,463,o),
(70,298,cs),
(70,133,o),
(204,0,o),
(368,0,cs)
);
},
{
closed = 1;
nodes = (
(425,596,o),
(470,642,o),
(470,698,cs),
(470,754,o),
(425,800,o),
(368,800,cs),
(312,800,o),
(267,754,o),
(267,698,cs),
(267,642,o),
(312,596,o),
(368,596,cs)
);
},
{
closed = 1;
nodes = (
(487,482,o),
(585,579,o),
(585,698,cs),
(585,817,o),
(487,914,o),
(368,914,cs),
(249,914,o),
(152,817,o),
(152,698,cs),
(152,579,o),
(249,482,o),
(368,482,cs)
);
}
);
};
guides = (
{
angle = 180;
pos = (387,578);
}
);
layerId = "08105FB2-0DEE-4941-A412-2CCBD85ECA1A";
name = "Mar 20 17, 10:15";
shapes = (
{
closed = 1;
nodes = (
(229,0,l),
(229,914,l),
(114,914,l),
(114,0,l)
);
},
{
closed = 1;
nodes = (
(742,434,l),
(742,537,l),
(167,537,l),
(167,434,l)
);
},
{
closed = 1;
nodes = (
(800,0,l),
(800,914,l),
(686,914,l),
(686,0,l)
);
}
);
width = 914;
},
{
anchors = (
{
name = bottom;
pos = (325,0);
},
{
name = center;
pos = (502,720);
},
{
name = top;
pos = (550,900);
},
{
name = topleft;
pos = (276,900);
}
);
background = {
shapes = (
{
closed = 1;
nodes = (
(499,114,o),
(581,196,o),
(581,298,cs),
(581,400,o),
(499,482,o),
(397,482,cs),
(295,482,o),
(213,400,o),
(213,298,cs),
(213,196,o),
(295,114,o),
(397,114,cs)
);
},
{
closed = 1;
nodes = (
(562,0,o),
(695,133,o),
(695,298,cs),
(695,463,o),
(562,596,o),
(397,596,cs),
(232,596,o),
(99,463,o),
(99,298,cs),
(99,133,o),
(232,0,o),
(397,0,cs)
);
},
{
closed = 1;
nodes = (
(453,596,o),
(499,642,o),
(499,698,cs),
(499,754,o),
(453,800,o),
(397,800,cs),
(341,800,o),
(295,754,o),
(295,698,cs),
(295,642,o),
(341,596,o),
(397,596,cs)
);
},
{
closed = 1;
nodes = (
(516,482,o),
(613,579,o),
(613,698,cs),
(613,817,o),
(516,914,o),
(397,914,cs),
(278,914,o),
(181,817,o),
(181,698,cs),
(181,579,o),
(278,482,o),
(397,482,cs)
);
}
);
};
guides = (
{
angle = 180;
pos = (417,576);
},
{
angle = 180;
pos = (240,750);
},
{
angle = 180;
pos = (240,495);
},
{
angle = -104.036;
pos = (96,300);
}
);
layerId = "5ACC057E-9D2C-45A0-8610-B9302B4AC058";
shapes = (
{
closed = 1;
nodes = (
(195,0,l),
(299,414,l),
(559,414,l),
(455,0,l),
(629,0,l),
(854,900,l),
(680,900,l),
(600,576,l),
(340,576,l),
(420,900,l),
(246,900,l),
(21,0,l)
);
}
);
width = 800;
},
{
anchors = (
{
name = bottom;
pos = (374,0);
},
{
name = center;
pos = (561,750);
},
{
name = top;
pos = (598,900);
},
{
name = topleft;
pos = (264,900);
}
);
layerId = "5435BF97-BB07-4B92-90A3-3494A24C81AC";
shapes = (
{
closed = 1;
nodes = (
(279,0,l),
(361,330,l),
(553,330,l),
(471,0,l),
(765,0,l),
(989,900,l),
(707,900,l),
(625,570,l),
(409,570,l),
(491,900,l),
(209,900,l),
(-15,0,l)
);
}
);
width = 900;
}
);
},
{
color = 3;
glyphname = Hbar;
kernLeft = B;
kernRight = H;
lastChange = "2024-02-20 06:33:33 +0000";
layers = (
{
layerId = "FCF05EF6-3D3F-478B-BA59-24992C4C44E9";
shapes = (
{
closed = 1;
nodes = (
(105,0,l),
(239,535,l),
(639,535,l),
(505,0,l),
(549,0,l),
(732,732,l),
(828,732,l),
(836,768,l),
(741,768,l),
(774,900,l),
(730,900,l),
(697,768,l),
(297,768,l),
(330,900,l),
(286,900,l),
(253,768,l),
(156,768,l),
(148,732,l),
(244,732,l),
(61,0,l)
);
},
{
closed = 1;
nodes = (
(288,732,l),
(688,732,l),
(649,575,l),
(249,575,l)
);
}
);
width = 760;
},
{
layerId = "DB28B65E-4CBC-4F12-8216-7B4F2F083639";
shapes = (
{
closed = 1;
nodes = (
(165,0,l),
(276,444,l),
(596,444,l),
(485,0,l),
(599,0,l),
(776,708,l),
(870,708,l),
(890,792,l),
(797,792,l),
(824,900,l),
(710,900,l),
(683,792,l),
(363,792,l),
(390,900,l),
(276,900,l),
(249,792,l),
(150,792,l),
(130,708,l),
(228,708,l),
(51,0,l)
);
},
{
closed = 1;
nodes = (
(342,708,l),
(662,708,l),
(622,546,l),
(302,546,l)
);
}
);
width = 800;
},
{
layerId = "5ACC057E-9D2C-45A0-8610-B9302B4AC058";
shapes = (
{
closed = 1;
nodes = (
(195,0,l),
(299,414,l),
(559,414,l),
(455,0,l),
(629,0,l),
(796,666,l),
(859,666,l),
(885,774,l),
(823,774,l),
(854,900,l),
(680,900,l),
(649,774,l),
(389,774,l),
(420,900,l),
(246,900,l),
(215,774,l),
(145,774,l),
(119,666,l),
(188,666,l),
(21,0,l)
);
},
{
closed = 1;
nodes = (
(362,666,l),
(622,666,l),
(600,576,l),
(340,576,l)
);
}
);
width = 800;
},
{
layerId = "5435BF97-BB07-4B92-90A3-3494A24C81AC";
shapes = (
{
closed = 1;
nodes = (
(279,0,l),
(361,330,l),
(553,330,l),
(471,0,l),
(765,0,l),
(935,681,l),
(983,681,l),
(1017,819,l),
(969,819,l),
(989,900,l),
(707,900,l),
(687,819,l),
(471,819,l),
(491,900,l),
(209,900,l),
(189,819,l),
(141,819,l),
(107,681,l),
(155,681,l),
(-15,0,l)
);
},
{
closed = 1;
nodes = (
(437,681,l),
(653,681,l),
(625,570,l),
(409,570,l)
);
}
);
width = 900;
}
);
unicode = 294;
},
{
color = 3;
glyphname = I;
kernLeft = B;
kernRight = H;
lastChange = "2024-02-17 22:45:08 +0000";
layers = (
{
anchors = (
{
name = bottom;
pos = (95,0);
},
{
name = ogonek;
pos = (95,0);
},
{
name = top;
pos = (320,900);
},
{
name = topleft;
pos = (125,900);
}
);
layerId = "FCF05EF6-3D3F-478B-BA59-24992C4C44E9";
shapes = (
{
closed = 1;
nodes = (
(117,0,l),
(342,900,l),
(298,900,l),
(73,0,l)
);
}
);
width = 340;
},
{
anchors = (
{
name = bottom;
pos = (120,0);
},
{
name = ogonek;
pos = (120,0);
},
{
name = top;
pos = (345,900);
},
{
name = topleft;
pos = (150,900);
}
);
background = {
shapes = (
{
closed = 1;
nodes = (
(497,114,o),
(579,196,o),
(579,298,cs),
(579,400,o),
(497,482,o),
(395,482,cs),
(293,482,o),
(211,400,o),
(211,298,cs),
(211,196,o),
(293,114,o),
(395,114,cs)
);
},
{
closed = 1;
nodes = (
(560,0,o),
(693,133,o),
(693,298,cs),
(693,463,o),
(560,596,o),
(395,596,cs),
(230,596,o),
(97,463,o),
(97,298,cs),
(97,133,o),
(230,0,o),
(395,0,cs)
);
},
{
closed = 1;
nodes = (
(451,596,o),
(497,642,o),
(497,698,cs),
(497,754,o),
(451,800,o),
(395,800,cs),
(339,800,o),
(293,754,o),
(293,698,cs),
(293,642,o),
(339,596,o),
(395,596,cs)
);
},
{
closed = 1;
nodes = (
(514,482,o),
(611,579,o),
(611,698,cs),
(611,817,o),
(514,914,o),
(395,914,cs),
(276,914,o),
(179,817,o),
(179,698,cs),
(179,579,o),
(276,482,o),
(395,482,cs)
);
}
);
};
guides = (
{
angle = 180;
pos = (415,578);
},
{
angle = -104.036;
pos = (138,300);
},
{
angle = -104.036;
pos = (252,300);
}
);
layerId = "DB28B65E-4CBC-4F12-8216-7B4F2F083639";
shapes = (
{
closed = 1;
nodes = (
(177,0,l),
(402,900,l),
(288,900,l),
(63,0,l)
);
}
);
width = 390;
},
{
anchors = (
{
name = bottom;
pos = (120,0);
},
{
name = ogonek;
pos = (120,0);
},
{
name = top;
pos = (345,900);
},
{
name = topleft;
pos = (150,900);
}
);
background = {
shapes = (
{
closed = 1;
nodes = (
(497,114,o),
(579,196,o),
(579,298,cs),
(579,400,o),
(497,482,o),
(395,482,cs),
(293,482,o),
(211,400,o),
(211,298,cs),
(211,196,o),
(293,114,o),
(395,114,cs)
);
},
{
closed = 1;
nodes = (
(560,0,o),
(693,133,o),
(693,298,cs),
(693,463,o),
(560,596,o),
(395,596,cs),
(230,596,o),
(97,463,o),
(97,298,cs),
(97,133,o),
(230,0,o),
(395,0,cs)
);
},
{
closed = 1;
nodes = (
(451,596,o),
(497,642,o),
(497,698,cs),
(497,754,o),
(451,800,o),
(395,800,cs),
(339,800,o),
(293,754,o),
(293,698,cs),
(293,642,o),
(339,596,o),
(395,596,cs)
);
},
{
closed = 1;
nodes = (
(514,482,o),
(611,579,o),
(611,698,cs),
(611,817,o),
(514,914,o),
(395,914,cs),
(276,914,o),
(179,817,o),
(179,698,cs),
(179,579,o),
(276,482,o),
(395,482,cs)
);
}
);
};
guides = (
{
angle = 180;
pos = (415,578);
},
{
angle = -104.036;
pos = (102,300);
},
{
angle = -104.036;
pos = (288,300);
}
);
layerId = "5ACC057E-9D2C-45A0-8610-B9302B4AC058";
shapes = (
{
closed = 1;
nodes = (
(213,0,l),
(438,900,l),
(252,900,l),
(27,0,l)
);
}
);
width = 390;
},
{
anchors = (
{
name = bottom;
pos = (135,0);
},
{
name = ogonek;
pos = (135,0);
},
{
name = top;
pos = (359,900);
},
{
name = topleft;
pos = (157,900);
}
);
layerId = "5435BF97-BB07-4B92-90A3-3494A24C81AC";
shapes = (
{
closed = 1;
nodes = (
(285,0,l),
(509,900,l),
(209,900,l),
(-15,0,l)
);
}
);
width = 420;
}
);
unicode = 73;
},
{
color = 3;
glyphname = Iogonek;
kernLeft = B;
kernRight = H;
lastChange = "2024-02-24 10:03:54 +0000";
layers = (
{
layerId = "FCF05EF6-3D3F-478B-BA59-24992C4C44E9";
shapes = (
{
closed = 1;
nodes = (
(132,-246,l),
(79,-238,o),
(49,-209,o),
(49,-165,cs),
(49,-117,o),
(82,-60,o),
(142,0,c),
(367,900,l),
(323,900,l),
(98,0,l),
(41,-53,o),
(7,-119,o),
(7,-171,cs),
(7,-230,o),
(48,-274,o),
(113,-282,c)
);
}
);
width = 390;
},
{
background = {
shapes = (
{
closed = 1;
nodes = (
(252,0,l),
(252,900,l),
(138,900,l),
(138,0,l)
);
},
{
closed = 1;
nodes = (
(259,-312,o),
(298,-299,o),
(326,-277,c),
(302,-180,l),
(287,-205,o),
(264,-228,o),
(224,-228,cs),
(179,-228,o),
(157,-198,o),
(157,-162,cs),
(157,-137,o),
(166,-117,o),
(185,-86,cs),
(203,-57,o),
(227,-29,o),
(252,0,c),
(138,0,l),
(111,-34,ls),
(71,-84,o),
(55,-122,o),
(55,-164,cs),
(55,-253,o),
(129,-312,o),
(216,-312,cs)
);
}
);
};
layerId = "DB28B65E-4CBC-4F12-8216-7B4F2F083639";
shapes = (
{
closed = 1;
nodes = (
(143,-219,l),
(104,-214,o),
(76,-198,o),
(76,-154,cs),
(76,-97,o),
(128,-43,o),
(177,0,c),
(402,900,l),
(288,900,l),
(63,0,l),
(8,-47,o),
(-28,-115,o),
(-28,-178,cs),
(-28,-254,o),
(29,-304,o),
(99,-312,c)
);
}
);
width = 390;
},
{
background = {
shapes = (
{
closed = 1;
nodes = (
(252,0,l),
(252,900,l),
(138,900,l),
(138,0,l)
);
},
{
closed = 1;
nodes = (
(259,-312,o),
(298,-299,o),
(326,-277,c),
(302,-180,l),
(287,-205,o),
(264,-228,o),
(224,-228,cs),
(179,-228,o),
(157,-198,o),
(157,-162,cs),
(157,-137,o),
(166,-117,o),
(185,-86,cs),
(203,-57,o),
(227,-29,o),
(252,0,c),
(138,0,l),
(111,-34,ls),
(71,-84,o),
(55,-122,o),
(55,-164,cs),
(55,-253,o),
(129,-312,o),
(216,-312,cs)
);
}
);
};
layerId = "5ACC057E-9D2C-45A0-8610-B9302B4AC058";
shapes = (
{
closed = 1;
nodes = (
(168,-195,l),
(131,-190,o),
(104,-170,o),
(104,-135,cs),
(104,-83,o),
(148,-47,o),
(213,0,c),
(438,900,l),
(252,900,l),
(27,0,l),
(-20,-51,o),
(-54,-108,o),
(-54,-176,cs),
(-54,-259,o),
(12,-306,o),
(108,-318,c)
);
}
);
width = 390;
},
{
layerId = "5435BF97-BB07-4B92-90A3-3494A24C81AC";
shapes = (
{
closed = 1;
nodes = (
(244,-124,l),
(209,-122,o),
(189,-106,o),
(189,-83,cs),
(189,-45,o),
(235,-16,o),
(285,0,c),
(509,900,l),
(209,900,l),
(-15,0,l),
(-45,-34,o),
(-87,-88,o),
(-87,-144,cs),
(-87,-229,o),
(2,-290,o),
(164,-290,c)
);
}
);
width = 420;
}
);
unicode = 302;
},
{
color = 3;
glyphname = J;
kernLeft = J;
kernRight = J;
lastChange = "2024-02-25 17:52:30 +0000";
layers = (
{
anchors = (
{
name = bottom;
pos = (114,0);
},
{
name = top;
pos = (538,900);
}
);
background = {
shapes = (
{
closed = 1;
nodes = (
(246,-12,o),
(356,84,o),
(394,236,cs),
(560,900,l),
(516,900,l),
(351,239,ls),
(317,104,o),
(234,28,o),
(119,28,cs),
(55,28,o),
(10,52,o),
(-13,100,c),
(-39,50,l),
(-9,10,o),
(45,-12,o),
(109,-12,cs)
);
}
);
};
guides = (
{
angle = -104.036;
pos = (366,300);
},
{
angle = -104.036;
pos = (410,300);
}
);
layerId = "FCF05EF6-3D3F-478B-BA59-24992C4C44E9";
shapes = (
{
closed = 1;
nodes = (
(261,-12,o),
(355,79,o),
(389,216,cs),
(560,900,l),
(516,900,l),
(350,235,ls),
(316,99,o),
(245,28,o),
(140,28,cs),
(71,28,o),
(16,59,o),
(-8,110,c),
(-32,63,l),
(6,12,o),
(77,-12,o),
(139,-12,cs)
);
}
);
width = 520;
},
{
anchors = (
{
name = bottom;
pos = (195,0);
},
{
name = top;
pos = (525,900);
}
);
background = {
shapes = (
{
closed = 1;
nodes = (
(241,-12,o),
(374,68,o),
(419,247,cs),
(582,900,l),
(468,900,l),
(308,256,ls),
(277,133,o),
(206,90,o),
(136,90,cs),
(74,90,o),
(32,122,o),
(15,174,c),
(-48,54,l),
(-15,6,o),
(48,-12,o),
(112,-12,cs)
);
}
);
};
guides = (
{
angle = -104.036;
pos = (432,300);
}
);
layerId = "DB28B65E-4CBC-4F12-8216-7B4F2F083639";
shapes = (
{
closed = 1;
nodes = (
(258,-12,o),
(372,58,o),
(412,218,cs),
(582,900,l),
(468,900,l),
(304,241,ls),
(276,130,o),
(213,90,o),
(150,90,cs),
(85,90,o),
(32,129,o),
(13,193,c),
(-49,79,l),
(-10,14,o),
(75,-12,o),
(142,-12,cs)
);
}
);
width = 540;
},
{
anchors = (
{
name = bottom;
pos = (205,0);
},
{
name = top;
pos = (533,900);
}
);
background = {
shapes = (
{
closed = 1;
nodes = (
(264,-20,o),
(418,69,o),
(468,270,cs),
(626,900,l),
(440,900,l),
(285,283,ls),
(261,186,o),
(204,148,o),
(142,148,cs),
(90,148,o),
(54,174,o),
(37,214,c),
(-51,46,l),
(-17,1,o),
(50,-20,o),
(120,-20,cs)
);
}
);
};
guides = (
{
angle = -104.036;
pos = (476,300);
},
{
angle = -104.036;
pos = (12,300);
}
);
layerId = "5ACC057E-9D2C-45A0-8610-B9302B4AC058";
shapes = (
{
closed = 1;
nodes = (
(288,-20,o),
(415,59,o),
(460,238,cs),
(626,900,l),
(440,900,l),
(282,273,ls),
(260,187,o),
(213,148,o),
(157,148,cs),
(101,148,o),
(57,186,o),
(41,230,c),
(-46,71,l),
(0,0,o),
(101,-20,o),
(164,-20,cs)
);
}
);
width = 560;
},
{
anchors = (
{
name = bottom;
pos = (221,0);
},
{
name = top;
pos = (531,900);
}
);
background = {
shapes = (
{
closed = 1;
nodes = (
(319,-20,o),
(473,104,o),
(521,296,cs),
(672,900,l),
(378,900,l),
(237,334,ls),
(222,276,o),
(183,238,o),
(137,238,cs),
(103,238,o),
(77,253,o),
(64,282,c),
(-63,46,l),
(-27,4,o),
(43,-20,o),
(128,-20,cs)
);
}
);
};
layerId = "5435BF97-BB07-4B92-90A3-3494A24C81AC";
shapes = (
{
closed = 1;
nodes = (
(340,-20,o),
(468,86,o),
(511,256,cs),
(672,900,l),
(378,900,l),
(235,325,ls),
(222,272,o),
(188,239,o),
(146,239,cs),
(111,239,o),
(83,256,o),
(67,288,c),
(-56,61,l),
(-12,14,o),
(85,-20,o),
(174,-20,cs)
);
}
);
width = 580;
}
);
unicode = 74;
},
{
color = 3;
glyphname = K;
kernLeft = B;
kernRight = K;
lastChange = "2024-02-20 06:37:23 +0000";
layers = (
{
anchors = (
{
name = bottom;
pos = (343,0);
},
{
name = top;
pos = (497,900);
}
);
background = {
shapes = (
{
closed = 1;
nodes = (
(637,0,l),
(336,554,l),
(790,900,l),
(731,900,l),
(278,555,l),
(580,0,l)
);
},
{
closed = 1;
nodes = (
(105,0,l),
(327,900,l),
(283,900,l),
(61,0,l)
);
}
);
};
guides = (
{
angle = -61.9121;
pos = (651,0);
},
{
angle = 217.5222;
pos = (770,900);
},
{
angle = -104.036;
pos = (136,300);
},
{
angle = -104.036;
pos = (180,300);
},
{
angle = -104.036;
pos = (216,300);
}
);
layerId = "FCF05EF6-3D3F-478B-BA59-24992C4C44E9";
shapes = (
{
closed = 1;
nodes = (
(651,0,l),
(341,572,l),
(772,900,l),
(709,900,l),
(286,579,l),
(600,0,l)
);
},
{
closed = 1;
nodes = (
(105,0,l),
(330,900,l),
(286,900,l),
(61,0,l)
);
}
);
width = 740;
},
{
anchors = (
{
name = bottom;
pos = (363,0);
},
{
name = top;
pos = (517,900);
}
);
guides = (
{
angle = -104.036;
pos = (126,300);
},
{
angle = -104.036;
pos = (253,300);
}
);
layerId = "DB28B65E-4CBC-4F12-8216-7B4F2F083639";
shapes = (
{
closed = 1;
nodes = (
(700,0,l),
(450,563,l),
(833,900,l),
(689,900,l),
(323,579,l),
(577,0,l)
);
},
{
closed = 1;
nodes = (
(165,0,l),
(390,900,l),
(276,900,l),
(51,0,l)
);
}
);
width = 780;
},
{
anchors = (
{
name = bottom;
pos = (363,0);
},
{
name = top;
pos = (517,900);
}
);
background = {
shapes = (
{
closed = 1;
nodes = (
(531,464,l),
(893,900,l),
(683,900,l),
(527,710,ls),
(502,680,o),
(478,650,o),
(451,608,c),
(437,650,o),
(424,680,o),
(412,710,cs),
(337,900,l),
(149,900,l),
(313,501,l),
(-109,0,l),
(108,0,l),
(316,255,ls),
(341,285,o),
(365,315,o),
(392,357,c),
(407,315,o),
(420,284,o),
(432,254,cs),
(534,0,l),
(725,0,l)
);
}
);
};
guides = (
{
angle = -58.3579;
pos = (806,0);
},
{
angle = -59.7243;
pos = (443,278);
},
{
angle = -104.036;
pos = (96,300);
},
{
angle = -104.036;
pos = (265,300);
}
);
layerId = "5ACC057E-9D2C-45A0-8610-B9302B4AC058";
shapes = (
{
closed = 1;
nodes = (
(729,0,l),
(529,567,l),
(859,900,l),
(649,900,l),
(335,579,l),
(534,0,l)
);
},
{
closed = 1;
nodes = (
(201,0,l),
(426,900,l),
(246,900,l),
(21,0,l)
);
}
);
width = 800;
},
{
anchors = (
{
name = bottom;
pos = (393,0);
},
{
name = top;
pos = (577,900);
}
);
guides = (
{
angle = -59.4173;
pos = (320,555);
},
{
angle = 239.1585;
pos = (820,900);
},
{
angle = -104.036;
pos = (368,525);
}
);
layerId = "5435BF97-BB07-4B92-90A3-3494A24C81AC";
shapes = (
{
closed = 1;
nodes = (
(811,0,l),
(686,530,l),
(979,900,l),
(657,900,l),
(389,558,l),
(513,0,l)
);
},
{
closed = 1;
nodes = (
(273,0,l),
(497,900,l),
(209,900,l),
(-15,0,l)
);
}
);
width = 880;
}
);
unicode = 75;
},
{
color = 3;
glyphname = L;
kernLeft = B;
kernRight = L;
lastChange = "2024-02-24 16:54:30 +0000";
layers = (
{
anchors = (
{
name = bottom;
pos = (256,0);
},
{
name = center;
pos = (195,450);
},
{
name = periodcentered;
pos = (443,480);
},
{
name = top;
pos = (308,900);
},
{
name = topright;
pos = (402,900);
}
);
guides = (
{
angle = -104.036;
pos = (136,300);
},
{
angle = -104.036;
pos = (190,300);
}
);
layerId = "FCF05EF6-3D3F-478B-BA59-24992C4C44E9";
shapes = (
{
closed = 1;
nodes = (
(451,0,l),
(461,40,l),
(115,40,l),
(330,900,l),
(286,900,l),
(61,0,l)
);
}
);
width = 580;
},
{
anchors = (
{
name = bottom;
pos = (264,0);
},
{
name = center;
pos = (219,450);
},
{
name = periodcentered;
pos = (463,480);
},
{
name = top;
pos = (333,900);
},
{
name = topright;
pos = (432,900);
}
);
background = {
shapes = (
{
closed = 1;
nodes = (
(499,114,o),
(581,196,o),
(581,298,cs),
(581,400,o),
(499,482,o),
(397,482,cs),
(295,482,o),
(213,400,o),
(213,298,cs),
(213,196,o),
(295,114,o),
(397,114,cs)
);
},
{
closed = 1;
nodes = (
(562,0,o),
(695,133,o),
(695,298,cs),
(695,463,o),
(562,596,o),
(397,596,cs),
(232,596,o),
(99,463,o),
(99,298,cs),
(99,133,o),
(232,0,o),
(397,0,cs)
);
},
{
closed = 1;
nodes = (
(453,596,o),
(499,642,o),
(499,698,cs),
(499,754,o),
(453,800,o),
(397,800,cs),
(341,800,o),
(295,754,o),
(295,698,cs),
(295,642,o),
(341,596,o),
(397,596,cs)
);
},
{
closed = 1;
nodes = (
(516,482,o),
(613,579,o),
(613,698,cs),
(613,817,o),
(516,914,o),
(397,914,cs),
(278,914,o),
(181,817,o),
(181,698,cs),
(181,579,o),
(278,482,o),
(397,482,cs)
);
}
);
};
guides = (
{
angle = 180;
pos = (417,578);
},
{
angle = -104.036;
pos = (126,300);
},
{
angle = -104.036;
pos = (240,300);
}
);
layerId = "DB28B65E-4CBC-4F12-8216-7B4F2F083639";
shapes = (
{
closed = 1;
nodes = (
(477,0,l),
(502,102,l),
(190,102,l),
(390,900,l),
(276,900,l),
(51,0,l)
);
}
);
width = 600;
},
{
anchors = (
{
name = bottom;
pos = (264,0);
},
{
name = center;
pos = (219,450);
},
{
name = periodcentered;
pos = (463,480);
},
{
name = top;
pos = (339,900);
},
{
name = topright;
pos = (432,900);
}
);
background = {
shapes = (
{
closed = 1;
nodes = (
(499,114,o),
(581,196,o),
(581,298,cs),
(581,400,o),
(499,482,o),
(397,482,cs),
(295,482,o),
(213,400,o),
(213,298,cs),
(213,196,o),
(295,114,o),
(397,114,cs)
);
},
{
closed = 1;
nodes = (
(562,0,o),
(695,133,o),
(695,298,cs),
(695,463,o),
(562,596,o),
(397,596,cs),
(232,596,o),
(99,463,o),
(99,298,cs),
(99,133,o),
(232,0,o),
(397,0,cs)
);
},
{
closed = 1;
nodes = (
(453,596,o),
(499,642,o),
(499,698,cs),
(499,754,o),
(453,800,o),
(397,800,cs),
(341,800,o),
(295,754,o),
(295,698,cs),
(295,642,o),
(341,596,o),
(397,596,cs)
);
},
{
closed = 1;
nodes = (
(516,482,o),
(613,579,o),
(613,698,cs),
(613,817,o),
(516,914,o),
(397,914,cs),
(278,914,o),
(181,817,o),
(181,698,cs),
(181,579,o),
(278,482,o),
(397,482,cs)
);
}
);
};
guides = (
{
angle = -104.036;
pos = (96,300);
},
{
angle = -104.036;
pos = (282,300);
}
);
layerId = "5ACC057E-9D2C-45A0-8610-B9302B4AC058";
shapes = (
{
closed = 1;
nodes = (
(477,0,l),
(517,162,l),
(247,162,l),
(432,900,l),
(246,900,l),
(21,0,l)
);
}
);
width = 600;
},
{
anchors = (
{
name = bottom;
pos = (252,0);
},
{
name = center;
pos = (256,450);
},
{
name = periodcentered;
pos = (552,510);
},
{
name = top;
pos = (368,900);
},
{
name = topright;
pos = (514,900);
}
);
layerId = "5435BF97-BB07-4B92-90A3-3494A24C81AC";
shapes = (
{
closed = 1;
nodes = (
(519,0,l),
(582,252,l),
(354,252,l),
(515,900,l),
(209,900,l),
(-15,0,l)
);
}
);
width = 630;
}
);
unicode = 76;
},
{
color = 3;
glyphname = Lslash;
kernLeft = B;
kernRight = L;
lastChange = "2024-02-24 09:45:04 +0000";
layers = (
{
layerId = "FCF05EF6-3D3F-478B-BA59-24992C4C44E9";
shapes = (
{
closed = 1;
nodes = (
(481,0,l),
(491,40,l),
(145,40,l),
(245,440,l),
(546,610,l),
(531,644,l),
(257,490,l),
(360,900,l),
(316,900,l),
(206,461,l),
(38,366,l),
(53,332,l),
(194,411,l),
(91,0,l)
);
}
);
width = 610;
},
{
guides = (
{
pos = (182,600);
}
);
layerId = "DB28B65E-4CBC-4F12-8216-7B4F2F083639";
shapes = (
{
closed = 1;
nodes = (
(507,0,l),
(532,102,l),
(220,102,l),
(304,436,l),
(568,585,l),
(538,659,l),
(330,542,l),
(420,900,l),
(306,900,l),
(198,468,l),
(40,379,l),
(70,305,l),
(172,362,l),
(81,0,l)
);
}
);
width = 630;
},
{
guides = (
{
pos = (182,600);
}
);
layerId = "5ACC057E-9D2C-45A0-8610-B9302B4AC058";
shapes = (
{
closed = 1;
nodes = (
(507,0,l),
(547,162,l),
(277,162,l),
(347,441,l),
(578,554,l),
(544,664,l),
(383,585,l),
(462,900,l),
(276,900,l),
(171,482,l),
(31,413,l),
(65,303,l),
(135,337,l),
(51,0,l)
);
}
);
width = 630;
},
{
background = {
shapes = (
{
closed = 1;
nodes = (
(565,0,l),
(628,252,l),
(388,252,l),
(549,900,l),
(255,900,l),
(31,0,l)
);
},
{
closed = 1;
nodes = (
(650,483,l),
(605,629,l),
(12,463,l),
(58,317,l)
);
}
);
};
guides = (
{
angle = 114.053;
pos = (19,438);
},
{
angle = 195.4132;
pos = (319,548);
}
);
layerId = "5435BF97-BB07-4B92-90A3-3494A24C81AC";
shapes = (
{
closed = 1;
nodes = (
(565,0,l),
(628,252,l),
(388,252,l),
(430,421,l),
(650,483,l),
(605,629,l),
(472,592,l),
(549,900,l),
(255,900,l),
(156,503,l),
(12,463,l),
(58,317,l),
(114,333,l),
(31,0,l)
);
}
);
width = 680;
}
);
unicode = 321;
},
{
color = 3;
glyphname = M;
kernLeft = B;
kernRight = H;
lastChange = "2024-02-17 22:45:18 +0000";
layers = (
{
guides = (
{
angle = -104.036;
pos = (136,300);
},
{
angle = -104.036;
pos = (180,300);
},
{
pos = (405,600);
},
{
pos = (1116,954);
},
{
angle = 226.7899;
pos = (548,302);
}
);
layerId = "FCF05EF6-3D3F-478B-BA59-24992C4C44E9";
name = "Regular Italic";
shapes = (
{
closed = 1;
nodes = (
(103,0,l),
(248,570,ls),
(268,649,o),
(287,729,o),
(305,816,c),
(340,739,o),
(372,669,o),
(405,600,cs),
(542,315,l),
(811,600,ls),
(878,671,o),
(945,743,o),
(1012,816,c),
(989,731,o),
(970,650,o),
(950,570,cs),
(805,0,l),
(849,0,l),
(1087,951,l),
(1085,951,l),
(554,387,l),
(296,930,l),
(294,930,l),
(61,0,l)
);
}
);
width = 1060;
},
{
background = {
shapes = (
{
closed = 1;
nodes = (
(228,0,l),
(228,674,l),
(120,948,l),
(120,0,l)
);
},
{
closed = 1;
nodes = (
(581,312,l),
(120,948,l),
(143,719,l),
(540,171,l)
);
},
{
closed = 1;
nodes = (
(540,171,l),
(929,720,l),
(960,948,l),
(508,312,l)
);
},
{
closed = 1;
nodes = (
(960,0,l),
(960,948,l),
(845,688,l),
(845,0,l)
);
}
);
};
guides = (
{
angle = -104.036;
pos = (126,300);
},
{
angle = -104.036;
pos = (234,300);
},
{
angle = -104.036;
pos = (840,300);
},
{
angle = -104.036;
pos = (954,300);
},
{
pos = (1116,954);
}
);
layerId = "DB28B65E-4CBC-4F12-8216-7B4F2F083639";
name = "Regular Italic";
shapes = (
{
closed = 1;
nodes = (
(159,0,l),
(257,392,ls),
(272,451,o),
(289,521,o),
(302,616,c),
(330,530,o),
(358,470,o),
(382,419,cs),
(503,168,l),
(788,467,ls),
(827,508,o),
(872,554,o),
(924,616,c),
(901,545,o),
(887,489,o),
(875,440,cs),
(765,0,l),
(879,0,l),
(1116,954,l),
(1114,954,l),
(542,353,l),
(278,906,l),
(276,906,l),
(51,0,l)
);
}
);
width = 1080;
},
{
background = {
shapes = (
{
closed = 1;
nodes = (
(214,0,l),
(214,416,ls),
(214,470,o),
(214,533,o),
(206,616,c),
(249,542,o),
(287,489,o),
(320,443,cs),
(520,168,l),
(714,443,ls),
(746,489,o),
(786,542,o),
(828,616,c),
(820,533,o),
(820,470,o),
(820,416,cs),
(820,0,l),
(934,0,l),
(934,930,l),
(524,354,l),
(106,930,l),
(106,0,l)
);
}
);
};
guides = (
{
angle = -104.036;
pos = (96,300);
},
{
angle = -104.036;
pos = (264,300);
},
{
angle = -104.036;
pos = (770,300);
},
{
angle = -104.036;
pos = (944,300);
}
);
layerId = "5ACC057E-9D2C-45A0-8610-B9302B4AC058";
shapes = (
{
closed = 1;
nodes = (
(189,0,l),
(248,234,ls),
(265,300,o),
(286,378,o),
(298,487,c),
(321,414,o),
(359,345,o),
(382,299,cs),
(470,125,l),
(695,347,ls),
(733,385,o),
(776,426,o),
(824,487,c),
(797,400,o),
(780,336,o),
(766,282,cs),
(695,0,l),
(869,0,l),
(1107,954,l),
(1105,954,l),
(532,397,l),
(249,906,l),
(247,906,l),
(21,0,l)
);
}
);
width = 1040;
},
{
background = {
shapes = (
{
closed = 1;
nodes = (
(301,0,l),
(301,101,ls),
(301,160,o),
(301,234,o),
(286,342,c),
(320,284,o),
(368,224,o),
(394,194,cs),
(510,56,l),
(620,194,ls),
(648,229,o),
(684,268,o),
(722,336,c),
(708,231,o),
(708,158,o),
(708,101,cs),
(708,0,l),
(944,0,l),
(944,930,l),
(513,423,l),
(71,930,l),
(71,0,l)
);
}
);
};
guides = (
{
angle = -54.0503;
pos = (534,105);
},
{
angle = 54.05;
pos = (540,484);
}
);
layerId = "5435BF97-BB07-4B92-90A3-3494A24C81AC";
shapes = (
{
closed = 1;
nodes = (
(271,0,l),
(301,122,ls),
(316,182,o),
(334,253,o),
(346,340,c),
(372,276,o),
(398,225,o),
(420,187,cs),
(480,85,l),
(590,187,ls),
(632,226,o),
(684,276,o),
(742,340,c),
(710,253,o),
(692,182,o),
(677,122,cs),
(647,0,l),
(945,0,l),
(1169,900,l),
(977,900,l),
(573,484,l),
(377,900,l),
(209,900,l),
(-15,0,l)
);
}
);
width = 1080;
},
{
associatedMasterId = "5435BF97-BB07-4B92-90A3-3494A24C81AC";
background = {
shapes = (
{
closed = 1;
nodes = (
(301,0,l),
(301,101,ls),
(301,160,o),
(301,234,o),
(286,342,c),
(320,284,o),
(368,224,o),
(394,194,cs),
(510,56,l),
(620,194,ls),
(648,229,o),
(684,268,o),
(722,336,c),
(708,231,o),
(708,158,o),
(708,101,cs),
(708,0,l),
(944,0,l),
(944,930,l),
(513,423,l),
(71,930,l),
(71,0,l)
);
}
);
};
guides = (
{
angle = 133.0209;
pos = (310,731);
}
);
hints = (
{
horizontal = 1;
place = (0, 21);
target = up;
type = BottomGhost;
},
{
horizontal = 1;
place = (930, -20);
target = down;
type = TopGhost;
}
);
layerId = "C0242D5D-4A13-4003-BEEA-9D0A5D3462CF";
name = "4 Jan 24, 15:51";
shapes = (
{
closed = 1;
nodes = (
(333,0,l),
(333,162,ls),
(333,222,o),
(333,293,o),
(322,380,c),
(367,316,o),
(409,265,o),
(443,227,cs),
(534,125,l),
(625,227,ls),
(659,265,o),
(701,316,o),
(746,380,c),
(735,293,o),
(735,222,o),
(735,162,cs),
(735,0,l),
(1005,0,l),
(1005,978,l),
(1001,978,l),
(540,484,l),
(79,978,l),
(75,978,l),
(75,0,l)
);
}
);
width = 1080;
}
);
unicode = 77;
},
{
color = 3;
glyphname = N;
kernLeft = B;
kernRight = H;
lastChange = "2024-02-17 22:45:18 +0000";
layers = (
{
anchors = (
{
name = bottom;
pos = (410,0);
},
{
name = top;
pos = (635,900);
}
);
guides = (
{
angle = -104.036;
pos = (136,300);
},
{
angle = -104.036;
pos = (178,300);
},
{
angle = -104.036;
pos = (793,300);
},
{
angle = -104.036;
pos = (835,300);
}
);
layerId = "FCF05EF6-3D3F-478B-BA59-24992C4C44E9";
shapes = (
{
closed = 1;
nodes = (
(752,-30,l),
(985,900,l),
(943,900,l),
(740,87,l),
(296,930,l),
(294,930,l),
(61,0,l),
(103,0,l),
(307,813,l),
(750,-30,l)
);
}
);
width = 970;
},
{
anchors = (
{
name = bottom;
pos = (480,60);
},
{
name = top;
pos = (585,840);
}
);
background = {
shapes = (
{
closed = 1;
nodes = (
(237,0,l),
(237,948,l),
(129,948,l),
(129,0,l)
);
},
{
closed = 1;
nodes = (
(1025,-34,l),
(129,948,l),
(-26,948,l),
(871,-34,l)
);
},
{
closed = 1;
nodes = (
(871,-34,l),
(871,914,l),
(763,914,l),
(763,-34,l)
);
}
);
};
guides = (
{
angle = -104.036;
pos = (126,300);
},
{
angle = -104.036;
pos = (234,300);
},
{
angle = -56.651;
pos = (782,-30);
},
{
angle = 123.349;
pos = (283,930);
}
);
layerId = "DB28B65E-4CBC-4F12-8216-7B4F2F083639";
shapes = (
{
closed = 1;
nodes = (
(782,-30,l),
(1014,900,l),
(906,900,l),
(740,236,l),
(285,930,l),
(283,930,l),
(51,0,l),
(159,0,l),
(325,664,l),
(780,-30,l)
);
}
);
width = 990;
},
{
anchors = (
{
name = bottom;
pos = (450,60);
},
{
name = top;
pos = (525,840);
}
);
background = {
shapes = (
{
closed = 1;
nodes = (
(204,0,l),
(204,645,l),
(834,-30,l),
(834,900,l),
(726,900,l),
(726,255,l),
(96,930,l),
(96,0,l)
);
}
);
};
guides = (
{
angle = -104.036;
pos = (96,300);
},
{
angle = -104.036;
pos = (954,900);
},
{
angle = -104.036;
pos = (786,900);
},
{
angle = -104.036;
pos = (264,300);
},
{
angle = -55.004;
pos = (722,-30);
},
{
angle = 125.044;
pos = (253,930);
}
);
layerId = "5ACC057E-9D2C-45A0-8610-B9302B4AC058";
shapes = (
{
closed = 1;
nodes = (
(722,-30,l),
(954,900,l),
(786,900,l),
(653,365,l),
(255,930,l),
(253,930,l),
(21,0,l),
(189,0,l),
(322,536,l),
(720,-30,l)
);
}
);
width = 900;
},
{
anchors = (
{
name = bottom;
pos = (452,30);
},
{
name = top;
pos = (572,870);
}
);
guides = (
{
angle = 133.0251;
pos = (578,521);
}
);
layerId = "5435BF97-BB07-4B92-90A3-3494A24C81AC";
shapes = (
{
closed = 1;
nodes = (
(785,0,l),
(1009,900,l),
(727,900,l),
(628,500,l),
(371,900,l),
(209,900,l),
(-15,0,l),
(267,0,l),
(367,402,l),
(623,0,l)
);
}
);
width = 920;
},
{
anchors = (
{
name = bottom;
pos = (568,105);
},
{
name = top;
pos = (410,825);
}
);
associatedMasterId = "5435BF97-BB07-4B92-90A3-3494A24C81AC";
hints = (
{
horizontal = 1;
origin = (0,6);
target = up;
type = BottomGhost;
},
{
horizontal = 1;
origin = (0,2);
target = down;
type = TopGhost;
},
{
origin = (0,6);
target = (0,7);
type = Stem;
},
{
origin = (0,3);
target = (0,2);
type = Stem;
},
{
horizontal = 1;
origin = (0,9);
target = up;
type = BottomGhost;
},
{
horizontal = 1;
origin = (0,5);
target = down;
type = TopGhost;
}
);
layerId = "3E33C651-1CA0-451B-8F80-62CCE95DD097";
name = "4 Jan 24, 15:51";
shapes = (
{
closed = 1;
nodes = (
(825,-48,l),
(825,900,l),
(567,900,l),
(567,521,l),
(79,948,l),
(75,948,l),
(75,0,l),
(333,0,l),
(333,381,l),
(821,-48,l)
);
}
);
width = 900;
}
);
unicode = 78;
},
{
color = 3;
glyphname = Eng;
kernLeft = B;
kernRight = H;
lastChange = "2024-02-24 10:04:00 +0000";
layers = (
{
anchors = (
{
name = bottom;
pos = (410,0);
},
{
name = top;
pos = (635,900);
}
);
guides = (
{
angle = -56.136;
pos = (307,813);
},
{
angle = -104.036;
pos = (136,300);
},
{
angle = -104.036;
pos = (178,300);
}
);
layerId = "FCF05EF6-3D3F-478B-BA59-24992C4C44E9";
shapes = (
{
closed = 1;
nodes = (
(641,-192,o),
(735,-101,o),
(769,36,cs),
(985,900,l),
(943,900,l),
(754,147,l),
(296,930,l),
(294,930,l),
(61,0,l),
(103,0,l),
(308,821,l),
(740,89,l),
(732,55,ls),
(700,-81,o),
(625,-152,o),
(520,-152,cs),
(451,-152,o),
(396,-121,o),
(372,-70,c),
(348,-117,l),
(386,-168,o),
(457,-192,o),
(519,-192,cs)
);
}
);
width = 970;
},
{
anchors = (
{
name = bottom;
pos = (420,0);
},
{
name = top;
pos = (642,900);
}
);
background = {
shapes = (
{
closed = 1;
nodes = (
(630,-192,o),
(760,-114,o),
(804,61,cs),
(1014,900,l),
(906,900,l),
(744,255,l),
(283,930,l),
(51,0,l),
(159,0,l),
(321,645,l),
(702,86,l),
(700,76,ls),
(675,-48,o),
(598,-90,o),
(528,-90,cs),
(466,-90,o),
(424,-58,o),
(407,-6,c),
(344,-126,l),
(377,-174,o),
(440,-192,o),
(504,-192,cs)
);
}
);
};
guides = (
{
angle = -104.036;
pos = (126,300);
},
{
angle = -104.036;
pos = (864,300);
}
);
layerId = "DB28B65E-4CBC-4F12-8216-7B4F2F083639";
shapes = (
{
closed = 1;
nodes = (
(648,-192,o),
(759,-122,o),
(799,38,cs),
(1014,900,l),
(906,900,l),
(740,236,l),
(285,930,l),
(283,930,l),
(51,0,l),
(159,0,l),
(325,664,l),
(704,89,l),
(697,61,ls),
(670,-49,o),
(606,-90,o),
(546,-90,cs),
(487,-90,o),
(434,-51,o),
(415,13,c),
(353,-101,l),
(392,-166,o),
(474,-192,o),
(535,-192,cs)
);
}
);
width = 990;
},
{
anchors = (
{
name = bottom;
pos = (420,0);
},
{
name = top;
pos = (645,900);
}
);
background = {
shapes = (
{
closed = 1;
nodes = (
(556,-200,o),
(700,-117,o),
(747,71,cs),
(954,900,l),
(786,900,l),
(656,372,l),
(253,930,l),
(21,0,l),
(189,0,l),
(316,503,l),
(590,118,l),
(586,103,ls),
(560,7,o),
(505,-32,o),
(443,-32,cs),
(391,-32,o),
(355,-6,o),
(339,34,c),
(250,-134,l),
(284,-179,o),
(351,-200,o),
(421,-200,cs)
);
}
);
};
guides = (
{
angle = -104.036;
pos = (96,300);
},
{
angle = -104.036;
pos = (804,300);
}
);
layerId = "5ACC057E-9D2C-45A0-8610-B9302B4AC058";
shapes = (
{
closed = 1;
nodes = (
(564,-200,o),
(699,-121,o),
(744,58,cs),
(954,900,l),
(786,900,l),
(653,365,l),
(255,930,l),
(253,930,l),
(21,0,l),
(189,0,l),
(322,536,l),
(597,146,l),
(584,93,ls),
(563,7,o),
(515,-32,o),
(459,-32,cs),
(403,-32,o),
(359,6,o),
(343,50,c),
(256,-109,l),
(297,-173,o),
(385,-200,o),
(458,-200,cs)
);
}
);
width = 900;
},
{
anchors = (
{
name = bottom;
pos = (385,0);
},
{
name = top;
pos = (609,900);
}
);
background = {
shapes = (
{
closed = 1;
nodes = (
(617,-200,o),
(764,-81,o),
(811,104,cs),
(1009,900,l),
(727,900,l),
(633,521,l),
(371,900,l),
(209,900,l),
(-15,0,l),
(267,0,l),
(362,381,l),
(533,130,l),
(532,124,ls),
(522,85,o),
(485,58,o),
(449,58,cs),
(409,58,o),
(388,73,o),
(374,102,c),
(247,-134,l),
(284,-176,o),
(348,-200,o),
(433,-200,cs)
);
}
);
};
layerId = "5435BF97-BB07-4B92-90A3-3494A24C81AC";
shapes = (
{
closed = 1;
nodes = (
(634,-200,o),
(762,-92,o),
(804,76,cs),
(1009,900,l),
(727,900,l),
(633,521,l),
(371,900,l),
(209,900,l),
(-15,0,l),
(267,0,l),
(362,381,l),
(533,130,l),
(532,124,ls),
(525,85,o),
(493,58,o),
(453,58,cs),
(423,58,o),
(394,73,o),
(374,101,c),
(252,-125,l),
(298,-169,o),
(390,-200,o),
(475,-200,cs)
);
}
);
width = 920;
}
);
unicode = 330;
},
{
color = 3;
glyphname = O;
kernLeft = C;
kernRight = D;
lastChange = "2024-03-04 21:59:56 +0000";
layers = (
{
anchors = (
{
name = bottom;
pos = (445,0);
},
{
name = center;
pos = (556,450);
},
{
name = ogonek;
pos = (489,0);
},
{
name = top;
pos = (667,900);
},
{
name = "top-vertical";
pos = (579,540);
},
{
name = topleft;
pos = (197,900);
},
{
name = topright;
pos = (944,900);
}
);
guides = (
{
angle = -104.036;
pos = (66,300);
},
{
angle = -104.036;
pos = (974,300);
}
);
layerId = "FCF05EF6-3D3F-478B-BA59-24992C4C44E9";
shapes = (
{
closed = 1;
nodes = (
(765,-12,o),
(1011,235,o),
(1011,506,cs),
(1011,736,o),
(835,912,o),
(613,912,cs),
(349,912,o),
(104,665,o),
(104,395,cs),
(104,165,o),
(280,-12,o),
(503,-12,cs)
);
},
{
closed = 1;
nodes = (
(305,30,o),
(150,186,o),
(150,394,cs),
(150,643,o),
(372,870,o),
(610,870,cs),
(808,870,o),
(965,712,o),
(965,504,cs),
(965,256,o),
(742,30,o),
(505,30,cs)
);
}
);
width = 1040;
},
{
anchors = (
{
name = bottom;
pos = (456,0);
},
{
name = center;
pos = (567,450);
},
{
name = ogonek;
pos = (486,0);
},
{
name = top;
pos = (678,900);
},
{
name = "top-vertical";
pos = (582,510);
},
{
name = topleft;
pos = (208,900);
},
{
name = topright;
pos = (1148,900);
}
);
background = {
shapes = (
{
closed = 1;
nodes = (
(712,-18,o),
(973,191,o),
(1037,450,cs),
(1101,709,o),
(942,918,o),
(682,918,cs),
(422,918,o),
(161,709,o),
(97,450,cs),
(33,191,o),
(192,-18,o),
(452,-18,cs)
);
},
{
closed = 1;
nodes = (
(280,90,o),
(166,251,o),
(215,450,cs),
(264,649,o),
(458,810,o),
(656,810,cs),
(854,810,o),
(968,649,o),
(919,450,cs),
(870,251,o),
(676,90,o),
(478,90,cs)
);
}
);
};
guides = (
{
angle = -104.036;
pos = (60,300);
},
{
angle = -104.036;
pos = (1000,300);
}
);
layerId = "DB28B65E-4CBC-4F12-8216-7B4F2F083639";
shapes = (
{
closed = 1;
nodes = (
(787,-18,o),
(1036,231,o),
(1036,505,cs),
(1036,738,o),
(856,918,o),
(622,918,cs),
(347,918,o),
(98,669,o),
(98,395,cs),
(98,162,o),
(278,-18,o),
(512,-18,cs)
);
},
{
closed = 1;
nodes = (
(349,90,o),
(216,225,o),
(216,403,cs),
(216,616,o),
(404,810,o),
(611,810,cs),
(785,810,o),
(918,675,o),
(918,497,cs),
(918,284,o),
(730,90,o),
(523,90,cs)
);
}
);
width = 1060;
},
{
anchors = (
{
name = bottom;
pos = (457,0);
},
{
name = center;
pos = (568,450);
},
{
name = ogonek;
pos = (487,0);
},
{
name = top;
pos = (679,900);
},
{
name = "top-vertical";
pos = (575,480);
},
{
name = topleft;
pos = (209,900);
},
{
name = topright;
pos = (1149,900);
}
);
background = {
shapes = (
{
closed = 1;
nodes = (
(716,-18,o),
(980,191,o),
(1044,450,cs),
(1108,709,o),
(946,918,o),
(683,918,cs),
(420,918,o),
(156,709,o),
(92,450,cs),
(28,191,o),
(190,-18,o),
(453,-18,cs)
);
},
{
closed = 1;
nodes = (
(334,156,o),
(240,287,o),
(280,450,cs),
(320,613,o),
(478,744,o),
(640,744,cs),
(802,744,o),
(896,613,o),
(856,450,cs),
(816,287,o),
(658,156,o),
(496,156,cs)
);
}
);
};
guides = (
{
angle = -104.036;
pos = (54,300);
},
{
angle = -104.036;
pos = (1006,300);
}
);
layerId = "5ACC057E-9D2C-45A0-8610-B9302B4AC058";
shapes = (
{
closed = 1;
nodes = (
(793,-18,o),
(1042,230,o),
(1042,503,cs),
(1042,736,o),
(860,918,o),
(621,918,cs),
(342,918,o),
(92,670,o),
(92,396,cs),
(92,163,o),
(274,-18,o),
(513,-18,cs)
);
},
{
closed = 1;
nodes = (
(391,156,o),
(282,268,o),
(282,413,cs),
(282,586,o),
(433,744,o),
(602,744,cs),
(745,744,o),
(852,634,o),
(852,489,cs),
(852,315,o),
(702,156,o),
(533,156,cs)
);
}
);
width = 1060;
},
{
anchors = (
{
name = bottom;
pos = (445,0);
},
{
name = center;
pos = (557,450);
},
{
name = ogonek;
pos = (507,0);
},
{
name = top;
pos = (669,900);
},
{
name = "top-vertical";
pos = (557,450);
},
{
name = topleft;
pos = (199,900);
},
{
name = topright;
pos = (1139,900);
}
);
background = {
shapes = (
{
closed = 1;
nodes = (
(710,-20,o),
(974,189,o),
(1039,450,cs),
(1104,710,o),
(944,920,o),
(674,920,cs),
(404,920,o),
(140,710,o),
(75,450,cs),
(10,189,o),
(170,-20,o),
(440,-20,cs)
);
},
{
closed = 1;
nodes = (
(409,268,o),
(348,350,o),
(373,450,cs),
(398,550,o),
(499,632,o),
(602,632,cs),
(705,632,o),
(766,550,o),
(741,450,cs),
(716,350,o),
(615,268,o),
(512,268,cs)
);
}
);
};
guides = (
{
angle = -104.036;
pos = (38,300);
},
{
angle = -104.036;
pos = (1002,300);
},
{
angle = -104.036;
pos = (336,300);
}
);
layerId = "5435BF97-BB07-4B92-90A3-3494A24C81AC";
shapes = (
{
closed = 1;
nodes = (
(790,-17,o),
(1038,226,o),
(1038,503,cs),
(1038,741,o),
(856,917,o),
(612,917,cs),
(326,917,o),
(77,675,o),
(77,397,cs),
(77,159,o),
(260,-17,o),
(504,-17,cs)
);
},
{
closed = 1;
nodes = (
(443,268,o),
(373,336,o),
(373,428,cs),
(373,536,o),
(469,632,o),
(578,632,cs),
(672,632,o),
(742,564,o),
(742,472,cs),
(742,364,o),
(645,268,o),
(537,268,cs)
);
}
);
width = 1040;
}
);
unicode = 79;
},
{
color = 3;
glyphname = Ohorn;
kernLeft = C;
kernRight = Ohorn;
lastChange = "2024-02-26 20:34:25 +0000";
layers = (
{
anchors = (
{
name = bottom;
pos = (445,0);
},
{
name = top;
pos = (670,900);
}
);
layerId = "FCF05EF6-3D3F-478B-BA59-24992C4C44E9";
shapes = (
{
closed = 1;
nodes = (
(765,-12,o),
(1011,235,o),
(1011,506,cs),
(1011,586,o),
(990,659,o),
(953,721,c),
(1033,732,o),
(1095,810,o),
(1095,909,cs),
(1095,927,o),
(1093,944,o),
(1089,960,c),
(1048,960,l),
(1054,943,o),
(1057,927,o),
(1057,908,cs),
(1057,824,o),
(1001,756,o),
(930,755,c),
(858,851,o),
(743,912,o),
(613,912,cs),
(349,912,o),
(104,665,o),
(104,395,cs),
(104,165,o),
(280,-12,o),
(503,-12,cs)
);
},
{
closed = 1;
nodes = (
(305,30,o),
(150,186,o),
(150,394,cs),
(150,643,o),
(372,870,o),
(610,870,cs),
(808,870,o),
(965,712,o),
(965,504,cs),
(965,256,o),
(742,30,o),
(505,30,cs)
);
}
);
width = 1040;
},
{
anchors = (
{
name = bottom;
pos = (455,0);
},
{
name = top;
pos = (680,900);
}
);
guides = (
{
angle = -104.036;
pos = (60,300);
},
{
angle = -104.036;
pos = (1000,300);
}
);
hints = (
{
horizontal = 1;
place = (-18, 108);
place = (-18, 108);
type = Stem;
},
{
horizontal = 1;
origin = (0,12);
target = (0,18);
type = Stem;
},
{
place = (97, 118);
place = (97, 118);
type = Stem;
},
{
origin = (0,18);
target = (0,15);
type = Stem;
}
);
layerId = "DB28B65E-4CBC-4F12-8216-7B4F2F083639";
shapes = (
{
closed = 1;
nodes = (
(787,-18,o),
(1036,231,o),
(1036,505,cs),
(1036,577,o),
(1019,644,o),
(988,702,c),
(1080,722,o),
(1152,819,o),
(1152,914,cs),
(1152,929,o),
(1150,944,o),
(1144,960,c),
(1048,960,l),
(1053,944,o),
(1055,927,o),
(1055,912,cs),
(1055,856,o),
(1025,781,o),
(938,776,c),
(863,864,o),
(750,918,o),
(622,918,cs),
(347,918,o),
(98,669,o),
(98,395,cs),
(98,162,o),
(278,-18,o),
(512,-18,cs)
);
},
{
closed = 1;
nodes = (
(349,90,o),
(216,225,o),
(216,403,cs),
(216,616,o),
(404,810,o),
(611,810,cs),
(785,810,o),
(918,675,o),
(918,497,cs),
(918,284,o),
(730,90,o),
(523,90,cs)
);
}
);
width = 1060;
},
{
anchors = (
{
name = bottom;
pos = (456,0);
},
{
name = top;
pos = (678,900);
}
);
guides = (
{
angle = 90;
pos = (941,450);
},
{
angle = -73.0447;
pos = (819,780);
},
{
angle = -104.036;
pos = (54,300);
}
);
hints = (
{
horizontal = 1;
origin = (0,27);
target = (1,11);
type = Stem;
},
{
horizontal = 1;
origin = (0,21);
target = (1,5);
type = Stem;
},
{
origin = (0,24);
target = (1,2);
type = Stem;
},
{
origin = (1,8);
target = (0,2);
type = Stem;
}
);
layerId = "5ACC057E-9D2C-45A0-8610-B9302B4AC058";
shapes = (
{
closed = 1;
nodes = (
(793,-18,o),
(1042,230,o),
(1042,503,cs),
(1042,569,o),
(1027,632,o),
(1000,687,c),
(1114,715,o),
(1176,825,o),
(1176,914,cs),
(1176,929,o),
(1174,944,o),
(1168,960,c),
(1012,960,l),
(1017,944,o),
(1019,927,o),
(1019,912,cs),
(1019,868,o),
(1002,806,o),
(934,784,c),
(858,867,o),
(748,918,o),
(621,918,cs),
(342,918,o),
(92,670,o),
(92,396,cs),
(92,163,o),
(274,-18,o),
(513,-18,cs)
);
},
{
closed = 1;
nodes = (
(391,156,o),
(282,268,o),
(282,413,cs),
(282,586,o),
(433,744,o),
(602,744,cs),
(745,744,o),
(852,634,o),
(852,489,cs),
(852,315,o),
(702,156,o),
(533,156,cs)
);
}
);
width = 1060;
},
{
anchors = (
{
name = bottom;
pos = (449,0);
},
{
name = top;
pos = (673,900);
}
);
background = {
anchors = (
{
name = bottom;
pos = (449,0);
},
{
name = top;
pos = (673,900);
}
);
shapes = (
{
closed = 1;
nodes = (
(711,-20,o),
(975,189,o),
(1040,450,cs),
(1060,531,o),
(1059,607,o),
(1039,673,c),
(1109,701,o),
(1167,765,o),
(1189,853,cs),
(1200,898,o),
(1202,928,o),
(1191,960,c),
(994,960,l),
(1004,927,o),
(1000,891,o),
(994,868,cs),
(987,840,o),
(970,823,o),
(953,816,c),
(887,881,o),
(791,920,o),
(675,920,cs),
(405,920,o),
(141,710,o),
(76,450,cs),
(11,189,o),
(171,-20,o),
(441,-20,cs)
);
},
{
closed = 1;
nodes = (
(410,268,o),
(349,350,o),
(374,450,cs),
(399,550,o),
(500,632,o),
(603,632,cs),
(706,632,o),
(767,550,o),
(742,450,cs),
(717,350,o),
(616,268,o),
(513,268,cs)
);
}
);
};
layerId = "5435BF97-BB07-4B92-90A3-3494A24C81AC";
shapes = (
{
closed = 1;
nodes = (
(790,-17,o),
(1038,226,o),
(1038,503,cs),
(1038,561,o),
(1027,616,o),
(1007,665,c),
(1110,696,o),
(1191,800,o),
(1191,914,cs),
(1191,932,o),
(1189,945,o),
(1184,960,c),
(987,960,l),
(991,945,o),
(993,930,o),
(993,916,cs),
(993,854,o),
(959,811,o),
(909,806,c),
(834,876,o),
(730,917,o),
(612,917,cs),
(326,917,o),
(77,675,o),
(77,397,cs),
(77,159,o),
(260,-17,o),
(504,-17,cs)
);
},
{
closed = 1;
nodes = (
(443,268,o),
(373,336,o),
(373,428,cs),
(373,536,o),
(469,632,o),
(578,632,cs),
(672,632,o),
(742,564,o),
(742,472,cs),
(742,364,o),
(645,268,o),
(537,268,cs)
);
}
);
width = 1050;
}
);
unicode = 416;
},
{
color = 3;
glyphname = Oogonek;
kernLeft = C;
kernRight = D;
lastChange = "2024-02-26 20:34:18 +0000";
layers = (
{
anchors = (
{
name = top;
pos = (667,900);
}
);
layerId = "FCF05EF6-3D3F-478B-BA59-24992C4C44E9";
shapes = (
{
closed = 1;
nodes = (
(501,-246,l),
(448,-238,o),
(418,-209,o),
(418,-165,cs),
(418,-120,o),
(446,-68,o),
(498,-12,c),
(765,-12,o),
(1011,235,o),
(1011,506,cs),
(1011,736,o),
(835,912,o),
(613,912,cs),
(349,912,o),
(104,665,o),
(104,395,cs),
(104,181,o),
(257,12,o),
(458,-10,c),
(407,-61,o),
(376,-122,o),
(376,-171,cs),
(376,-230,o),
(417,-274,o),
(482,-282,c)
);
},
{
closed = 1;
nodes = (
(305,30,o),
(150,186,o),
(150,394,cs),
(150,643,o),
(372,870,o),
(610,870,cs),
(808,870,o),
(965,712,o),
(965,504,cs),
(965,256,o),
(742,30,o),
(505,30,cs)
);
}
);
width = 1040;
},
{
anchors = (
{
name = top;
pos = (678,900);
}
);
layerId = "DB28B65E-4CBC-4F12-8216-7B4F2F083639";
shapes = (
{
closed = 1;
nodes = (
(509,-219,l),
(470,-214,o),
(442,-198,o),
(442,-154,cs),
(442,-105,o),
(478,-58,o),
(517,-18,c),
(790,-15,o),
(1036,233,o),
(1036,505,cs),
(1036,738,o),
(856,918,o),
(622,918,cs),
(347,918,o),
(98,669,o),
(98,395,cs),
(98,192,o),
(235,29,o),
(425,-9,c),
(372,-56,o),
(338,-119,o),
(338,-178,cs),
(338,-254,o),
(395,-304,o),
(465,-312,c)
);
},
{
closed = 1;
nodes = (
(349,90,o),
(216,225,o),
(216,403,cs),
(216,616,o),
(404,810,o),
(611,810,cs),
(785,810,o),
(918,675,o),
(918,497,cs),
(918,284,o),
(730,90,o),
(523,90,cs)
);
}
);
width = 1060;
},
{
anchors = (
{
name = top;
pos = (679,900);
}
);
layerId = "5ACC057E-9D2C-45A0-8610-B9302B4AC058";
shapes = (
{
closed = 1;
nodes = (
(538,-195,l),
(501,-190,o),
(474,-170,o),
(474,-135,cs),
(474,-89,o),
(502,-56,o),
(546,-17,c),
(812,2,o),
(1042,241,o),
(1042,503,cs),
(1042,736,o),
(860,918,o),
(621,918,cs),
(342,918,o),
(92,670,o),
(92,396,cs),
(92,198,o),
(223,38,o),
(408,-6,c),
(355,-55,o),
(316,-111,o),
(316,-176,cs),
(316,-259,o),
(382,-306,o),
(478,-318,c)
);
},
{
closed = 1;
nodes = (
(391,156,o),
(282,268,o),
(282,413,cs),
(282,586,o),
(433,744,o),
(602,744,cs),
(745,744,o),
(852,634,o),
(852,489,cs),
(852,315,o),
(702,156,o),
(533,156,cs)
);
}
);
width = 1060;
},
{
anchors = (
{
name = top;
pos = (669,900);
}
);
layerId = "5435BF97-BB07-4B92-90A3-3494A24C81AC";
shapes = (
{
closed = 1;
nodes = (
(608,-124,l),
(573,-122,o),
(553,-105,o),
(553,-82,cs),
(553,-44,o),
(595,-15,o),
(642,2,c),
(865,64,o),
(1038,272,o),
(1038,503,cs),
(1038,741,o),
(856,917,o),
(612,917,cs),
(326,917,o),
(77,675,o),
(77,397,cs),
(77,211,o),
(188,63,o),
(354,7,c),
(316,-38,o),
(277,-90,o),
(277,-144,cs),
(277,-229,o),
(366,-290,o),
(528,-290,c)
);
},
{
closed = 1;
nodes = (
(443,268,o),
(373,336,o),
(373,428,cs),
(373,536,o),
(469,632,o),
(578,632,cs),
(672,632,o),
(742,564,o),
(742,472,cs),
(742,364,o),
(645,268,o),
(537,268,cs)
);
}
);
width = 1040;
}
);
unicode = 490;
},
{
color = 3;
glyphname = Oslash;
kernLeft = C;
kernRight = D;
lastChange = "2024-02-26 20:34:14 +0000";
layers = (
{
anchors = (
{
name = bottom;
pos = (443,0);
},
{
name = top;
pos = (670,900);
}
);
layerId = "FCF05EF6-3D3F-478B-BA59-24992C4C44E9";
shapes = (
{
closed = 1;
nodes = (
(765,-12,o),
(1011,235,o),
(1011,506,cs),
(1011,596,o),
(984,678,o),
(937,745,c),
(1037,828,l),
(1013,856,l),
(915,774,l),
(842,859,o),
(734,912,o),
(613,912,cs),
(349,912,o),
(104,665,o),
(104,395,cs),
(104,305,o),
(131,223,o),
(177,157,c),
(77,73,l),
(102,45,l),
(200,127,l),
(273,41,o),
(381,-12,o),
(503,-12,cs)
);
},
{
closed = 1;
nodes = (
(172,243,o),
(150,315,o),
(150,394,cs),
(150,643,o),
(372,870,o),
(610,870,cs),
(719,870,o),
(815,822,o),
(880,745,c),
(211,185,l)
);
},
{
closed = 1;
nodes = (
(395,30,o),
(298,78,o),
(233,155,c),
(902,715,l),
(942,656,o),
(965,584,o),
(965,504,cs),
(965,256,o),
(742,30,o),
(505,30,cs)
);
}
);
width = 1040;
},
{
anchors = (
{
name = bottom;
pos = (455,0);
},
{
name = top;
pos = (680,900);
}
);
layerId = "DB28B65E-4CBC-4F12-8216-7B4F2F083639";
shapes = (
{
closed = 1;
nodes = (
(787,-18,o),
(1036,231,o),
(1036,505,cs),
(1036,620,o),
(992,722,o),
(920,796,c),
(967,852,l),
(896,911,l),
(848,854,l),
(784,895,o),
(706,918,o),
(622,918,cs),
(347,918,o),
(98,669,o),
(98,395,cs),
(98,277,o),
(144,172,o),
(220,98,c),
(167,34,l),
(238,-25,l),
(293,42,l),
(356,4,o),
(431,-18,o),
(512,-18,cs)
);
},
{
closed = 1;
nodes = (
(246,244,o),
(216,319,o),
(216,403,cs),
(216,616,o),
(404,810,o),
(611,810,cs),
(672,810,o),
(727,794,o),
(774,765,c),
(296,189,l)
);
},
{
closed = 1;
nodes = (
(466,90,o),
(413,105,o),
(367,131,c),
(844,704,l),
(891,650,o),
(918,578,o),
(918,497,cs),
(918,284,o),
(730,90,o),
(523,90,cs)
);
}
);
width = 1060;
},
{
anchors = (
{
name = _center;
pos = (543,457);
},
{
name = bottom;
pos = (543,0);
},
{
name = center;
pos = (543,457);
},
{
name = ogonek;
pos = (977,10);
},
{
name = top;
pos = (543,914);
},
{
name = topleft;
pos = (19,914);
},
{
name = topright;
pos = (1066,914);
}
);
associatedMasterId = "DB28B65E-4CBC-4F12-8216-7B4F2F083639";
background = {
shapes = (
{
closed = 1;
nodes = (
(805,-17,o),
(1017,195,o),
(1017,457,cs),
(1017,719,o),
(805,931,o),
(543,931,cs),
(281,931,o),
(69,719,o),
(69,457,cs),
(69,195,o),
(281,-17,o),
(543,-17,cs)
);
},
{
closed = 1;
nodes = (
(342,91,o),
(186,255,o),
(186,457,cs),
(186,659,o),
(342,823,o),
(543,823,cs),
(744,823,o),
(900,659,o),
(900,457,cs),
(900,255,o),
(744,91,o),
(543,91,cs)
);
},
{
closed = 1;
nodes = (
(215,-13,l),
(949,862,l),
(870,927,l),
(136,52,l)
);
}
);
};
guides = (
{
angle = 50;
pos = (611,444);
},
{
angle = 230;
pos = (530,516);
}
);
hints = (
{
horizontal = 1;
origin = (0,24);
target = (2,9);
type = Stem;
},
{
horizontal = 1;
origin = (0,8);
target = (1,2);
type = Stem;
},
{
origin = (0,11);
target = (1,9);
type = Stem;
},
{
origin = (2,6);
target = (0,27);
type = Stem;
}
);
layerId = "40E0E200-EECA-4344-98A1-D140F9803E58";
name = "Oct 26 19, 10:49";
shapes = (
{
closed = 1;
nodes = (
(979,901,l),
(989,828,l),
(830,961,l),
(907,966,l),
(777,812,l),
(833,832,l),
(753,894,o),
(652,931,o),
(543,931,cs),
(281,931,o),
(69,719,o),
(69,457,cs),
(69,317,o),
(129,192,o),
(224,105,c),
(237,168,l),
(107,13,l),
(96,86,l),
(255,-47,l),
(178,-52,l),
(308,102,l),
(252,82,l),
(332,20,o),
(433,-17,o),
(543,-17,cs),
(805,-17,o),
(1017,195,o),
(1017,457,cs),
(1017,597,o),
(956,722,o),
(862,809,c),
(848,746,l)
);
},
{
closed = 1;
nodes = (
(186,659,o),
(342,823,o),
(543,823,cs),
(614,823,o),
(680,802,o),
(735,766,c),
(273,216,l),
(218,280,o),
(186,365,o),
(186,457,cs)
);
},
{
closed = 1;
nodes = (
(471,91,o),
(406,112,o),
(350,148,c),
(812,698,l),
(867,634,o),
(900,549,o),
(900,457,cs),
(900,255,o),
(744,91,o),
(543,91,cs)
);
}
);
width = 1085;
},
{
anchors = (
{
name = _center;
pos = (543,457);
},
{
name = bottom;
pos = (543,0);
},
{
name = center;
pos = (543,457);
},
{
name = ogonek;
pos = (977,10);
},
{
name = top;
pos = (543,914);
},
{
name = topleft;
pos = (19,914);
},
{
name = topright;
pos = (1066,914);
}
);
associatedMasterId = "DB28B65E-4CBC-4F12-8216-7B4F2F083639";
background = {
shapes = (
{
closed = 1;
nodes = (
(805,-17,o),
(1017,195,o),
(1017,457,cs),
(1017,719,o),
(805,931,o),
(543,931,cs),
(281,931,o),
(69,719,o),
(69,457,cs),
(69,195,o),
(281,-17,o),
(543,-17,cs)
);
},
{
closed = 1;
nodes = (
(342,91,o),
(186,255,o),
(186,457,cs),
(186,659,o),
(342,823,o),
(543,823,cs),
(744,823,o),
(900,659,o),
(900,457,cs),
(900,255,o),
(744,91,o),
(543,91,cs)
);
},
{
closed = 1;
nodes = (
(215,-13,l),
(949,862,l),
(870,927,l),
(136,52,l)
);
}
);
};
guides = (
{
angle = 50;
pos = (611,444);
},
{
angle = 230;
pos = (530,516);
}
);
hints = (
{
horizontal = 1;
origin = (0,24);
target = (2,11);
type = Stem;
},
{
horizontal = 1;
origin = (0,8);
target = (1,2);
type = Stem;
},
{
origin = (0,11);
target = (1,11);
type = Stem;
},
{
origin = (2,8);
target = (0,27);
type = Stem;
}
);
layerId = "8873760E-DD30-4FA6-A96E-C3800118FE94";
name = "Oct 26 19, 10:51";
shapes = (
{
closed = 1;
nodes = (
(979,901,l),
(989,828,l),
(830,961,l),
(907,966,l),
(777,812,l),
(833,832,l),
(753,894,o),
(652,931,o),
(543,931,cs),
(281,931,o),
(69,719,o),
(69,457,cs),
(69,317,o),
(129,192,o),
(224,105,c),
(237,168,l),
(107,13,l),
(96,86,l),
(255,-47,l),
(178,-52,l),
(308,102,l),
(252,82,l),
(332,20,o),
(433,-17,o),
(543,-17,cs),
(805,-17,o),
(1017,195,o),
(1017,457,cs),
(1017,597,o),
(956,722,o),
(862,809,c),
(848,746,l)
);
},
{
closed = 1;
nodes = (
(186,659,o),
(342,823,o),
(543,823,cs),
(626,823,o),
(702,794,o),
(762,747,c),
(770,804,l),
(242,175,l),
(296,192,l),
(227,258,o),
(186,352,o),
(186,457,cs)
);
},
{
closed = 1;
nodes = (
(459,91,o),
(384,120,o),
(324,167,c),
(315,110,l),
(844,739,l),
(789,722,l),
(859,656,o),
(900,562,o),
(900,457,cs),
(900,255,o),
(744,91,o),
(543,91,cs)
);
}
);
width = 1085;
},
{
anchors = (
{
name = bottom;
pos = (455,0);
},
{
name = top;
pos = (680,900);
}
);
layerId = "5ACC057E-9D2C-45A0-8610-B9302B4AC058";
shapes = (
{
closed = 1;
nodes = (
(793,-18,o),
(1042,230,o),
(1042,503,cs),
(1042,604,o),
(1008,695,o),
(950,766,c),
(1025,845,l),
(945,918,l),
(871,840,l),
(802,889,o),
(716,918,o),
(621,918,cs),
(342,918,o),
(92,670,o),
(92,396,cs),
(92,292,o),
(128,198,o),
(190,127,c),
(108,41,l),
(188,-32,l),
(270,54,l),
(338,9,o),
(421,-18,o),
(513,-18,cs)
);
},
{
closed = 1;
nodes = (
(297,309,o),
(282,358,o),
(282,413,cs),
(282,586,o),
(433,744,o),
(602,744,cs),
(654,744,o),
(701,729,o),
(741,704,c),
(324,268,l)
);
},
{
closed = 1;
nodes = (
(484,156,o),
(440,169,o),
(402,192,c),
(816,626,l),
(839,586,o),
(852,540,o),
(852,489,cs),
(852,315,o),
(702,156,o),
(533,156,cs)
);
}
);
width = 1060;
},
{
anchors = (
{
name = _center;
pos = (543,457);
},
{
name = bottom;
pos = (543,0);
},
{
name = center;
pos = (543,457);
},
{
name = ogonek;
pos = (977,10);
},
{
name = top;
pos = (543,914);
},
{
name = topleft;
pos = (19,914);
},
{
name = topright;
pos = (1066,914);
}
);
associatedMasterId = "5ACC057E-9D2C-45A0-8610-B9302B4AC058";
background = {
shapes = (
{
closed = 1;
nodes = (
(805,-17,o),
(1017,195,o),
(1017,457,cs),
(1017,719,o),
(805,931,o),
(543,931,cs),
(281,931,o),
(69,719,o),
(69,457,cs),
(69,195,o),
(281,-17,o),
(543,-17,cs)
);
},
{
closed = 1;
nodes = (
(342,91,o),
(186,255,o),
(186,457,cs),
(186,659,o),
(342,823,o),
(543,823,cs),
(744,823,o),
(900,659,o),
(900,457,cs),
(900,255,o),
(744,91,o),
(543,91,cs)
);
},
{
closed = 1;
nodes = (
(215,-13,l),
(949,862,l),
(870,927,l),
(136,52,l)
);
}
);
};
guides = (
{
angle = 50;
pos = (611,444);
},
{
angle = 230;
pos = (530,516);
}
);
hints = (
{
horizontal = 1;
origin = (0,24);
target = (2,9);
type = Stem;
},
{
horizontal = 1;
origin = (0,8);
target = (1,2);
type = Stem;
},
{
origin = (0,11);
target = (1,9);
type = Stem;
},
{
origin = (2,6);
target = (0,27);
type = Stem;
}
);
layerId = "45507852-22C5-4421-ACB3-F0A8A9BFCBB0";
name = "Oct 26 19, 10:49";
shapes = (
{
closed = 1;
nodes = (
(979,901,l),
(989,828,l),
(830,961,l),
(907,966,l),
(777,812,l),
(833,832,l),
(753,894,o),
(652,931,o),
(543,931,cs),
(281,931,o),
(69,719,o),
(69,457,cs),
(69,317,o),
(129,192,o),
(224,105,c),
(237,168,l),
(107,13,l),
(96,86,l),
(255,-47,l),
(178,-52,l),
(308,102,l),
(252,82,l),
(332,20,o),
(433,-17,o),
(543,-17,cs),
(805,-17,o),
(1017,195,o),
(1017,457,cs),
(1017,597,o),
(956,722,o),
(862,809,c),
(848,746,l)
);
},
{
closed = 1;
nodes = (
(186,659,o),
(342,823,o),
(543,823,cs),
(614,823,o),
(680,802,o),
(735,766,c),
(273,216,l),
(218,280,o),
(186,365,o),
(186,457,cs)
);
},
{
closed = 1;
nodes = (
(471,91,o),
(406,112,o),
(350,148,c),
(812,698,l),
(867,634,o),
(900,549,o),
(900,457,cs),
(900,255,o),
(744,91,o),
(543,91,cs)
);
}
);
width = 1085;
},
{
anchors = (
{
name = _center;
pos = (543,457);
},
{
name = bottom;
pos = (543,0);
},
{
name = center;
pos = (543,457);
},
{
name = ogonek;
pos = (977,10);
},
{
name = top;
pos = (543,914);
},
{
name = topleft;
pos = (19,914);
},
{
name = topright;
pos = (1066,914);
}
);
associatedMasterId = "5ACC057E-9D2C-45A0-8610-B9302B4AC058";
background = {
shapes = (
{
closed = 1;
nodes = (
(805,-17,o),
(1017,195,o),
(1017,457,cs),
(1017,719,o),
(805,931,o),
(543,931,cs),
(281,931,o),
(69,719,o),
(69,457,cs),
(69,195,o),
(281,-17,o),
(543,-17,cs)
);
},
{
closed = 1;
nodes = (
(342,91,o),
(186,255,o),
(186,457,cs),
(186,659,o),
(342,823,o),
(543,823,cs),
(744,823,o),
(900,659,o),
(900,457,cs),
(900,255,o),
(744,91,o),
(543,91,cs)
);
},
{
closed = 1;
nodes = (
(215,-13,l),
(949,862,l),
(870,927,l),
(136,52,l)
);
}
);
};
guides = (
{
angle = 50;
pos = (611,444);
},
{
angle = 230;
pos = (530,516);
}
);
hints = (
{
horizontal = 1;
origin = (0,24);
target = (2,11);
type = Stem;
},
{
horizontal = 1;
origin = (0,8);
target = (1,2);
type = Stem;
},
{
origin = (0,11);
target = (1,11);
type = Stem;
},
{
origin = (2,8);
target = (0,27);
type = Stem;
}
);
layerId = "DF5B4BFF-D3DA-41BF-B93A-E96B0F9D723D";
name = "Oct 26 19, 10:51";
shapes = (
{
closed = 1;
nodes = (
(979,901,l),
(989,828,l),
(830,961,l),
(907,966,l),
(777,812,l),
(833,832,l),
(753,894,o),
(652,931,o),
(543,931,cs),
(281,931,o),
(69,719,o),
(69,457,cs),
(69,317,o),
(129,192,o),
(224,105,c),
(237,168,l),
(107,13,l),
(96,86,l),
(255,-47,l),
(178,-52,l),
(308,102,l),
(252,82,l),
(332,20,o),
(433,-17,o),
(543,-17,cs),
(805,-17,o),
(1017,195,o),
(1017,457,cs),
(1017,597,o),
(956,722,o),
(862,809,c),
(848,746,l)
);
},
{
closed = 1;
nodes = (
(186,659,o),
(342,823,o),
(543,823,cs),
(626,823,o),
(702,794,o),
(762,747,c),
(770,804,l),
(242,175,l),
(296,192,l),
(227,258,o),
(186,352,o),
(186,457,cs)
);
},
{
closed = 1;
nodes = (
(459,91,o),
(384,120,o),
(324,167,c),
(315,110,l),
(844,739,l),
(789,722,l),
(859,656,o),
(900,562,o),
(900,457,cs),
(900,255,o),
(744,91,o),
(543,91,cs)
);
}
);
width = 1085;
},
{
anchors = (
{
name = bottom;
pos = (445,0);
},
{
name = top;
pos = (670,900);
}
);
guides = (
{
angle = 46.2273;
pos = (504,500);
}
);
layerId = "5435BF97-BB07-4B92-90A3-3494A24C81AC";
shapes = (
{
closed = 1;
nodes = (
(790,-17,o),
(1038,226,o),
(1038,503,cs),
(1038,602,o),
(1007,690,o),
(953,759,c),
(1022,832,l),
(916,931,l),
(844,855,l),
(778,895,o),
(699,917,o),
(612,917,cs),
(326,917,o),
(77,675,o),
(77,397,cs),
(77,299,o),
(108,212,o),
(161,143,c),
(91,69,l),
(197,-31,l),
(270,46,l),
(336,6,o),
(416,-17,o),
(504,-17,cs)
);
},
{
closed = 1;
nodes = (
(359,378,o),
(355,402,o),
(355,426,cs),
(355,545,o),
(460,650,o),
(580,650,cs),
(601,650,o),
(621,647,o),
(638,641,c),
(368,357,l)
);
},
{
closed = 1;
nodes = (
(513,250,o),
(493,253,o),
(474,259,c),
(746,544,l),
(756,522,o),
(760,499,o),
(760,474,cs),
(760,355,o),
(654,250,o),
(535,250,cs)
);
}
);
width = 1040;
}
);
unicode = 216;
},
{
color = 3;
glyphname = OE;
kernLeft = O;
kernRight = E;
lastChange = "2024-02-26 20:34:00 +0000";
layers = (
{
anchors = (
{
name = bottom;
pos = (670,0);
},
{
name = top;
pos = (836,900);
}
);
layerId = "FCF05EF6-3D3F-478B-BA59-24992C4C44E9";
shapes = (
{
closed = 1;
nodes = (
(650,-12,o),
(796,73,o),
(891,199,c),
(841,0,l),
(1239,0,l),
(1249,40,l),
(895,40,l),
(1019,536,l),
(1301,536,l),
(1311,574,l),
(1028,574,l),
(1100,860,l),
(1451,860,l),
(1461,900,l),
(1066,900,l),
(990,596,l),
(951,780,o),
(795,912,o),
(606,912,cs),
(346,912,o),
(104,665,o),
(104,395,cs),
(104,165,o),
(278,-12,o),
(498,-12,cs)
);
},
{
closed = 1;
nodes = (
(303,30,o),
(150,186,o),
(150,394,cs),
(150,643,o),
(370,870,o),
(605,870,cs),
(802,870,o),
(957,712,o),
(957,504,cs),
(957,256,o),
(736,30,o),
(502,30,cs)
);
}
);
width = 1380;
},
{
anchors = (
{
name = bottom;
pos = (690,0);
},
{
name = top;
pos = (690,900);
}
);
background = {
shapes = (
{
closed = 1;
nodes = (
(606,-18,o),
(762,61,o),
(866,180,c),
(857,204,l),
(807,0,l),
(1245,0,l),
(1270,102,l),
(940,102,l),
(1041,504,l),
(1301,504,l),
(1326,606,l),
(1066,606,l),
(1115,798,l),
(1445,798,l),
(1470,900,l),
(1032,900,l),
(981,696,l),
(1000,720,l),
(957,839,o),
(839,918,o),
(683,918,cs),
(423,918,o),
(160,709,o),
(96,450,cs),
(32,191,o),
(195,-18,o),
(450,-18,cs)
);
},
{
closed = 1;
nodes = (
(279,90,o),
(165,251,o),
(214,450,cs),
(263,649,o),
(460,810,o),
(658,810,cs),
(856,810,o),
(969,649,o),
(919,450,cs),
(869,251,o),
(675,90,o),
(477,90,cs)
);
}
);
};
guides = (
{
angle = -104.036;
pos = (60,300);
},
{
angle = -104.036;
pos = (1320,300);
}
);
hints = (
{
horizontal = 1;
place = (-18, 108);
place = (-18, 108);
type = Stem;
},
{
horizontal = 1;
place = (918, 108);
place = (918, 108);
type = Stem;
},
{
place = (98, 118);
place = (98, 118);
type = Stem;
},
{
place = (918, 123);
place = (918, 123);
type = Stem;
}
);
layerId = "DB28B65E-4CBC-4F12-8216-7B4F2F083639";
shapes = (
{
closed = 1;
nodes = (
(623,-18,o),
(749,38,o),
(838,126,c),
(807,0,l),
(1245,0,l),
(1270,102,l),
(940,102,l),
(1041,504,l),
(1301,504,l),
(1326,606,l),
(1066,606,l),
(1115,798,l),
(1445,798,l),
(1470,900,l),
(1032,900,l),
(983,701,l),
(916,832,o),
(784,918,o),
(622,918,cs),
(347,918,o),
(98,669,o),
(98,395,cs),
(98,162,o),
(271,-18,o),
(497,-18,cs)
);
},
{
closed = 1;
nodes = (
(349,90,o),
(216,225,o),
(216,403,cs),
(216,616,o),
(404,810,o),
(611,810,cs),
(785,810,o),
(918,675,o),
(918,497,cs),
(918,284,o),
(730,90,o),
(523,90,cs)
);
}
);
width = 1380;
},
{
anchors = (
{
name = bottom;
pos = (660,0);
},
{
name = top;
pos = (660,900);
}
);
background = {
shapes = (
{
closed = 1;
nodes = (
(560,-18,o),
(676,24,o),
(756,99,c),
(743,128,l),
(711,0,l),
(1191,0,l),
(1231,162,l),
(925,162,l),
(998,456,l),
(1234,456,l),
(1272,606,l),
(1036,606,l),
(1071,744,l),
(1377,744,l),
(1416,900,l),
(936,900,l),
(903,772,l),
(931,802,l),
(890,872,o),
(800,918,o),
(666,918,cs),
(413,918,o),
(156,709,o),
(91,450,cs),
(26,191,o),
(180,-18,o),
(433,-18,cs)
);
},
{
closed = 1;
nodes = (
(332,156,o),
(238,287,o),
(279,450,cs),
(320,613,o),
(479,744,o),
(641,744,cs),
(803,744,o),
(896,613,o),
(855,450,cs),
(814,287,o),
(656,156,o),
(494,156,cs)
);
}
);
};
guides = (
{
angle = -104.036;
pos = (54,300);
},
{
angle = -104.036;
pos = (1266,300);
}
);
layerId = "5ACC057E-9D2C-45A0-8610-B9302B4AC058";
shapes = (
{
closed = 1;
nodes = (
(571,-18,o),
(654,8,o),
(726,59,c),
(711,0,l),
(1191,0,l),
(1231,162,l),
(925,162,l),
(998,456,l),
(1234,456,l),
(1272,606,l),
(1036,606,l),
(1071,744,l),
(1377,744,l),
(1416,900,l),
(936,900,l),
(911,805,l),
(839,875,o),
(737,918,o),
(621,918,cs),
(342,918,o),
(92,670,o),
(92,396,cs),
(92,163,o),
(263,-18,o),
(486,-18,cs)
);
},
{
closed = 1;
nodes = (
(391,156,o),
(282,268,o),
(282,413,cs),
(282,586,o),
(433,744,o),
(602,744,cs),
(745,744,o),
(852,634,o),
(852,489,cs),
(852,315,o),
(702,156,o),
(533,156,cs)
);
}
);
width = 1320;
},
{
anchors = (
{
name = bottom;
pos = (770,0);
},
{
name = top;
pos = (770,900);
}
);
background = {
shapes = (
{
closed = 1;
nodes = (
(535,-20,o),
(627,8,o),
(709,58,c),
(695,0,l),
(1203,0,l),
(1263,240,l),
(987,240,l),
(1021,378,l),
(1255,378,l),
(1303,570,l),
(1069,570,l),
(1093,666,l),
(1369,666,l),
(1427,900,l),
(919,900,l),
(905,842,l),
(847,892,o),
(769,920,o),
(674,920,cs),
(404,920,o),
(140,710,o),
(75,450,cs),
(10,189,o),
(170,-20,o),
(440,-20,cs)
);
},
{
closed = 1;
nodes = (
(409,268,o),
(348,350,o),
(373,450,cs),
(398,550,o),
(499,632,o),
(602,632,cs),
(705,632,o),
(766,550,o),
(741,450,cs),
(716,350,o),
(615,268,o),
(512,268,cs)
);
}
);
};
layerId = "5435BF97-BB07-4B92-90A3-3494A24C81AC";
shapes = (
{
closed = 1;
nodes = (
(581,-17,o),
(672,12,o),
(750,62,c),
(735,0,l),
(1203,0,l),
(1263,240,l),
(987,240,l),
(1021,378,l),
(1255,378,l),
(1303,570,l),
(1069,570,l),
(1093,666,l),
(1369,666,l),
(1427,900,l),
(869,900,l),
(856,848,l),
(788,892,o),
(704,917,o),
(612,917,cs),
(326,917,o),
(77,675,o),
(77,397,cs),
(77,159,o),
(252,-17,o),
(486,-17,cs)
);
},
{
closed = 1;
nodes = (
(443,268,o),
(373,336,o),
(373,428,cs),
(373,536,o),
(469,632,o),
(578,632,cs),
(672,632,o),
(742,564,o),
(742,472,cs),
(742,364,o),
(645,268,o),
(537,268,cs)
);
}
);
width = 1320;
}
);
unicode = 338;
},
{
color = 3;
glyphname = P;
kernLeft = B;
kernRight = P;
lastChange = "2024-02-17 22:45:08 +0000";
layers = (
{
guides = (
{
angle = -104.036;
pos = (136,300);
},
{
angle = -104.036;
pos = (180,300);
},
{
angle = -104.036;
pos = (640,300);
}
);
layerId = "FCF05EF6-3D3F-478B-BA59-24992C4C44E9";
shapes = (
{
closed = 1;
nodes = (
(105,0,l),
(192,348,l),
(384,348,ls),
(578,348,o),
(720,490,o),
(720,656,cs),
(720,797,o),
(619,900,o),
(450,900,cs),
(286,900,l),
(61,0,l)
);
},
{
closed = 1;
nodes = (
(320,862,l),
(441,862,ls),
(595,862,o),
(678,773,o),
(678,652,cs),
(678,509,o),
(559,386,o),
(381,386,cs),
(201,386,l)
);
}
);
width = 700;
},
{
background = {
shapes = (
{
closed = 1;
nodes = (
(339,316,ls),
(449,316,o),
(523,347,o),
(577,401,cs),
(629,454,o),
(662,526,o),
(662,608,cs),
(662,686,o),
(632,759,o),
(577,814,cs),
(523,869,o),
(452,900,o),
(339,900,cs),
(180,900,l),
(180,798,l),
(333,798,ls),
(418,798,o),
(456,779,o),
(493,744,cs),
(529,712,o),
(548,661,o),
(548,608,cs),
(548,551,o),
(527,504,o),
(493,472,cs),
(456,437,o),
(418,418,o),
(333,418,cs),
(180,418,l),
(180,316,l)
);
},
{
closed = 1;
nodes = (
(241,0,l),
(241,900,l),
(127,900,l),
(127,0,l)
);
}
);
};
guides = (
{
pos = (179,367);
},
{
angle = -104.036;
pos = (126,300);
},
{
angle = -104.036;
pos = (240,300);
},
{
angle = -104.036;
pos = (673,300);
}
);
layerId = "DB28B65E-4CBC-4F12-8216-7B4F2F083639";
shapes = (
{
closed = 1;
nodes = (
(165,0,l),
(244,316,l),
(400,316,ls),
(588,316,o),
(750,466,o),
(750,644,cs),
(750,795,o),
(633,900,o),
(471,900,cs),
(276,900,l),
(51,0,l)
);
},
{
closed = 1;
nodes = (
(365,798,l),
(450,798,ls),
(563,798,o),
(636,731,o),
(636,634,cs),
(636,517,o),
(533,418,o),
(402,418,cs),
(270,418,l)
);
}
);
width = 720;
},
{
background = {
shapes = (
{
closed = 1;
nodes = (
(339,316,ls),
(449,316,o),
(523,347,o),
(577,401,cs),
(629,454,o),
(662,526,o),
(662,608,cs),
(662,686,o),
(632,759,o),
(577,814,cs),
(523,869,o),
(452,900,o),
(339,900,cs),
(180,900,l),
(180,798,l),
(333,798,ls),
(418,798,o),
(456,779,o),
(493,744,cs),
(529,712,o),
(548,661,o),
(548,608,cs),
(548,551,o),
(527,504,o),
(493,472,cs),
(456,437,o),
(418,418,o),
(333,418,cs),
(180,418,l),
(180,316,l)
);
},
{
closed = 1;
nodes = (
(241,0,l),
(241,900,l),
(127,900,l),
(127,0,l)
);
}
);
};
guides = (
{
angle = -104.036;
pos = (96,300);
},
{
angle = -104.036;
pos = (270,300);
},
{
angle = -104.036;
pos = (710,300);
},
{
angle = -86.6335;
pos = (425,289);
}
);
layerId = "5ACC057E-9D2C-45A0-8610-B9302B4AC058";
shapes = (
{
closed = 1;
nodes = (
(195,0,l),
(267,289,l),
(431,289,ls),
(624,289,o),
(784,440,o),
(784,621,cs),
(784,780,o),
(661,900,o),
(498,900,cs),
(246,900,l),
(21,0,l)
);
},
{
closed = 1;
nodes = (
(381,744,l),
(456,744,ls),
(545,744,o),
(604,692,o),
(604,615,cs),
(604,521,o),
(521,445,o),
(420,445,cs),
(306,445,l)
);
}
);
width = 740;
},
{
background = {
shapes = (
{
closed = 1;
nodes = (
(273,0,l),
(337,258,l),
(418,258,ls),
(623,258,o),
(804,388,o),
(851,578,cs),
(899,771,o),
(784,900,o),
(578,900,cs),
(209,900,l),
(-15,0,l)
);
},
{
closed = 1;
nodes = (
(439,666,l),
(487,666,ls),
(543,666,o),
(576,630,o),
(562,573,cs),
(547,514,o),
(498,480,o),
(440,480,cs),
(392,480,l)
);
}
);
};
guides = (
{
angle = -104.036;
pos = (782,300);
},
{
angle = -104.036;
pos = (494,300);
},
{
angle = 82.9508;
pos = (476,258);
}
);
layerId = "5435BF97-BB07-4B92-90A3-3494A24C81AC";
shapes = (
{
closed = 1;
nodes = (
(273,0,l),
(337,258,l),
(476,258,ls),
(703,258,o),
(850,433,o),
(850,615,cs),
(850,768,o),
(749,900,o),
(555,900,cs),
(209,900,l),
(-15,0,l)
);
},
{
closed = 1;
nodes = (
(439,666,l),
(481,666,ls),
(531,666,o),
(563,635,o),
(563,587,cs),
(563,531,o),
(519,480,o),
(458,480,cs),
(392,480,l)
);
}
);
width = 800;
}
);
unicode = 80;
},
{
color = 3;
glyphname = Thorn;
kernLeft = B;
kernRight = Thorn;
lastChange = "2024-02-19 17:28:37 +0000";
layers = (
{
guides = (
{
angle = -104.036;
pos = (136,300);
},
{
angle = -104.036;
pos = (180,300);
}
);
layerId = "FCF05EF6-3D3F-478B-BA59-24992C4C44E9";
shapes = (
{
closed = 1;
nodes = (
(105,0,l),
(162,228,l),
(354,228,ls),
(548,228,o),
(690,370,o),
(690,536,cs),
(690,677,o),
(589,780,o),
(420,780,cs),
(300,780,l),
(330,900,l),
(286,900,l),
(61,0,l)
);
},
{
closed = 1;
nodes = (
(290,742,l),
(411,742,ls),
(565,742,o),
(648,653,o),
(648,532,cs),
(648,389,o),
(529,266,o),
(351,266,cs),
(171,266,l)
);
}
);
width = 700;
},
{
guides = (
{
angle = -104.036;
pos = (126,300);
},
{
angle = -104.036;
pos = (672,300);
}
);
layerId = "DB28B65E-4CBC-4F12-8216-7B4F2F083639";
shapes = (
{
closed = 1;
nodes = (
(165,0,l),
(214,196,l),
(370,196,ls),
(558,196,o),
(720,346,o),
(720,524,cs),
(720,675,o),
(603,780,o),
(441,780,cs),
(360,780,l),
(390,900,l),
(276,900,l),
(51,0,l)
);
},
{
closed = 1;
nodes = (
(335,678,l),
(420,678,ls),
(533,678,o),
(606,611,o),
(606,514,cs),
(606,397,o),
(503,298,o),
(372,298,cs),
(240,298,l)
);
}
);
width = 720;
},
{
background = {
shapes = (
{
closed = 1;
nodes = (
(349,196,ls),
(587,196,o),
(672,360,o),
(672,488,cs),
(672,618,o),
(586,780,o),
(349,780,cs),
(179,780,l),
(179,678,l),
(343,678,ls),
(508,678,o),
(558,576,o),
(558,488,cs),
(558,396,o),
(504,298,o),
(343,298,cs),
(179,298,l),
(179,196,l)
);
},
{
closed = 1;
nodes = (
(240,0,l),
(240,900,l),
(126,900,l),
(126,0,l)
);
}
);
};
guides = (
{
angle = -104.036;
pos = (96,300);
},
{
angle = -104.036;
pos = (710,300);
}
);
layerId = "5ACC057E-9D2C-45A0-8610-B9302B4AC058";
shapes = (
{
closed = 1;
nodes = (
(195,0,l),
(237,169,l),
(393,169,ls),
(585,169,o),
(752,330,o),
(752,509,cs),
(752,662,o),
(628,780,o),
(466,780,cs),
(390,780,l),
(420,900,l),
(246,900,l),
(21,0,l)
);
},
{
closed = 1;
nodes = (
(351,624,l),
(424,624,ls),
(515,624,o),
(572,570,o),
(572,495,cs),
(572,404,o),
(492,325,o),
(388,325,cs),
(276,325,l)
);
}
);
width = 740;
},
{
background = {
shapes = (
{
closed = 1;
nodes = (
(273,0,l),
(307,138,l),
(388,138,ls),
(593,138,o),
(774,268,o),
(821,458,cs),
(869,651,o),
(754,780,o),
(548,780,cs),
(467,780,l),
(497,900,l),
(209,900,l),
(-15,0,l)
);
},
{
closed = 1;
nodes = (
(409,546,l),
(457,546,ls),
(513,546,o),
(546,510,o),
(532,453,cs),
(517,394,o),
(469,360,o),
(411,360,cs),
(363,360,l)
);
}
);
};
layerId = "5435BF97-BB07-4B92-90A3-3494A24C81AC";
shapes = (
{
closed = 1;
nodes = (
(273,0,l),
(307,138,l),
(446,138,ls),
(673,138,o),
(820,313,o),
(820,495,cs),
(820,648,o),
(719,780,o),
(525,780,cs),
(467,780,l),
(497,900,l),
(209,900,l),
(-15,0,l)
);
},
{
closed = 1;
nodes = (
(409,546,l),
(451,546,ls),
(501,546,o),
(533,515,o),
(533,467,cs),
(533,411,o),
(489,360,o),
(428,360,cs),
(362,360,l)
);
}
);
width = 800;
}
);
unicode = 222;
},
{
color = 3;
glyphname = Q;
kernLeft = C;
kernRight = D;
lastChange = "2024-02-26 20:33:54 +0000";
layers = (
{
background = {
shapes = (
{
closed = 1;
nodes = (
(765,-12,o),
(1011,235,o),
(1011,506,cs),
(1011,736,o),
(835,912,o),
(613,912,cs),
(349,912,o),
(104,665,o),
(104,395,cs),
(104,165,o),
(280,-12,o),
(503,-12,cs)
);
},
{
closed = 1;
nodes = (
(305,30,o),
(150,186,o),
(150,394,cs),
(150,643,o),
(372,870,o),
(610,870,cs),
(808,870,o),
(965,712,o),
(965,504,cs),
(965,256,o),
(742,30,o),
(505,30,cs)
);
},
{
closed = 1;
nodes = (
(863,-30,l),
(582,450,l),
(532,450,l),
(813,-30,l)
);
}
);
};
layerId = "FCF05EF6-3D3F-478B-BA59-24992C4C44E9";
shapes = (
{
closed = 1;
nodes = (
(863,-30,l),
(793,90,l),
(921,187,o),
(1011,342,o),
(1011,506,cs),
(1011,736,o),
(835,912,o),
(613,912,cs),
(349,912,o),
(104,665,o),
(104,395,cs),
(104,165,o),
(280,-12,o),
(503,-12,cs),
(593,-12,o),
(680,17,o),
(757,66,c),
(813,-30,l)
);
},
{
closed = 1;
nodes = (
(305,30,o),
(150,186,o),
(150,394,cs),
(150,643,o),
(372,870,o),
(610,870,cs),
(808,870,o),
(965,712,o),
(965,504,cs),
(965,356,o),
(886,216,o),
(771,127,c),
(582,450,l),
(532,450,l),
(736,102,l),
(666,57,o),
(586,30,o),
(505,30,cs)
);
}
);
width = 1040;
},
{
guides = (
{
angle = 180;
pos = (530,450);
},
{
angle = 129.7449;
pos = (710,311);
},
{
angle = -104.036;
pos = (60,300);
},
{
angle = -104.036;
pos = (1000,300);
}
);
layerId = "DB28B65E-4CBC-4F12-8216-7B4F2F083639";
shapes = (
{
closed = 1;
nodes = (
(907,-30,l),
(831,100,l),
(954,198,o),
(1036,347,o),
(1036,505,cs),
(1036,738,o),
(856,918,o),
(622,918,cs),
(347,918,o),
(98,669,o),
(98,395,cs),
(98,162,o),
(278,-18,o),
(512,-18,cs),
(593,-18,o),
(673,4,o),
(744,42,c),
(785,-30,l)
);
},
{
closed = 1;
nodes = (
(349,90,o),
(216,225,o),
(216,403,cs),
(216,616,o),
(404,810,o),
(611,810,cs),
(785,810,o),
(918,675,o),
(918,497,cs),
(918,380,o),
(862,269,o),
(777,193,c),
(626,450,l),
(500,450,l),
(687,131,l),
(636,105,o),
(580,90,o),
(523,90,cs)
);
}
);
width = 1060;
},
{
guides = (
{
angle = 180;
pos = (530,450);
},
{
angle = 129.7449;
pos = (710,311);
},
{
angle = -104.036;
pos = (54,300);
},
{
angle = -104.036;
pos = (1006,300);
}
);
layerId = "5ACC057E-9D2C-45A0-8610-B9302B4AC058";
shapes = (
{
closed = 1;
nodes = (
(935,-30,l),
(852,112,l),
(966,210,o),
(1042,353,o),
(1042,503,cs),
(1042,736,o),
(860,918,o),
(621,918,cs),
(342,918,o),
(92,670,o),
(92,396,cs),
(92,163,o),
(274,-18,o),
(513,-18,cs),
(583,-18,o),
(651,-3,o),
(713,25,c),
(745,-30,l)
);
},
{
closed = 1;
nodes = (
(391,156,o),
(282,268,o),
(282,413,cs),
(282,586,o),
(433,744,o),
(602,744,cs),
(745,744,o),
(852,634,o),
(852,489,cs),
(852,405,o),
(817,325,o),
(763,264,c),
(654,450,l),
(466,450,l),
(629,173,l),
(598,162,o),
(566,156,o),
(533,156,cs)
);
}
);
width = 1060;
},
{
background = {
shapes = (
{
closed = 1;
nodes = (
(983,-30,l),
(870,165,l),
(951,244,o),
(1013,343,o),
(1039,450,cs),
(1104,710,o),
(945,920,o),
(675,920,cs),
(405,920,o),
(140,710,o),
(75,450,cs),
(10,189,o),
(170,-20,o),
(440,-20,cs),
(506,-20,o),
(571,-8,o),
(634,15,c),
(659,-30,l)
);
},
{
closed = 1;
nodes = (
(408,248,o),
(345,335,o),
(371,440,cs),
(397,546,o),
(504,632,o),
(613,632,cs),
(722,632,o),
(785,546,o),
(759,440,cs),
(753,417,o),
(743,394,o),
(730,374,c),
(685,450,l),
(396,450,l),
(512,248,l),
(510,248,o),
(509,248,o),
(507,248,cs)
);
}
);
};
guides = (
{
angle = 180;
pos = (520,450);
},
{
angle = -60.1331;
pos = (480,349);
}
);
layerId = "5435BF97-BB07-4B92-90A3-3494A24C81AC";
shapes = (
{
closed = 1;
nodes = (
(983,-30,l),
(883,143,l),
(978,238,o),
(1038,367,o),
(1038,503,cs),
(1038,741,o),
(856,917,o),
(612,917,cs),
(326,917,o),
(77,675,o),
(77,397,cs),
(77,159,o),
(260,-17,o),
(504,-17,cs),
(563,-17,o),
(621,-7,o),
(674,12,c),
(698,-30,l)
);
},
{
closed = 1;
nodes = (
(440,248,o),
(373,325,o),
(373,417,cs),
(373,531,o),
(474,632,o),
(589,632,cs),
(688,632,o),
(762,560,o),
(762,463,cs),
(762,431,o),
(754,401,o),
(740,373,c),
(695,450,l),
(422,450,l),
(538,248,l),
(536,248,o),
(534,248,o),
(532,248,cs)
);
}
);
width = 1040;
}
);
unicode = 81;
},
{
color = 3;
glyphname = R;
kernLeft = B;
kernRight = R;
lastChange = "2024-02-17 22:45:08 +0000";
layers = (
{
anchors = (
{
name = bottom;
pos = (362,0);
},
{
name = top;
pos = (470,900);
}
);
background = {
shapes = (
{
closed = 1;
nodes = (
(651,0,l),
(341,572,l),
(772,900,l),
(709,900,l),
(286,579,l),
(600,0,l)
);
},
{
closed = 1;
nodes = (
(105,0,l),
(330,900,l),
(286,900,l),
(61,0,l)
);
}
);
};
guides = (
{
angle = -104.036;
pos = (136,300);
},
{
angle = -104.036;
pos = (180,300);
},
{
angle = -104.036;
pos = (585,300);
}
);
layerId = "FCF05EF6-3D3F-478B-BA59-24992C4C44E9";
shapes = (
{
closed = 1;
nodes = (
(105,0,l),
(217,447,l),
(389,447,l),
(600,0,l),
(651,0,l),
(436,450,l),
(575,468,o),
(678,574,o),
(678,699,cs),
(678,813,o),
(590,900,o),
(453,900,cs),
(286,900,l),
(61,0,l)
);
},
{
closed = 1;
nodes = (
(320,862,l),
(445,862,ls),
(562,862,o),
(634,789,o),
(634,695,cs),
(634,583,o),
(533,482,o),
(386,482,cs),
(226,482,l)
);
}
);
width = 740;
},
{
anchors = (
{
name = bottom;
pos = (364,0);
},
{
name = top;
pos = (472,900);
}
);
background = {
shapes = (
{
closed = 1;
nodes = (
(243,0,l),
(243,900,l),
(129,900,l),
(129,0,l)
);
},
{
closed = 1;
nodes = (
(364,457,l),
(588,0,l),
(715,0,l),
(461,508,l)
);
},
{
closed = 1;
nodes = (
(441,414,o),
(503,440,o),
(549,481,cs),
(598,526,o),
(628,587,o),
(628,655,cs),
(628,725,o),
(597,788,o),
(548,833,cs),
(502,875,o),
(440,900,o),
(355,900,cs),
(186,900,l),
(186,799,l),
(355,799,ls),
(411,799,o),
(448,784,o),
(475,759,cs),
(503,733,o),
(521,696,o),
(521,655,cs),
(521,614,o),
(503,578,o),
(475,551,cs),
(449,525,o),
(412,510,o),
(355,510,cs),
(186,510,l),
(186,414,l),
(355,414,ls)
);
}
);
};
guides = (
{
angle = 180;
pos = (417,412);
},
{
angle = -55.3297;
pos = (469,240);
},
{
angle = -104.036;
pos = (129,300);
},
{
angle = -104.036;
pos = (243,300);
}
);
layerId = "DB28B65E-4CBC-4F12-8216-7B4F2F083639";
shapes = (
{
closed = 1;
nodes = (
(168,0,l),
(272,414,l),
(394,414,l),
(576,0,l),
(699,0,l),
(511,424,l),
(627,457,o),
(719,564,o),
(719,687,cs),
(719,813,o),
(622,900,o),
(495,900,cs),
(279,900,l),
(54,0,l)
);
},
{
closed = 1;
nodes = (
(368,798,l),
(467,798,ls),
(556,798,o),
(611,747,o),
(611,673,cs),
(611,585,o),
(533,510,o),
(431,510,cs),
(296,510,l)
);
}
);
width = 780;
},
{
anchors = (
{
name = bottom;
pos = (366,0);
},
{
name = top;
pos = (474,900);
}
);
background = {
shapes = (
{
closed = 1;
nodes = (
(243,0,l),
(243,900,l),
(129,900,l),
(129,0,l)
);
},
{
closed = 1;
nodes = (
(364,457,l),
(588,0,l),
(715,0,l),
(461,508,l)
);
},
{
closed = 1;
nodes = (
(441,414,o),
(503,440,o),
(549,481,cs),
(598,526,o),
(628,587,o),
(628,655,cs),
(628,725,o),
(597,788,o),
(548,833,cs),
(502,875,o),
(440,900,o),
(355,900,cs),
(186,900,l),
(186,799,l),
(355,799,ls),
(411,799,o),
(448,784,o),
(475,759,cs),
(503,733,o),
(521,696,o),
(521,655,cs),
(521,614,o),
(503,578,o),
(475,551,cs),
(449,525,o),
(412,510,o),
(355,510,cs),
(186,510,l),
(186,414,l),
(355,414,ls)
);
}
);
};
guides = (
{
angle = -104.036;
pos = (99,300);
},
{
angle = -104.036;
pos = (273,300);
},
{
angle = -104.036;
pos = (685,300);
}
);
layerId = "5ACC057E-9D2C-45A0-8610-B9302B4AC058";
shapes = (
{
closed = 1;
nodes = (
(200,0,l),
(285,342,l),
(431,342,l),
(546,0,l),
(731,0,l),
(594,386,l),
(699,427,o),
(761,531,o),
(761,641,cs),
(761,781,o),
(641,900,o),
(494,900,cs),
(249,900,l),
(26,0,l)
);
},
{
closed = 1;
nodes = (
(384,744,l),
(460,744,ls),
(536,744,o),
(587,701,o),
(587,635,cs),
(587,557,o),
(516,492,o),
(430,492,cs),
(322,492,l)
);
}
);
width = 800;
},
{
anchors = (
{
name = bottom;
pos = (373,0);
},
{
name = top;
pos = (511,900);
}
);
background = {
shapes = (
{
closed = 1;
nodes = (
(273,0,l),
(346,294,l),
(407,294,l),
(469,0,l),
(781,0,l),
(691,366,l),
(773,420,o),
(833,501,o),
(856,596,cs),
(902,778,o),
(790,900,o),
(592,900,cs),
(209,900,l),
(-15,0,l)
);
},
{
closed = 1;
nodes = (
(442,678,l),
(497,678,ls),
(550,678,o),
(580,644,o),
(567,591,cs),
(553,536,o),
(508,504,o),
(453,504,cs),
(398,504,l)
);
}
);
};
guides = (
{
angle = -104.036;
pos = (783,300);
},
{
angle = -104.036;
pos = (493,300);
}
);
layerId = "5435BF97-BB07-4B92-90A3-3494A24C81AC";
shapes = (
{
closed = 1;
nodes = (
(273,0,l),
(346,294,l),
(423,294,l),
(485,0,l),
(781,0,l),
(696,347,l),
(797,409,o),
(856,519,o),
(856,631,cs),
(856,775,o),
(761,900,o),
(578,900,cs),
(209,900,l),
(-15,0,l)
);
},
{
closed = 1;
nodes = (
(442,678,l),
(489,678,ls),
(536,678,o),
(566,649,o),
(566,604,cs),
(566,552,o),
(525,504,o),
(468,504,cs),
(398,504,l)
);
}
);
width = 850;
}
);
unicode = 82;
},
{
color = 3;
glyphname = S;
kernLeft = S;
kernRight = S;
lastChange = "2024-03-04 21:19:55 +0000";
layers = (
{
anchors = (
{
name = bottom;
pos = (270,0);
},
{
name = top;
pos = (446,900);
}
);
background = {
shapes = (
{
closed = 1;
nodes = (
(375,-12,o),
(516,94,o),
(550,229,cs),
(574,328,o),
(533,415,o),
(436,470,cs),
(331,530,ls),
(256,573,o),
(227,630,o),
(245,702,cs),
(269,800,o),
(364,873,o),
(468,873,cs),
(536,873,o),
(598,842,o),
(634,789,c),
(657,835,l),
(614,884,o),
(550,912,o),
(479,912,cs),
(353,912,o),
(231,820,o),
(202,703,cs),
(181,617,o),
(217,540,o),
(301,492,cs),
(407,432,ls),
(493,382,o),
(528,314,o),
(507,229,cs),
(478,113,o),
(366,27,o),
(243,27,cs),
(158,27,o),
(87,66,o),
(49,137,c),
(25,87,l),
(70,24,o),
(144,-12,o),
(230,-12,cs)
);
}
);
};
guides = (
{
angle = -104.036;
pos = (101,300);
},
{
angle = -104.036;
pos = (568,300);
}
);
layerId = "FCF05EF6-3D3F-478B-BA59-24992C4C44E9";
name = Regular;
shapes = (
{
closed = 1;
nodes = (
(425,-12,o),
(550,105,o),
(550,251,cs),
(550,334,o),
(510,407,o),
(435,461,cs),
(332,535,ls),
(275,576,o),
(246,627,o),
(246,684,cs),
(246,786,o),
(338,873,o),
(444,873,cs),
(515,873,o),
(585,834,o),
(625,771,c),
(648,818,l),
(600,876,o),
(524,912,o),
(447,912,cs),
(316,912,o),
(203,805,o),
(203,681,cs),
(203,611,o),
(239,545,o),
(302,500,cs),
(406,426,ls),
(472,379,o),
(507,319,o),
(507,250,cs),
(507,127,o),
(401,27,o),
(271,27,cs),
(181,27,o),
(100,75,o),
(57,153,c),
(34,106,l),
(87,31,o),
(173,-12,o),
(268,-12,cs)
);
}
);
width = 640;
},
{
anchors = (
{
name = bottom;
pos = (279,0);
},
{
name = top;
pos = (492,900);
}
);
background = {
shapes = (
{
closed = 1;
nodes = (
(405,-12,o),
(552,99,o),
(589,253,cs),
(629,412,o),
(517,476,o),
(470,503,cs),
(372,559,ls),
(346,574,o),
(285,609,o),
(305,689,cs),
(322,758,o),
(387,812,o),
(467,812,cs),
(549,812,o),
(604,752,o),
(624,696,c),
(691,834,l),
(658,870,o),
(593,912,o),
(497,912,cs),
(350,912,o),
(224,814,o),
(190,678,cs),
(156,538,o),
(250,483,o),
(296,456,cs),
(393,400,ls),
(422,383,o),
(499,341,o),
(476,246,cs),
(454,158,o),
(368,90,o),
(273,90,cs),
(169,90,o),
(110,161,o),
(91,236,c),
(24,98,l),
(60,37,o),
(137,-12,o),
(244,-12,cs)
);
}
);
};
guides = (
{
angle = 244.0183;
pos = (63,177);
},
{
angle = 244.0183;
pos = (657,765);
},
{
angle = -104.036;
pos = (73,300);
},
{
angle = -104.036;
pos = (601,300);
},
{
angle = -104.036;
pos = (95,300);
}
);
layerId = "DB28B65E-4CBC-4F12-8216-7B4F2F083639";
name = Regular;
shapes = (
{
closed = 1;
nodes = (
(451,-6,o),
(590,129,o),
(590,282,cs),
(590,365,o),
(548,426,o),
(465,489,cs),
(375,558,ls),
(331,592,o),
(307,628,o),
(307,670,cs),
(307,746,o),
(371,807,o),
(445,807,cs),
(520,807,o),
(592,751,o),
(620,670,c),
(686,801,l),
(633,866,o),
(546,906,o),
(458,906,cs),
(311,906,o),
(190,788,o),
(190,652,cs),
(190,576,o),
(230,524,o),
(301,469,cs),
(389,400,ls),
(443,358,o),
(474,316,o),
(474,263,cs),
(474,174,o),
(390,95,o),
(294,95,cs),
(201,95,o),
(119,169,o),
(97,267,c),
(31,135,l),
(77,49,o),
(178,-6,o),
(284,-6,cs)
);
}
);
width = 660;
},
{
anchors = (
{
name = bottom;
pos = (273,0);
},
{
name = top;
pos = (486,900);
}
);
background = {
shapes = (
{
closed = 1;
nodes = (
(429,-20,o),
(572,100,o),
(610,256,cs),
(649,415,o),
(548,484,o),
(486,519,cs),
(392,572,ls),
(344,599,o),
(317,626,o),
(329,673,cs),
(341,722,o),
(386,760,o),
(452,760,cs),
(525,760,o),
(593,714,o),
(630,645,c),
(724,840,l),
(682,879,o),
(606,920,o),
(500,920,cs),
(329,920,o),
(194,817,o),
(157,666,cs),
(123,527,o),
(197,463,o),
(279,417,cs),
(372,364,ls),
(402,347,o),
(455,314,o),
(438,245,cs),
(423,187,o),
(367,142,o),
(294,142,cs),
(205,142,o),
(126,202,o),
(99,284,c),
(1,84,l),
(46,26,o),
(138,-20,o),
(248,-20,cs)
);
}
);
};
guides = (
{
angle = -104.036;
pos = (54,300);
},
{
angle = -104.036;
pos = (589,300);
}
);
layerId = "5ACC057E-9D2C-45A0-8610-B9302B4AC058";
name = Regular;
shapes = (
{
closed = 1;
nodes = (
(466,-20,o),
(609,117,o),
(609,283,cs),
(609,370,o),
(570,436,o),
(480,503,cs),
(387,573,ls),
(339,609,o),
(322,633,o),
(322,665,cs),
(322,720,o),
(368,760,o),
(430,760,cs),
(504,760,o),
(581,704,o),
(622,622,c),
(715,809,l),
(651,877,o),
(547,920,o),
(447,920,cs),
(278,920,o),
(147,798,o),
(147,641,cs),
(147,562,o),
(180,508,o),
(275,432,cs),
(367,359,ls),
(414,322,o),
(434,291,o),
(434,253,cs),
(434,191,o),
(378,142,o),
(308,142,cs),
(222,142,o),
(131,217,o),
(105,309,c),
(8,118,l),
(63,37,o),
(181,-20,o),
(293,-20,cs)
);
}
);
width = 660;
},
{
anchors = (
{
name = bottom;
pos = (324,0);
},
{
name = top;
pos = (479,900);
}
);
background = {
anchors = (
{
name = bottom;
pos = (267,0);
},
{
name = top;
pos = (527,900);
}
);
shapes = (
{
closed = 1;
nodes = (
(466,-20,o),
(631,95,o),
(674,268,cs),
(706,395,o),
(665,484,o),
(538,554,cs),
(432,612,ls),
(406,627,o),
(396,636,o),
(399,648,cs),
(403,664,o),
(425,673,o),
(457,673,cs),
(528,673,o),
(610,633,o),
(660,573,c),
(792,839,l),
(719,893,o),
(631,921,o),
(533,921,cs),
(331,921,o),
(168,804,o),
(124,626,cs),
(93,503,o),
(136,421,o),
(278,343,cs),
(360,298,ls),
(391,280,o),
(404,268,o),
(401,253,cs),
(396,236,o),
(375,228,o),
(337,228,cs),
(251,228,o),
(164,278,o),
(115,357,c),
(-25,79,l),
(31,19,o),
(143,-20,o),
(262,-20,cs)
);
}
);
};
guides = (
{
angle = -104.036;
pos = (42,300);
},
{
angle = -104.036;
pos = (682,300);
},
{
angle = -34.992;
pos = (320,323);
}
);
layerId = "5435BF97-BB07-4B92-90A3-3494A24C81AC";
name = Regular;
shapes = (
{
closed = 1;
nodes = (
(518,-20,o),
(672,116,o),
(672,299,cs),
(672,397,o),
(628,480,o),
(536,543,cs),
(431,615,ls),
(409,630,o),
(398,641,o),
(398,651,cs),
(398,663,o),
(411,673,o),
(436,673,cs),
(497,673,o),
(598,615,o),
(649,552,c),
(775,806,l),
(679,887,o),
(578,920,o),
(479,920,cs),
(257,920,o),
(126,752,o),
(126,599,cs),
(126,504,o),
(177,423,o),
(280,351,cs),
(360,295,ls),
(387,276,o),
(401,265,o),
(401,251,cs),
(401,237,o),
(386,228,o),
(358,228,cs),
(284,228,o),
(179,290,o),
(126,378,c),
(-9,112,l),
(68,29,o),
(208,-20,o),
(324,-20,cs)
);
}
);
width = 700;
},
{
anchors = (
{
name = bottom;
pos = (316,0);
},
{
name = top;
pos = (338,900);
}
);
associatedMasterId = "5435BF97-BB07-4B92-90A3-3494A24C81AC";
guides = (
{
angle = 154.1197;
pos = (244,380);
}
);
layerId = "B5D24EDD-2FCB-4B16-B387-F8E8FA8E7F9F";
name = "28 Jan 24, 09:40";
shapes = (
{
closed = 1;
nodes = (
(527,-20,o),
(659,97,o),
(659,264,cs),
(659,394,o),
(591,482,o),
(447,549,cs),
(346,596,ls),
(293,621,o),
(276,636,o),
(276,655,cs),
(276,679,o),
(301,694,o),
(344,694,cs),
(415,694,o),
(501,651,o),
(562,587,c),
(623,839,l),
(545,890,o),
(446,920,o),
(351,920,cs),
(157,920,o),
(30,805,o),
(30,635,cs),
(30,506,o),
(92,433,o),
(244,361,cs),
(345,313,ls),
(393,290,o),
(413,272,o),
(413,251,cs),
(413,224,o),
(386,208,o),
(340,208,cs),
(256,208,o),
(155,264,o),
(95,343,c),
(30,81,l),
(98,21,o),
(220,-20,o),
(331,-20,cs)
);
}
);
width = 680;
}
);
unicode = 83;
},
{
color = 3;
glyphname = Scedilla;
kernLeft = S;
kernRight = S;
lastChange = "2024-02-24 09:40:46 +0000";
layers = (
{
layerId = "FCF05EF6-3D3F-478B-BA59-24992C4C44E9";
shapes = (
{
closed = 1;
nodes = (
(133,-180,l),
(280,-12,l),
(431,-6,o),
(550,109,o),
(550,251,cs),
(550,334,o),
(510,407,o),
(435,461,cs),
(332,535,ls),
(275,576,o),
(246,627,o),
(246,684,cs),
(246,786,o),
(338,873,o),
(444,873,cs),
(515,873,o),
(585,834,o),
(625,771,c),
(648,818,l),
(600,876,o),
(524,912,o),
(447,912,cs),
(316,912,o),
(203,805,o),
(203,681,cs),
(203,611,o),
(239,545,o),
(302,500,cs),
(406,426,ls),
(472,379,o),
(507,319,o),
(507,250,cs),
(507,127,o),
(401,27,o),
(271,27,cs),
(181,27,o),
(100,75,o),
(57,153,c),
(34,106,l),
(82,38,o),
(156,-3,o),
(240,-11,c),
(81,-180,l)
);
}
);
width = 640;
},
{
hints = (
{
horizontal = 1;
origin = (0,41);
target = (0,0);
type = Stem;
}
);
layerId = "DB28B65E-4CBC-4F12-8216-7B4F2F083639";
shapes = (
{
closed = 1;
nodes = (
(190,-180,l),
(331,-2,l),
(476,20,o),
(590,144,o),
(590,282,cs),
(590,365,o),
(548,426,o),
(465,489,cs),
(375,558,ls),
(331,592,o),
(307,628,o),
(307,670,cs),
(307,746,o),
(371,807,o),
(445,807,cs),
(520,807,o),
(592,751,o),
(620,670,c),
(686,801,l),
(633,866,o),
(546,906,o),
(458,906,cs),
(311,906,o),
(190,788,o),
(190,652,cs),
(190,576,o),
(230,524,o),
(301,469,cs),
(389,400,ls),
(443,358,o),
(474,316,o),
(474,263,cs),
(474,174,o),
(390,95,o),
(294,95,cs),
(201,95,o),
(119,169,o),
(97,267,c),
(31,135,l),
(68,65,o),
(142,16,o),
(225,0,c),
(47,-180,l)
);
}
);
width = 660;
},
{
hints = (
{
horizontal = 1;
origin = (0,41);
target = (0,0);
type = Stem;
}
);
layerId = "5ACC057E-9D2C-45A0-8610-B9302B4AC058";
shapes = (
{
closed = 1;
nodes = (
(214,-192,l),
(336,-17,l),
(489,3,o),
(609,131,o),
(609,283,cs),
(609,370,o),
(570,436,o),
(480,503,cs),
(387,573,ls),
(339,609,o),
(322,633,o),
(322,665,cs),
(322,720,o),
(368,760,o),
(430,760,cs),
(504,760,o),
(581,704,o),
(622,622,c),
(715,809,l),
(651,877,o),
(547,920,o),
(447,920,cs),
(278,920,o),
(147,798,o),
(147,641,cs),
(147,562,o),
(180,508,o),
(275,432,cs),
(367,359,ls),
(414,322,o),
(434,291,o),
(434,253,cs),
(434,191,o),
(378,142,o),
(308,142,cs),
(222,142,o),
(131,217,o),
(105,309,c),
(8,118,l),
(46,61,o),
(116,16,o),
(192,-5,c),
(-1,-192,l)
);
}
);
width = 660;
},
{
layerId = "5435BF97-BB07-4B92-90A3-3494A24C81AC";
shapes = (
{
closed = 1;
nodes = (
(341,-220,l),
(461,4,l),
(586,51,o),
(672,162,o),
(672,299,cs),
(672,397,o),
(628,480,o),
(536,543,cs),
(431,615,ls),
(409,630,o),
(398,641,o),
(398,651,cs),
(398,663,o),
(414,673,o),
(439,673,cs),
(500,673,o),
(598,615,o),
(649,552,c),
(775,806,l),
(679,887,o),
(578,920,o),
(479,920,cs),
(257,920,o),
(126,752,o),
(126,599,cs),
(126,504,o),
(177,423,o),
(280,351,cs),
(360,295,ls),
(387,276,o),
(401,265,o),
(401,251,cs),
(401,237,o),
(386,228,o),
(358,228,cs),
(284,228,o),
(179,290,o),
(126,378,c),
(-9,112,l),
(37,62,o),
(107,24,o),
(180,2,c),
(-25,-220,l)
);
}
);
width = 700;
}
);
unicode = 350;
},
{
color = 3;
glyphname = Germandbls;
kernLeft = B;
lastChange = "2024-02-24 10:21:29 +0000";
layers = (
{
guides = (
{
angle = -104.036;
pos = (890,300);
}
);
layerId = "FCF05EF6-3D3F-478B-BA59-24992C4C44E9";
shapes = (
{
closed = 1;
nodes = (
(721,-12,o),
(887,145,o),
(887,323,cs),
(887,443,o),
(812,544,o),
(692,574,c),
(962,899,l),
(962,900,l),
(286,900,l),
(61,0,l),
(105,0,l),
(321,862,l),
(882,862,l),
(619,541,l),
(620,540,l),
(626,541,o),
(634,542,o),
(644,542,cs),
(733,542,o),
(843,461,o),
(843,322,cs),
(843,164,o),
(700,28,o),
(549,28,cs),
(447,28,o),
(362,90,o),
(330,189,c),
(297,149,l),
(341,51,o),
(433,-12,o),
(545,-12,cs)
);
}
);
width = 950;
},
{
guides = (
{
angle = -104.036;
pos = (138,300);
},
{
angle = -104.036;
pos = (922,300);
}
);
layerId = "DB28B65E-4CBC-4F12-8216-7B4F2F083639";
shapes = (
{
closed = 1;
nodes = (
(761,-12,o),
(928,157,o),
(928,338,cs),
(928,455,o),
(859,548,o),
(756,585,c),
(1002,899,l),
(1002,900,l),
(288,900,l),
(63,0,l),
(177,0,l),
(379,804,l),
(809,804,l),
(566,494,l),
(567,493,l),
(586,501,o),
(610,506,o),
(635,506,cs),
(739,506,o),
(813,426,o),
(813,328,cs),
(813,211,o),
(708,96,o),
(590,96,cs),
(468,96,o),
(398,202,o),
(410,304,c),
(310,180,l),
(348,58,o),
(461,-12,o),
(580,-12,cs)
);
}
);
width = 990;
},
{
guides = (
{
angle = -104.036;
pos = (96,300);
},
{
angle = -104.036;
pos = (960,300);
}
);
layerId = "5ACC057E-9D2C-45A0-8610-B9302B4AC058";
shapes = (
{
closed = 1;
nodes = (
(783,-20,o),
(958,142,o),
(958,333,cs),
(958,438,o),
(905,527,o),
(822,573,c),
(1080,899,l),
(1080,900,l),
(246,900,l),
(21,0,l),
(206,0,l),
(391,738,l),
(771,738,l),
(541,446,l),
(542,445,l),
(572,457,o),
(600,463,o),
(629,463,cs),
(730,463,o),
(787,397,o),
(787,320,cs),
(787,230,o),
(708,142,o),
(609,142,cs),
(506,142,o),
(447,237,o),
(451,334,c),
(315,165,l),
(362,46,o),
(473,-20,o),
(594,-20,cs)
);
}
);
width = 990;
},
{
background = {
shapes = (
{
closed = 1;
nodes = (
(817,-20,o),
(1005,121,o),
(1053,311,cs),
(1082,427,o),
(1047,531,o),
(960,589,c),
(1199,898,l),
(1200,900,l),
(210,900,l),
(-15,0,l),
(279,0,l),
(445,666,l),
(758,666,l),
(549,387,l),
(550,385,l),
(596,397,o),
(649,404,o),
(688,404,cs),
(759,404,o),
(797,369,o),
(784,316,cs),
(771,263,o),
(717,226,o),
(654,226,cs),
(594,226,o),
(541,261,o),
(504,328,c),
(333,102,l),
(385,24,o),
(487,-20,o),
(612,-20,cs)
);
}
);
};
guides = (
{
angle = 243.2703;
pos = (527,388);
}
);
layerId = "5435BF97-BB07-4B92-90A3-3494A24C81AC";
shapes = (
{
closed = 1;
nodes = (
(871,-20,o),
(1052,147,o),
(1052,349,cs),
(1052,442,o),
(1014,517,o),
(942,568,c),
(1200,898,l),
(1200,900,l),
(210,900,l),
(-15,0,l),
(279,0,l),
(445,666,l),
(757,666,l),
(559,401,l),
(560,399,l),
(581,404,o),
(612,407,o),
(644,407,cs),
(726,407,o),
(780,375,o),
(780,317,cs),
(780,263,o),
(733,226,o),
(665,226,cs),
(599,226,o),
(546,261,o),
(505,329,c),
(340,112,l),
(407,32,o),
(528,-20,o),
(651,-20,cs)
);
}
);
width = 1080;
}
);
unicode = 7838;
},
{
color = 3;
glyphname = T;
kernLeft = T;
kernRight = T;
lastChange = "2024-02-28 05:51:25 +0000";
layers = (
{
anchors = (
{
name = bottom;
pos = (260,0);
},
{
name = center;
pos = (380,480);
},
{
name = top;
pos = (485,900);
}
);
layerId = "FCF05EF6-3D3F-478B-BA59-24992C4C44E9";
shapes = (
{
closed = 1;
nodes = (
(282,0,l),
(497,860,l),
(756,860,l),
(766,900,l),
(204,900,l),
(194,860,l),
(453,860,l),
(238,0,l)
);
}
);
width = 670;
},
{
anchors = (
{
name = bottom;
pos = (270,0);
},
{
name = center;
pos = (381,450);
},
{
name = top;
pos = (495,900);
}
);
background = {
shapes = (
{
closed = 1;
nodes = (
(642,0,l),
(642,103,l),
(48,103,l),
(48,0,l)
);
},
{
closed = 1;
nodes = (
(402,0,l),
(402,914,l),
(288,914,l),
(288,0,l)
);
}
);
};
guides = (
{
angle = 180;
pos = (359,578);
},
{
angle = -104.036;
pos = (288,300);
},
{
angle = -104.036;
pos = (402,300);
}
);
layerId = "DB28B65E-4CBC-4F12-8216-7B4F2F083639";
shapes = (
{
closed = 1;
nodes = (
(327,0,l),
(527,798,l),
(767,798,l),
(792,900,l),
(198,900,l),
(173,798,l),
(413,798,l),
(213,0,l)
);
}
);
width = 690;
},
{
anchors = (
{
name = bottom;
pos = (280,0);
},
{
name = center;
pos = (391,450);
},
{
name = top;
pos = (505,900);
}
);
background = {
shapes = (
{
closed = 1;
nodes = (
(652,0,l),
(652,103,l),
(58,103,l),
(58,0,l)
);
},
{
closed = 1;
nodes = (
(412,0,l),
(412,914,l),
(298,914,l),
(298,0,l)
);
}
);
};
guides = (
{
angle = 180;
pos = (369,578);
},
{
angle = -104.036;
pos = (262,300);
},
{
angle = -104.036;
pos = (448,300);
}
);
layerId = "5ACC057E-9D2C-45A0-8610-B9302B4AC058";
shapes = (
{
closed = 1;
nodes = (
(373,0,l),
(558,738,l),
(778,738,l),
(818,900,l),
(192,900,l),
(152,738,l),
(372,738,l),
(187,0,l)
);
}
);
width = 710;
},
{
anchors = (
{
name = bottom;
pos = (291,0);
},
{
name = center;
pos = (401,443);
},
{
name = top;
pos = (515,900);
}
);
layerId = "5435BF97-BB07-4B92-90A3-3494A24C81AC";
shapes = (
{
closed = 1;
nodes = (
(441,0,l),
(602,648,l),
(781,648,l),
(844,900,l),
(186,900,l),
(123,648,l),
(302,648,l),
(141,0,l)
);
}
);
width = 730;
}
);
unicode = 84;
},
{
color = 3;
glyphname = Tbar;
kernLeft = T;
kernRight = T;
lastChange = "2024-02-19 19:07:14 +0000";
layers = (
{
layerId = "FCF05EF6-3D3F-478B-BA59-24992C4C44E9";
shapes = (
{
closed = 1;
nodes = (
(282,0,l),
(398,462,l),
(592,462,l),
(600,498,l),
(407,498,l),
(497,860,l),
(756,860,l),
(766,900,l),
(204,900,l),
(194,860,l),
(453,860,l),
(363,498,l),
(168,498,l),
(160,462,l),
(354,462,l),
(238,0,l)
);
}
);
width = 670;
},
{
layerId = "DB28B65E-4CBC-4F12-8216-7B4F2F083639";
shapes = (
{
closed = 1;
nodes = (
(327,0,l),
(429,408,l),
(611,408,l),
(631,492,l),
(450,492,l),
(527,798,l),
(767,798,l),
(792,900,l),
(198,900,l),
(173,798,l),
(413,798,l),
(336,492,l),
(151,492,l),
(131,408,l),
(315,408,l),
(213,0,l)
);
}
);
width = 690;
},
{
layerId = "5ACC057E-9D2C-45A0-8610-B9302B4AC058";
shapes = (
{
closed = 1;
nodes = (
(373,0,l),
(470,387,l),
(615,387,l),
(647,513,l),
(502,513,l),
(558,738,l),
(778,738,l),
(818,900,l),
(192,900,l),
(152,738,l),
(372,738,l),
(316,513,l),
(167,513,l),
(135,387,l),
(284,387,l),
(187,0,l)
);
}
);
width = 710;
},
{
layerId = "5435BF97-BB07-4B92-90A3-3494A24C81AC";
shapes = (
{
closed = 1;
nodes = (
(441,0,l),
(530,356,l),
(631,356,l),
(674,530,l),
(573,530,l),
(602,648,l),
(781,648,l),
(844,900,l),
(186,900,l),
(123,648,l),
(302,648,l),
(273,530,l),
(172,530,l),
(129,356,l),
(230,356,l),
(141,0,l)
);
}
);
width = 730;
}
);
unicode = 358;
},
{
color = 3;
glyphname = Tcedilla;
kernLeft = T;
kernRight = T;
lastChange = "2024-02-22 10:36:42 +0000";
layers = (
{
layerId = "FCF05EF6-3D3F-478B-BA59-24992C4C44E9";
shapes = (
{
closed = 1;
nodes = (
(115,-180,l),
(282,0,l),
(497,860,l),
(756,860,l),
(766,900,l),
(204,900,l),
(194,860,l),
(453,860,l),
(238,0,l),
(61,-180,l)
);
}
);
width = 670;
},
{
hints = (
{
horizontal = 1;
origin = (0,8);
target = (0,0);
type = Stem;
}
);
layerId = "DB28B65E-4CBC-4F12-8216-7B4F2F083639";
shapes = (
{
closed = 1;
nodes = (
(181,-180,l),
(327,0,l),
(527,798,l),
(767,798,l),
(792,900,l),
(198,900,l),
(173,798,l),
(413,798,l),
(213,0,l),
(38,-180,l)
);
}
);
width = 690;
},
{
hints = (
{
horizontal = 1;
origin = (0,8);
target = (0,0);
type = Stem;
}
);
layerId = "5ACC057E-9D2C-45A0-8610-B9302B4AC058";
shapes = (
{
closed = 1;
nodes = (
(221,-192,l),
(373,0,l),
(558,738,l),
(778,738,l),
(818,900,l),
(192,900,l),
(152,738,l),
(372,738,l),
(187,0,l),
(6,-192,l)
);
}
);
width = 710;
},
{
layerId = "5435BF97-BB07-4B92-90A3-3494A24C81AC";
shapes = (
{
closed = 1;
nodes = (
(311,-220,l),
(441,0,l),
(602,648,l),
(781,648,l),
(844,900,l),
(186,900,l),
(123,648,l),
(302,648,l),
(141,0,l),
(-61,-220,l)
);
}
);
width = 730;
}
);
unicode = 354;
},
